<?xml version="1.0" encoding="utf-8"?>
<!-- Generator: Adobe Illustrator 26.2.1, SVG Export Plug-In . SVG Version: 6.00 Build 0)  -->
<svg version="1.1" id="Layer_1" xmlns="http://www.w3.org/2000/svg" xmlns:xlink="http://www.w3.org/1999/xlink" x="0px" y="0px"
	 viewBox="0 0 90 90" style="enable-background:new 0 0 90 90;" xml:space="preserve">
<style type="text/css">
	.st0{fill:#E8453E;}
	.st1{fill:#FFFFFF;}
	.st2{font-family:'SanFranciscoDisplay-Bold';}
	.st3{font-size:2.5023px;}
</style>
<g>
	<path class="st0" d="M5.4,47.23c-0.62-1.92-0.41-4.06,0.39-5.88c1.71-4.13,7.48-5.99,11.29-3.65c-0.28,1.04-0.54,2.07-0.88,3.2
		c-1.38-0.9-3.15-1.39-4.74-0.8c-2.07,0.68-3.27,2.95-3.2,5.05c0.04,1.08,0.62,2.18,1.67,2.57c1.12,0.39,2.35,0.19,3.47-0.1
		c0.54-0.12,0.94-0.51,1.28-0.93c0.44,1.04,1.04,2,1.44,3.05c-0.59,0.57-1.45,0.69-2.21,0.91c-1.91,0.51-4,0.47-5.81-0.4
		C6.81,49.71,5.84,48.56,5.4,47.23z"/>
	<path class="st0" d="M21,33.04h-1.92c0.26-1.08,0.77-3.33,0.77-3.33l5.5-0.08c0,0-1.02,3.96-1.53,5.95
		c1.08-0.15,2.25-0.15,3.19,0.46c1.19,0.76,1.81,2.22,1.67,3.6c-0.26,2.46-1.13,4.81-1.57,7.24c0.07,0.72,0.93,0.54,1.42,0.52
		c0.18,0.57,0.36,1.13,0.54,1.7c-0.9,0.64-2.08,0.66-3.11,0.39c-0.62-0.15-1.26-0.43-1.64-0.97c-0.57-0.76-0.65-1.78-0.44-2.69
		c0.4-1.73,0.84-3.44,1.24-5.18c0.18-0.68-0.18-1.51-0.88-1.71c-0.72-0.26-1.48,0.29-1.6,1.01c-0.91,3.34-1.8,6.71-2.69,10.05
		c-1.13,0.1-2.26,0.14-3.4,0.23C18.01,44.5,19.52,38.77,21,33.04z"/>
	<path class="st0" d="M40.95,46.09c-0.48,0.06-1.39,0.29-1.45-0.43c0.1-1.57,0.84-3,1.17-4.52c0.39-1.6,0.79-3.44-0.03-4.97
		c-0.52-0.99-1.53-1.74-2.68-1.8c-1.62-0.11-3.23,0.08-4.83,0.17c-0.25,1.08-0.5,2.15-0.77,3.22c1.26-0.15,2.5-0.37,3.77-0.32
		c0.59,0.03,1.23,0.29,1.51,0.59c-1.73-0.03-3.53-0.19-5.16,0.51c-2.43,1.01-3.62,3.37-3.36,5.74c0.1,1.59,1.08,3.11,2.53,3.77
		c1.81,0.84,3.96,0.64,5.73-0.23c1.68,1.59,4.18,0.03,4.18,0.03S41.16,46.67,40.95,46.09z M36.38,44.18
		c-0.41,0.86-1.45,1.1-2.32,1.1c-0.65,0.04-1.39-0.29-1.59-0.97c-0.26-0.94,0.22-2.03,1.08-2.49c1.06-0.55,2.32-0.48,3.47-0.33
		C36.87,42.4,36.77,43.34,36.38,44.18z"/>
	<path class="st0" d="M45.22,47.63c-1.15,0.08-2.29,0.21-3.44,0.29c1.28-4.83,2.6-9.67,3.87-14.5c1.09-0.08,2.18-0.18,3.27-0.23
		c-0.08,0.36-0.17,0.73-0.25,1.09c1.05-0.37,2.18-0.43,3.29-0.25c-0.19,1.01-0.41,2-0.62,3c-1.15-0.1-2.39-0.03-3.34,0.66
		c-0.22,0.36-0.26,0.79-0.39,1.19C46.82,41.79,46.02,44.72,45.22,47.63z"/>
	<path class="st0" d="M65.46,31.73c-1.74-0.18-3.53,0.23-5,1.22c-1.89-0.28-3.94-0.1-5.61,0.88c-1.89,1.16-3.05,3.29-3.31,5.47
		c-0.15,1.64-0.04,3.44,0.97,4.82c0.68,0.99,1.77,1.62,2.9,1.93c-0.84,1.1-1.78,2.13-2.58,3.26c0.93,0.17,1.89,0.17,2.8,0.47
		c1.37,0.41,2.76,1.08,3.58,2.31c0.88,1.33,0.55,3.37-0.79,4.28c-1.45,0.95-3.52,0.77-4.74-0.48c-1.41-1.39-1.53-3.52-1.51-5.39
		c-5.29,0.48-10.58,0.94-15.85,1.41c0.44-0.84,0.93-1.66,1.38-2.5c-11.12,1.52-22.22,3.05-33.32,4.61
		c8.84-0.23,17.67-0.62,26.52-0.88c-0.46,0.81-0.95,1.6-1.37,2.43c6.61-0.3,13.24-0.59,19.86-0.87c0.18,0.72,0.4,1.42,0.77,2.06
		c1.57,2.72,5,4.18,8.05,3.42c1.6-0.39,3.05-1.42,3.88-2.84c1.04-1.74,1.22-3.92,0.64-5.85c-0.58-1.75-2.06-3.04-3.66-3.84
		c1.2-1.3,2.35-2.64,3.51-3.96c2.07-2.37,2.49-6.08,0.81-8.78c0.5-0.03,1.01-0.06,1.52-0.07C65.1,33.78,65.35,32.78,65.46,31.73z
		 M57.34,42.95c-1.15,0.14-2.25-0.68-2.51-1.78c-0.54-2.18,0.99-4.58,3.11-5.22c1.26-0.44,2.73,0.32,3.07,1.62
		C61.62,39.93,59.79,42.68,57.34,42.95z"/>
	<path class="st0" d="M66.86,37.79c-0.61-1.12-0.77-2.47-0.36-3.67c0.41-1.42,1.71-2.37,3.08-2.76c1.84-0.54,3.76-0.14,5.56,0.32
		c-0.22,1.05-0.46,2.08-0.66,3.12c-1.13-0.33-2.31-0.66-3.51-0.58c-0.55,0.04-1.35,0.21-1.37,1.2c-0.04,0.5,0.33,0.91,0.79,1.05
		c0.99,0.32,2.06,0.12,3.08-0.01c-0.23,1.04-0.46,2.08-0.68,3.12c-1.09,0.08-2.2,0.1-3.29,0.22c-0.97,0.08-1.42,1.44-0.83,2.15
		c0.4,0.52,1.15,0.58,1.77,0.51c0.88-0.08,1.7-0.47,2.43-0.94c0.48,0.87,0.91,1.77,1.39,2.65c-0.94,1.09-2.42,1.51-3.81,1.52
		c-1.23,0.04-2.55-0.15-3.56-0.93c-0.99-0.83-1.74-2.07-1.71-3.4C65.15,39.98,65.82,38.67,66.86,37.79z"/>
	<path class="st0" d="M63.13,49.66c5.61-0.58,11.21-1.2,16.82-1.77c-0.46,1.74-0.87,3.48-1.33,5.22c-4.98,0.22-9.96,0.47-14.94,0.7
		C63.9,52.41,63.72,50.95,63.13,49.66z"/>
	<path class="st0" d="M85.61,30.9c-0.19,1.01-0.41,2-0.61,3c-1.16-0.1-2.43-0.04-3.38,0.7c-0.98,3.27-1.82,6.59-2.73,9.89
		c-1.15,0.12-2.31,0.21-3.45,0.32c1.28-4.85,2.58-9.68,3.87-14.51c1.08-0.1,2.15-0.17,3.24-0.25c-0.06,0.37-0.12,0.75-0.19,1.1
		C83.4,30.76,84.52,30.73,85.61,30.9z"/>
	<g>
		<g>
			<g>
				<path class="st1" d="M28.53,47.4c-0.5,0.01-1.35,0.19-1.42-0.52c0.44-2.43,1.31-4.78,1.57-7.24c0.14-1.38-0.48-2.84-1.67-3.6
					c-0.94-0.61-2.11-0.61-3.19-0.46c0.51-1.99,1.53-5.95,1.53-5.95l-5.5,0.08c0,0-0.51,2.25-0.77,3.33H21
					c-1.48,5.73-3,11.46-4.46,17.19c1.13-0.1,2.26-0.14,3.4-0.23c0.9-3.34,1.78-6.71,2.69-10.05c0.12-0.72,0.88-1.27,1.6-1.01
					c0.7,0.21,1.06,1.04,0.88,1.71c-0.4,1.74-0.84,3.45-1.24,5.18c-0.21,0.91-0.12,1.93,0.44,2.69c0.39,0.54,1.02,0.81,1.64,0.97
					c1.02,0.28,2.21,0.25,3.11-0.39C28.89,48.53,28.71,47.97,28.53,47.4z M19.72,49.3h-0.43c0,0,1.62-6.12,2.42-9.18
					c0.12,0,0.36-0.01,0.46-0.01C21.42,42.98,19.72,49.3,19.72,49.3z M26.55,47.87c-0.44-0.39-0.4-1.05-0.28-1.57
					c0.37-1.6,0.81-3.19,1.27-4.76c0.22-0.88,0.4-1.81,0.28-2.72c-0.22-1.23-1.33-2.25-2.57-2.35c-0.88-0.11-1.74,0.17-2.55,0.48
					c0.51-2.14,1.1-4.27,1.62-6.41c-1.22,0.01-3.74,0.01-3.74,0.01s-0.59,1.15-0.93,1.7c0.14-0.75,0.51-2.2,0.51-2.2
					s3.16-0.03,4.72-0.08c-0.5,1.97-1.52,6.1-1.52,6.1s1.82-0.58,3.02,0.04c1.41,0.59,2.14,2.24,1.92,3.71
					c-0.3,2.21-0.99,4.35-1.48,6.52c-0.08,0.41-0.12,0.99,0.29,1.26c0.37,0.19,0.8,0.15,1.19,0.21c0.08,0.32,0.18,0.62,0.26,0.94
					c-0.17-0.15-0.33-0.32-0.5-0.47C27.55,48.26,26.95,48.26,26.55,47.87z"/>
			</g>
			<g>
				<path class="st1" d="M82.35,31.15c0.07-0.36,0.14-0.73,0.19-1.1c-1.09,0.08-2.17,0.15-3.24,0.25
					c-1.28,4.83-2.58,9.67-3.87,14.51c1.15-0.11,2.31-0.19,3.45-0.32c0.91-3.3,1.75-6.61,2.73-9.89c0.95-0.75,2.22-0.8,3.38-0.7
					c0.19-0.99,0.41-1.99,0.61-3C84.52,30.73,83.4,30.76,82.35,31.15z M78.98,42.57c-0.14,0.41-0.12,1.04-0.73,1.02
					c0.69-2.76,1.52-5.5,2.25-8.26c0.14-0.41,0.14-0.98,0.7-0.99C80.53,37.1,79.7,39.82,78.98,42.57z M84.86,32.8
					c-0.03-0.46-0.03-0.9-0.06-1.34c-1.22,0.06-2.4,0.39-3.48,0.94c0.1-0.5,0.18-0.98,0.26-1.46c-0.44-0.1-0.88-0.19-1.33-0.29
					c0.62-0.06,1.24-0.11,1.88-0.14c-0.08,0.4-0.14,0.79-0.21,1.19c1.05-0.4,2.15-0.66,3.29-0.51
					C85.13,31.73,85.03,32.28,84.86,32.8z"/>
			</g>
			<g>
				<path class="st1" d="M70.97,34.21c1.2-0.08,2.37,0.25,3.51,0.58c0.21-1.04,0.44-2.07,0.66-3.12c-1.81-0.46-3.73-0.86-5.56-0.32
					c-1.37,0.39-2.66,1.34-3.08,2.76c-0.41,1.2-0.25,2.55,0.36,3.67c-1.04,0.88-1.71,2.2-1.67,3.58c-0.03,1.33,0.72,2.57,1.71,3.4
					c1.01,0.77,2.33,0.97,3.56,0.93c1.39-0.01,2.87-0.43,3.81-1.52c-0.48-0.88-0.91-1.78-1.39-2.65c-0.73,0.47-1.55,0.86-2.43,0.94
					c-0.62,0.07-1.37,0.01-1.77-0.51c-0.59-0.72-0.14-2.07,0.83-2.15c1.09-0.12,2.2-0.14,3.29-0.22c0.22-1.04,0.44-2.08,0.68-3.12
					c-1.02,0.14-2.08,0.33-3.08,0.01c-0.46-0.14-0.83-0.55-0.79-1.05C69.62,34.42,70.42,34.25,70.97,34.21z M66.33,38.95
					c0.35-0.43,0.73-0.83,1.15-1.2c0.12,0.12,0.25,0.25,0.36,0.37C67.33,38.4,66.83,38.69,66.33,38.95z M72.49,42.41l0.61,0.99
					l-0.62-0.57c0,0-1.09,0.75-2.33,0.66c-1.24-0.08-1.89-0.8-2.03-1.45C68.34,42.69,70.09,43.95,72.49,42.41z M70.03,36.75
					c0.94,0.37,1.99,0.18,2.97,0.11c-0.12,0.65-0.23,1.3-0.39,1.93c-0.03-0.5-0.06-0.99-0.08-1.48c-0.93,0.07-1.93,0.19-2.78-0.28
					c-0.77-0.51-0.91-1.59-0.46-2.35C69.18,35.1,68.97,36.3,70.03,36.75z M68.49,32.39c1.84-1.22,4.18-1.01,6.21-0.5
					c-0.1,0.64-0.19,1.27-0.32,1.91c-0.03-0.52-0.06-1.06-0.08-1.59C72.38,31.67,70.16,31.62,68.49,32.39z"/>
			</g>
			<g>
				<path class="st1" d="M48.67,34.28c0.08-0.36,0.17-0.73,0.25-1.09c-1.09,0.06-2.18,0.15-3.27,0.23
					c-1.27,4.83-2.58,9.67-3.87,14.5c1.15-0.08,2.29-0.21,3.44-0.29c0.8-2.91,1.6-5.84,2.39-8.75c0.12-0.4,0.17-0.83,0.39-1.19
					c0.95-0.69,2.2-0.76,3.34-0.66c0.21-0.99,0.43-1.99,0.62-3C50.85,33.85,49.72,33.91,48.67,34.28z M45.11,46.68
					c-0.11-0.01-0.39,0.01-0.5,0c0.81-3.02,1.66-6.08,2.44-9.1c0.12-0.03,0.36-0.06,0.48-0.06C46.73,40.58,45.95,43.64,45.11,46.68z
					 M51.23,36.04c-0.01-0.48-0.03-0.95-0.04-1.44c-1.23,0.04-2.4,0.4-3.49,0.93c0.1-0.48,0.18-0.98,0.26-1.46
					c-0.44-0.08-0.9-0.17-1.34-0.25c0.62-0.08,1.24-0.12,1.86-0.18c-0.06,0.4-0.12,0.79-0.18,1.19c1.05-0.39,2.18-0.7,3.3-0.47
					C51.49,34.92,51.38,35.48,51.23,36.04z"/>
			</g>
			<g>
				<path class="st1" d="M40.95,46.09c-0.48,0.06-1.39,0.29-1.45-0.43c0.1-1.57,0.84-3,1.17-4.52c0.39-1.6,0.79-3.44-0.03-4.97
					c-0.52-0.99-1.53-1.74-2.68-1.8c-1.62-0.11-3.23,0.08-4.83,0.17c-0.25,1.08-0.5,2.15-0.77,3.22c1.26-0.15,2.5-0.37,3.77-0.32
					c0.59,0.03,1.23,0.29,1.51,0.59c-1.73-0.03-3.53-0.19-5.16,0.51c-2.43,1.01-3.62,3.37-3.36,5.74c0.1,1.59,1.08,3.11,2.53,3.77
					c1.81,0.84,3.96,0.64,5.73-0.23c1.68,1.59,4.18,0.03,4.18,0.03S41.16,46.67,40.95,46.09z M35.91,45.91
					c-0.79,0.32-1.66,0.44-2.5,0.35c-2.5-0.41-1.39-2.97-1.35-3c-0.15,0.86,0,1.96,0.87,2.36c1.02,0.43,2.26,0.11,3.16-0.21
					C36.05,45.54,35.96,45.78,35.91,45.91z M36.38,44.18c-0.41,0.86-1.45,1.1-2.32,1.1c-0.65,0.04-1.39-0.29-1.59-0.97
					c-0.26-0.94,0.22-2.03,1.08-2.49c1.06-0.55,2.32-0.48,3.47-0.33C36.87,42.4,36.77,43.34,36.38,44.18z M37.89,39.2
					c-1.99-0.29-4.09-0.23-5.9,0.77c-1.24,0.68-1.97,1.99-2.39,3.3c0.03-1.81,1.3-3.47,2.97-4.1c1.74-0.65,3.63-0.65,5.43-0.41
					C37.99,38.87,37.93,39,37.89,39.2z M40.37,46.94c-0.51-0.06-1.09-0.01-1.46-0.43c-0.43-0.46-0.32-1.15-0.18-1.7
					c0.66-2.25,1.46-4.52,1.42-6.89c0-1.22-0.83-2.42-2.04-2.69c-1.49-0.28-2.98,0.15-4.47,0.04c0.35-0.48,0.97-0.37,1.48-0.41
					c1.04-0.04,2.08-0.15,3.12-0.03c1.3,0.23,2.31,1.42,2.39,2.73c0.25,2.54-0.83,4.92-1.42,7.33c-0.1,0.46-0.21,1.01,0.11,1.42
					c0.35,0.33,0.87,0.22,1.31,0.25c0.07,0.28,0.14,0.55,0.19,0.84C40.66,47.26,40.51,47.1,40.37,46.94z"/>
			</g>
			<g>
				<path class="st1" d="M11.46,40.11c1.59-0.59,3.36-0.1,4.74,0.8c0.35-1.13,0.61-2.17,0.88-3.2c-3.81-2.35-9.58-0.48-11.29,3.65
					c-0.8,1.82-1.01,3.96-0.39,5.88c0.44,1.33,1.41,2.47,2.69,3.04c1.81,0.87,3.91,0.91,5.81,0.4c0.76-0.22,1.62-0.35,2.21-0.91
					c-0.4-1.05-0.99-2.02-1.44-3.05c-0.35,0.41-0.75,0.8-1.28,0.93c-1.12,0.29-2.35,0.48-3.47,0.1c-1.05-0.39-1.63-1.49-1.67-2.57
					C8.19,43.06,9.39,40.79,11.46,40.11z M10.65,48.26c1.35,0.11,2.79-0.08,3.98-0.81c0.37,0.72,0.99,2.2,1.06,2.39
					c-0.1-0.14-0.9-1.2-1.33-1.73c-1.33,0.44-2.79,0.83-4.17,0.4c-1.05-0.29-1.97-1.09-2.29-2.15c-0.32-0.91-0.14-1.89,0.08-2.8
					c-0.03,0.95-0.18,1.92,0.21,2.82C8.53,47.43,9.56,48.16,10.65,48.26z M6.1,47.22C6.43,48.26,7.17,49.11,8,49.8
					c-1.2-0.62-2.06-1.81-2.39-3.11c-0.57-2.1-0.1-4.38,1.04-6.21c2.04-3.19,6.64-4.5,10-2.65c-0.17,0.66-0.35,1.33-0.54,1.97
					c0.01-0.58,0.01-1.17,0.01-1.77c-2.29-0.77-5.01-0.72-7.06,0.69C6.35,40.5,5.1,44.15,6.1,47.22z"/>
			</g>
		</g>
		<g>
			<g>
				<path class="st1" d="M65.46,31.73c-1.74-0.18-3.53,0.23-5,1.22c-1.89-0.28-3.94-0.1-5.61,0.88c-1.89,1.16-3.05,3.29-3.31,5.47
					c-0.15,1.64-0.04,3.44,0.97,4.82c0.68,0.99,1.77,1.62,2.9,1.93c-0.84,1.1-1.78,2.13-2.58,3.26c0.93,0.17,1.89,0.17,2.8,0.47
					c1.37,0.41,2.76,1.08,3.58,2.31c0.88,1.33,0.55,3.37-0.79,4.28c-1.45,0.95-3.52,0.77-4.74-0.48c-1.41-1.39-1.53-3.52-1.51-5.39
					c-5.29,0.48-10.58,0.94-15.85,1.41c0.44-0.84,0.93-1.66,1.38-2.5c-11.12,1.52-22.22,3.05-33.32,4.61
					c8.84-0.23,17.67-0.62,26.52-0.88c-0.46,0.81-0.95,1.6-1.37,2.43c6.61-0.3,13.24-0.59,19.86-0.87c0.18,0.72,0.4,1.42,0.77,2.06
					c1.57,2.72,5,4.18,8.05,3.42c1.6-0.39,3.05-1.42,3.88-2.84c1.04-1.74,1.22-3.92,0.64-5.85c-0.58-1.75-2.06-3.04-3.66-3.84
					c1.2-1.3,2.35-2.64,3.51-3.96c2.07-2.37,2.49-6.08,0.81-8.78c0.5-0.03,1.01-0.06,1.52-0.07C65.1,33.78,65.35,32.78,65.46,31.73z
					 M55.2,57.66c-1.23-0.21-2.31-1.04-2.97-2.07c-0.77-1.19-1.04-2.65-0.97-4.05c-5.58,0.47-11.16,0.97-16.74,1.45
					c0.5-0.84,1.05-1.63,1.52-2.47c-5.15,0.52-13.81,1.7-18.96,2.26c2.33-0.44,8.23-1.28,10.59-1.64c3.09-0.41,6.2-0.83,9.29-1.27
					c-0.44,0.86-0.93,1.7-1.37,2.55c5.36-0.4,10.73-0.86,16.09-1.27c0.03,1.63,0.33,3.36,1.34,4.68c0.65,0.87,1.66,1.49,2.75,1.53
					c0.84,0.08,1.73-0.12,2.47-0.32C57.36,57.66,56.24,57.82,55.2,57.66z M52.59,38.45c-0.35,0.83-0.51,1.71-0.7,2.58
					c-0.06-2.31,0.66-4.76,2.49-6.28c1.74-1.53,4.24-1.75,6.42-1.3c-0.04,0.1-0.11,0.28-0.14,0.36c-1.89-0.22-3.95-0.11-5.55,1.01
					C53.84,35.66,53.15,37.08,52.59,38.45z M54.73,47.74l1.22-1.57l0.47,0.06L54.73,47.74z M55.7,43.42
					c-1.09-0.47-1.8-1.59-1.78-2.76c0-1.31,0.69-2.53,1.52-3.49c-0.66,1.1-1.37,2.33-1.2,3.67c0.08,0.99,0.81,1.88,1.74,2.24
					c0.88,0.36,1.86,0.21,2.78,0.1C57.83,43.67,56.7,43.82,55.7,43.42z M62.4,51.64c0.77,2.24,0.03,4.82-1.6,6.48
					c1.02-1.67,1.75-3.67,1.27-5.65c-0.37-1.89-1.99-3.23-3.65-4.03c0.04-0.14,0.14-0.4,0.18-0.54
					C60.35,48.46,61.78,49.91,62.4,51.64z M57.34,42.95c-1.15,0.14-2.25-0.68-2.51-1.78c-0.54-2.18,0.99-4.58,3.11-5.22
					c1.26-0.44,2.73,0.32,3.07,1.62C61.62,39.93,59.79,42.68,57.34,42.95z M63.6,41.05c0-1.16,0.12-2.33-0.15-3.48
					c-0.18-0.94-0.61-1.82-1.15-2.61c0.11-0.12,0.22-0.23,0.33-0.36C64.11,36.39,64.28,38.89,63.6,41.05z M63.52,34.53
					c0.18-0.1,0.36-0.21,0.54-0.3c0.17-0.59,0.32-1.19,0.46-1.78c-0.58-0.04-1.17-0.06-1.75-0.11c0.73-0.23,1.52-0.26,2.28-0.25
					c-0.21,0.8-0.41,1.62-0.66,2.42C64.08,34.5,63.81,34.52,63.52,34.53z"/>
			</g>
			<g>
				<path class="st1" d="M63.13,49.66c0.59,1.28,0.77,2.75,0.55,4.16c4.98-0.23,9.96-0.48,14.94-0.7c0.46-1.74,0.87-3.48,1.33-5.22
					C74.34,48.46,68.74,49.08,63.13,49.66z M78.59,51.45c-0.04-0.83,0.08-1.64,0.14-2.46c-4.9,0.48-14.61,1.46-14.61,1.46
					l-0.21-0.58c0,0,10.29-0.87,15.41-1.31C79.08,49.53,78.87,50.49,78.59,51.45z"/>
			</g>
			<text transform="matrix(0.9992 -0.0407 0.0407 0.9992 64.3208 57.8722)" class="st1 st2 st3">ESTD 2023</text>
			<text transform="matrix(0.9992 -0.0407 0.0407 0.9992 16.8822 59.6393)" class="st1 st2 st3">CHARGE YOUR NIGHT</text>
		</g>
	</g>
</g>
</svg>
