<?xml version="1.0" encoding="utf-8"?>
<!-- Generator: Adobe Illustrator 26.2.1, SVG Export Plug-In . SVG Version: 6.00 Build 0)  -->
<svg version="1.1" id="Layer_1" xmlns="http://www.w3.org/2000/svg" xmlns:xlink="http://www.w3.org/1999/xlink" x="0px" y="0px"
	 viewBox="0 0 150 150" style="enable-background:new 0 0 150 150;" xml:space="preserve">
<style type="text/css">
	.st0{fill:#FB3A33;stroke:#CBE294;stroke-width:0.3302;stroke-miterlimit:10;}
	.st1{fill:#C1E090;}
	.st2{fill:#CBE294;}
</style>
<g>
	<path class="st0" d="M140.6,53.9c-0.6-0.8-1.6-1.3-2.6-1.3c-0.1,0-0.2,0-0.3,0l-6.9,0.6c-1.4,0.1-2.5,1.1-2.9,2.4
		c-0.5,1.7-0.9,3.4-1.4,5.1c-0.4-0.3-0.8-0.6-1.3-0.9c-1.2-0.6-2.6-1-4.2-1c-0.3,0-0.5,0-0.8,0c-2,0.1-3.8,0.7-5.4,1.6
		c-0.6-0.5-1.3-0.7-2.1-0.7c-0.1,0-0.1,0-0.2,0l-5.2,0.3c-0.5,0-0.9,0.1-1.3,0.3c-0.4-0.1-0.7-0.2-1.1-0.2c-0.1,0-0.1,0-0.2,0
		l-5,0.3c-0.5,0-0.9,0.2-1.3,0.4c-0.4-0.1-0.8-0.2-1.2-0.2c-0.1,0-0.1,0-0.2,0l-3.3,0.2c-0.1-0.6-0.4-1.1-0.8-1.5
		c-0.6-0.6-1.5-1-2.4-1c-0.1,0-0.2,0-0.2,0l-6.2,0.4c-1.6,0.1-3,1.4-3.1,3.1l0,0.6c-0.1,0.1-0.3,0.2-0.4,0.3c-0.1,0-0.1-0.1-0.2-0.1
		c0-0.9-0.4-1.8-1.1-2.4c-0.6-0.6-1.4-0.9-2.2-0.9c-0.1,0-0.2,0-0.2,0l-6.2,0.4c-1.8,0.1-3.1,1.6-3.1,3.4c-1.3-0.6-2.8-0.9-4.7-0.9
		c-0.4,0-0.8,0-1.3,0c-2.2,0.1-4.1,0.6-5.5,1.5c-0.4,0.3-0.8,0.5-1.1,0.8c-0.6-0.4-1.2-0.8-2-1.1c-1.4-0.6-3.1-0.9-5-0.9
		c-0.2,0-0.4,0-0.7,0c-1.8,0.1-3.4,0.4-4.7,1.1l-1.1-4.1c-0.4-1.4-1.7-2.5-3.2-2.5c0,0-9,0.1-9,0.1c-0.6,0-1.2,0.2-1.7,0.5
		c-0.5-0.3-1.1-0.4-1.6-0.4c0,0-9,0.1-9,0.1c-1.1,0-2.1,0.6-2.7,1.5c-0.6,0.9-0.7,2.1-0.3,3.1l2.2,5.5c-0.6-0.5-1.3-0.7-2.1-0.7
		c-0.1,0-0.3,0-0.4,0c-1,0.1-1.8,0.7-2.4,1.5l-2.2,3.6c-0.5,0.8-0.6,1.8-0.3,2.8c0.3,0.9,1,1.7,1.9,2l1.4,0.6c0,0.1,0,0.2,0,0.3
		l0.4,3.6c0.1,1,0.6,1.9,1.4,2.4c0.6,0.4,1.2,0.6,1.9,0.6c0.3,0,0.6,0,0.9-0.1l5.6-1.6l0.2,0.5c0.5,1.2,1.7,2,3,2.1
		c0,0,5.3,0.1,5.3,0.1c0.4,0,0.7-0.1,1.1-0.2c0.3,0.1,0.7,0.2,1.1,0.2c0,0,3.8,0.1,3.8,0.1c0.3,0,0.7-0.1,1-0.2
		c0.3,0.1,0.7,0.2,1,0.2c0,0,5.3,0.1,5.3,0.1c0.8,0,1.5-0.3,2.1-0.7c0.3,0.2,0.7,0.3,1,0.4c1.2,0.4,2.6,0.7,4,0.8c0.3,0,0.5,0,0.8,0
		c1.3,0,2.4-0.2,3.4-0.5c0.7-0.3,1.3-0.6,1.9-1.1c0.2,0.2,0.4,0.3,0.6,0.5c1.3,0.8,2.7,1.3,4.1,1.4c0.2,0,0.4,0,0.6,0
		c0.6,0,1.1-0.1,1.6-0.2c0.2,0.1,0.4,0.1,0.7,0.1l5,0.4c0.1,0,0.2,0,0.3,0c0.7,0,1.3-0.2,1.8-0.6c0.5,0.3,0.9,0.5,1.4,0.6
		c0.7,0.2,1.7,0.4,3.1,0.5l2.1,0.2c0.1,0,0.2,0,0.3,0c0.8,0,1.6-0.3,2.2-0.9c0.2-0.2,0.3-0.3,0.5-0.5c0.7,0.8,1.6,1.4,2.6,1.7
		c0.7,0.2,1.8,0.4,3.2,0.5l2.1,0.2c0.1,0,0.2,0,0.3,0c0.3,0,0.5,0,0.8-0.1c0.3,0.1,0.7,0.2,1,0.3l5.6,0.4c0.1,0,0.2,0,0.3,0
		c0.3,0,0.6,0,0.9-0.1c0.3,0.2,0.7,0.2,1.1,0.3l5.5,0.4c0.1,0,0.2,0,0.3,0c1,0,2-0.5,2.6-1.3c0.4,0.5,0.9,0.9,1.5,1.2
		c1.1,0.7,2.5,1.1,4.1,1.2c0.3,0,0.6,0,0.8,0c1.2,0,2.4-0.2,3.5-0.7c0.4-0.2,0.8-0.4,1.2-0.6c0.6,0.8,1.5,1.4,2.5,1.4l4.8,0.4
		c0.1,0,0.2,0,0.3,0c1.4,0,2.7-0.9,3.1-2.2l2.2-6.3c0.2-0.5,0.2-1.1,0.1-1.6c3-7.8,6-15.7,9.1-23.6C141.5,56,141.3,54.8,140.6,53.9z
		"/>
	<path class="st1" d="M56,74.5c-2.4,0-4.8,0-7.2,0c0.2,1.1,0.5,2.3,0.7,3.4c0.2,0.7,0.3,1.2,0.5,1.4c0.2,0.2,0.4,0.3,0.7,0.3
		c0.4,0,0.7-0.1,0.7-0.4c0.1-0.3,0-0.8-0.1-1.6c-0.1-0.7-0.3-1.4-0.4-2.1c1.8,0,3.5,0,5.3,0.1c0.1,0.4,0.1,0.8,0.2,1.2
		c0.2,1,0.2,1.8,0.2,2.3c-0.1,0.5-0.3,1.1-0.7,1.7c-0.4,0.6-1,1-1.7,1.3c-0.7,0.3-1.6,0.4-2.8,0.3c-1.1-0.1-2.1-0.3-3.1-0.6
		c-0.9-0.3-1.7-0.8-2.3-1.3c-0.6-0.5-1.1-1.1-1.4-1.7c-0.3-0.6-0.7-1.5-1-2.6c-0.4-1.5-0.8-3-1.2-4.5c-0.4-1.3-0.4-2.4-0.2-3.2
		c0.3-0.8,0.8-1.4,1.8-1.9c0.9-0.5,2.1-0.7,3.5-0.8c1.7-0.1,3.1,0.1,4.3,0.6c1.2,0.5,2,1.2,2.6,2c0.6,0.9,1,2.1,1.2,3.7
		C55.8,73.1,55.9,73.8,56,74.5z M49.9,71.9c-0.1-0.4-0.2-0.8-0.2-1.2c-0.2-0.8-0.3-1.4-0.5-1.6c-0.2-0.2-0.4-0.4-0.7-0.3
		c-0.4,0-0.6,0.1-0.7,0.3c-0.1,0.2,0,0.8,0.2,1.6c0.1,0.4,0.2,0.8,0.2,1.2C48.8,71.9,49.3,71.9,49.9,71.9z"/>
	<path class="st1" d="M38.5,60.5c1.9,7.2,3.8,14.3,5.7,21.5c-1.8,0-3.5-0.1-5.3-0.1c-1.5-4.8-2.9-9.6-4.4-14.4
		c0.7,4.8,1.5,9.6,2.3,14.4c-1.2,0-2.5,0-3.7-0.1c-2.4-4.7-4.8-9.3-7.3-13.9c1.7,4.6,3.4,9.3,5.1,13.9c-1.8,0-3.5-0.1-5.3-0.1
		c-2.8-7-5.6-13.9-8.5-20.9c3,0,5.9-0.1,8.9-0.1c0.7,1.3,1.5,2.8,2.3,4.5c0.9,1.8,1.8,3.6,2.8,5.4c-0.6-3.3-1.2-6.6-1.7-9.9
		C32.5,60.6,35.5,60.5,38.5,60.5z"/>
	<polygon class="st2" points="18.7,76.4 12,73.7 14.3,70.1 19.6,75 	"/>
	<polygon class="st2" points="21.8,79.2 15.9,80.9 15.6,77.3 21.7,77.8 	"/>
	<path class="st1" d="M61.8,72.4c-1.8,0-3.6,0-5.3,0.1c-0.1-0.4-0.2-0.7-0.2-1.1c-0.3-1.2-0.3-2.2-0.1-2.8c0.2-0.7,0.8-1.3,1.7-1.9
		c1-0.6,2.3-0.9,4-1c2-0.1,3.6,0.1,4.7,0.7c1.1,0.6,1.8,1.3,2,2.2c0.3,0.9,0.5,2.8,0.8,5.7c0.2,2.9,0.5,5.9,0.7,8.8
		c-1.7-0.1-3.3-0.3-5-0.4c-0.1-0.5-0.1-1-0.2-1.5c-0.2,0.6-0.6,1-1,1.3c-0.5,0.3-1,0.4-1.7,0.3c-0.9-0.1-1.8-0.4-2.6-0.9
		c-0.8-0.5-1.5-1.6-1.8-3.2c-0.1-0.4-0.2-0.9-0.3-1.3c-0.3-1.2-0.2-2,0.1-2.4c0.3-0.4,1.3-0.9,2.9-1.5c1.7-0.6,2.7-1.1,2.8-1.3
		c0.1-0.2,0.1-0.7,0-1.4c-0.1-0.9-0.3-1.4-0.5-1.7c-0.2-0.3-0.5-0.4-0.8-0.4c-0.4,0-0.6,0.1-0.7,0.4c-0.1,0.2,0,0.8,0.1,1.7
		C61.7,71.3,61.8,71.8,61.8,72.4z M64,74.7c-0.8,0.6-1.2,1.1-1.3,1.5c-0.1,0.4-0.1,1,0.1,1.7c0.1,0.9,0.3,1.4,0.4,1.7
		c0.2,0.3,0.4,0.4,0.8,0.4c0.3,0,0.5-0.1,0.6-0.3c0.1-0.2,0.1-0.7-0.1-1.5C64.3,77,64.1,75.8,64,74.7z"/>
	<path class="st1" d="M77.2,62.6c0,1,0,1.9,0,2.9c0.5,0,1.1-0.1,1.6-0.1c0,1,0,2,0,3c-0.5,0-1.1,0-1.6,0.1c0,3.3,0,6.6,0.1,9.9
		c0,1.2,0.1,1.9,0.2,2c0.1,0.1,0.6,0.2,1.5,0.3c0,1,0,2,0,3c-0.7-0.1-1.4-0.1-2.1-0.2c-1.2-0.1-2-0.2-2.5-0.4
		c-0.5-0.1-1-0.4-1.4-0.8c-0.4-0.4-0.7-0.8-0.8-1.3c-0.1-0.5-0.2-1.6-0.3-3.4c-0.2-3-0.3-6-0.5-9c-0.4,0-0.8,0-1.3,0
		c-0.1-0.9-0.1-1.9-0.2-2.8c0.4,0,0.9,0,1.3-0.1c-0.1-0.9-0.1-1.9-0.2-2.8C73.1,62.9,75.2,62.8,77.2,62.6z"/>
	<path class="st1" d="M90.6,61.5c-0.1,1.1-0.2,2.1-0.3,3.2c0.5,0,1.1-0.1,1.6-0.1c-0.1,1.1-0.3,2.2-0.4,3.3c-0.5,0-1.1,0-1.6,0.1
		c-0.4,3.6-0.8,7.3-1.1,10.9c-0.1,1.3-0.2,2.1-0.1,2.3c0.1,0.2,0.6,0.3,1.4,0.3c-0.1,1.1-0.3,2.2-0.4,3.3c-0.7-0.1-1.4-0.1-2.1-0.2
		c-1.2-0.1-2-0.2-2.5-0.4c-0.5-0.2-0.9-0.5-1.3-0.9c-0.4-0.4-0.6-0.9-0.6-1.5c-0.1-0.5,0-1.8,0.1-3.7c0.2-3.3,0.4-6.6,0.6-10
		c-0.4,0-0.8,0-1.3,0c0.1-1,0.1-2.1,0.2-3.1c0.4,0,0.9,0,1.3-0.1c0.1-1,0.1-2.1,0.2-3.1C86.5,61.8,88.5,61.7,90.6,61.5z"/>
	<path class="st1" d="M112.7,63c-2.7,7.8-5.2,15.4-7.6,23c-1.9-0.1-3.7-0.3-5.6-0.4c0.2-2.7,0.5-6.3,0.9-10.7
		c-0.5,1.9-1.1,3.9-1.7,5.8c-0.5,1.6-0.9,3.1-1.4,4.7c-1.9-0.1-3.7-0.3-5.6-0.4c0.2-7,0.3-13.9,0.2-20.8c1.7-0.1,3.5-0.2,5.2-0.3
		c-0.1,0.6-0.2,4.6-0.6,12.2c0.2-0.8,1.2-4.8,3.3-12.3c1.7-0.1,3.3-0.2,5-0.3c-0.4,4.2-0.9,8.5-1.4,12.7c0.9-3.7,2.2-8,4-12.9
		C109.3,63.2,111,63.1,112.7,63z"/>
	<path class="st1" d="M124.6,70.9c-0.6,2-1.3,4.1-1.9,6.1c-0.7,2.2-1.3,3.9-1.8,4.9c-0.5,1-1.1,2-1.9,2.9c-0.8,0.9-1.6,1.5-2.5,1.9
		c-0.9,0.4-1.9,0.5-2.9,0.4c-1.1-0.1-2-0.3-2.7-0.8c-0.7-0.4-1.2-1-1.4-1.7c-0.3-0.7-0.4-1.6-0.3-2.6c0.1-1,0.3-2.5,0.8-4.5
		c0.5-2,1-4,1.5-6c0.5-2.2,1.1-3.9,1.8-5.1c0.7-1.2,1.6-2.2,2.9-3.1c1.2-0.8,2.7-1.3,4.3-1.4c1.4-0.1,2.5,0.1,3.3,0.5
		c0.8,0.4,1.4,1.1,1.6,1.8c0.3,0.8,0.4,1.6,0.3,2.5C125.5,67.8,125.2,69.1,124.6,70.9z M119.4,69.1c0.4-1.2,0.5-2,0.5-2.3
		c0-0.3-0.2-0.5-0.5-0.5c-0.3,0-0.6,0.2-0.8,0.5c-0.2,0.3-0.5,1.1-0.8,2.3c-1,3.6-2,7.2-3,10.8c-0.3,1.1-0.5,1.9-0.5,2.2
		c0,0.3,0.2,0.5,0.5,0.5c0.3,0,0.6-0.1,0.8-0.4c0.2-0.3,0.4-1,0.7-2C117.3,76.6,118.4,72.9,119.4,69.1z"/>
	<path class="st1" d="M138,55.9c-3.1,8-6.2,16-9.2,23.9c-1.4,0-2.8-0.1-4.2-0.1c2.2-7.8,4.4-15.5,6.5-23.2
		C133.4,56.3,135.7,56.1,138,55.9z M128.7,81.3c-0.7,2.1-1.5,4.2-2.2,6.3c-1.6-0.1-3.2-0.3-4.8-0.4c0.7-2.1,1.3-4.1,2-6.2
		C125.4,81.2,127,81.2,128.7,81.3z"/>
</g>
</svg>
