<svg id="Layer_1" data-name="Layer 1" xmlns="http://www.w3.org/2000/svg" viewBox="0 0 89 89"><defs><style>.cls-1,.cls-4{fill:#fff;}.cls-1,.cls-2,.cls-5{fill-rule:evenodd;}.cls-2{fill:#fde1d2;}.cls-3{fill:none;}</style></defs><title>logo phan</title><path class="cls-1" d="M85.41,44.58V81.37A2.53,2.53,0,0,1,82.8,84H60.15a2.56,2.56,0,0,1-2.53-2.42c0-.29,0-.58,0-.88q0-36.34,0-72.68a2.71,2.71,0,0,1,1.64-2.79,2.26,2.26,0,0,1,.91-.2c7.47,0,14.93,0,22.4,0a2.79,2.79,0,0,1,2.89,2.92c0,12.22,0,24.44,0,36.66ZM73,34.53c-.93-.38-1.74-.69-2.54-1.06-.15-.06-.26-.37-.27-.57a12.8,12.8,0,0,1,0-1.64c0-.52-.17-.69-.68-.68-1.56,0-3.12,0-4.67,0-.2,0-.39,0-.64,0A55.12,55.12,0,0,1,64.36,42h5c0-.1.07-.16.08-.22.24-2,.5-4,.69-5.93,0-.55.19-.73.73-.55l1.66.56a.69.69,0,0,1,.5.82c-.12,1.57-.22,3.14-.36,4.71,0,.4,0,.65.49.64,1.46,0,2.94,0,4.41,0a.72.72,0,0,0,.52-.44,11.27,11.27,0,0,0,.24-1.56,57.35,57.35,0,0,0,.57-8.79c0-.53-.18-.68-.69-.68-1.3,0-2.61,0-3.91,0-1.62,0-1.27-.11-1.28,1.3C73,32.73,73,33.59,73,34.53Zm.15,22.19c.13.86.26,1.53.33,2.21,0,.4.19.55.59.54,1.38,0,2.78,0,4.16,0,.43,0,.55-.16.53-.56-.06-.95-.08-1.9-.16-2.83a25.29,25.29,0,0,0-1.77-7.37A1,1,0,0,0,75.75,48c-2.12,0-4.24,0-6.37,0a1.36,1.36,0,0,0-.29.06c.16.19.28.34.39.49.88,1.25.89,1.37-.16,2.49a11.06,11.06,0,0,1-4.13,2.8.89.89,0,0,0-.53.51,12.49,12.49,0,0,0-.3,4.56c0,.45.23.59.68.58,1.32,0,2.65,0,4,0a2.13,2.13,0,0,0,1.54-.54l2-1.73C72.7,57.07,72.87,57,73.19,56.72Zm-2.49-32c0-.95,0-1.79-.12-2.63-.06-.58.16-.81.74-.87a25.28,25.28,0,0,0,6.4-1.62c.32-.13.63-.26.57-.7-.21-1.77-.4-3.53-.64-5.3a.65.65,0,0,0-.49-.38c-.71-.05-1.43,0-2.14,0-3.09,0-6.18,0-9.27,0-.52,0-.82.08-.83.71,0,1.42-.13,2.85-.12,4.27a23.22,23.22,0,0,0,.83,6c.06.19.28.48.44.48C67.58,24.74,69.09,24.73,70.7,24.73ZM68.19,70.4s0,0,.06,0a2.16,2.16,0,0,1,.27.25A31,31,0,0,0,75.1,76.1a3.69,3.69,0,0,0,2.39.78c1.1-.12,1.09.2,1.15-1.15,0-.22,0-.43,0-.64q0-4.59,0-9.2c0-.16-.17-.46-.28-.47-.77,0-1.53,0-2.32,0a20.62,20.62,0,0,1,.67,6.18c-.23-.13-.36-.18-.48-.26a21.51,21.51,0,0,1-5.22-5.5.85.85,0,0,0-.8-.46c-1.83,0-3.66,0-5.49,0a1.72,1.72,0,0,0-.44.09c.27.45.51.84.73,1.25a3.93,3.93,0,0,1,.69,1.45c.11,1.9.11,3.81.08,5.72,0,1-.16,2-.26,3,.71,0,1.33,0,2,0,.37,0,.54-.11.56-.49,0-.61.07-1.22.07-1.83C68.19,73.17,68.19,71.79,68.19,70.4Z"/><path class="cls-1" d="M69.69,57.38A21,21,0,0,1,71,51.16c.12.13.22.19.26.29.46,1.08.91,2.16,1.33,3.26.07.16.1.43,0,.53A8.67,8.67,0,0,1,69.69,57.38Z"/><path class="cls-1" d="M71.17,14.48a8.67,8.67,0,0,1,2.07,4.22.65.65,0,0,1-.23.55c-.74.28-1.49.48-2.34.75A29.83,29.83,0,0,1,71.17,14.48Z"/><path class="cls-2" d="M27.47,82.16A17.14,17.14,0,0,1,21.05,81a9.28,9.28,0,0,1-4.15-3.49,4,4,0,0,1,2.27-6,11.57,11.57,0,0,1,2.28-.29,1,1,0,0,1,.61.23,8,8,0,0,0,5.69,1.85,8,8,0,0,0,5.31-1.89c.32-.27,1-.19,1.49-.16a4.19,4.19,0,0,1,4.14,3.34A4.1,4.1,0,0,1,37.8,78a10.24,10.24,0,0,1-6.9,3.88C29.77,82,28.62,82.06,27.47,82.16Z"/><path class="cls-1" d="M49.34,33.74c.58,2.94,1.59,5.76,1.61,8.75a12.48,12.48,0,0,1-.22,2.73c-.26,1.25-1.16,1.61-2.1.73A14.07,14.07,0,0,1,46.25,43a68,68,0,0,1-4.38-9.54,26.74,26.74,0,0,0-3.58-6.71c-.48-.61-1.06-1.14-1.61-1.72A12.83,12.83,0,0,1,40.6,28c1.37,1.37,2.77,2.7,4.21,4a10,10,0,0,0,1.71,1.14A4.26,4.26,0,0,0,49.34,33.74Z"/><path class="cls-2" d="M17.31,71.92c.79-2.81,2.32-4,5.3-4.35l1-.11a2.82,2.82,0,0,1,1.78.37,4,4,0,0,0,4.33,0,10.09,10.09,0,0,1,4.68-1.15c.12,0,.31.23.4.39a10.83,10.83,0,0,0,2.6,3.16,4.88,4.88,0,0,0,6.83-.12c-.44,2.87-2.88,6.67-5.28,7A10.43,10.43,0,0,0,39.18,75a4.38,4.38,0,0,0-4-4.09,12.37,12.37,0,0,0-3.84.14,18.24,18.24,0,0,1-7.92-.08A7.3,7.3,0,0,0,17.31,71.92Z"/><path class="cls-2" d="M21.63,53c-1-.64-2.06-1.29-3.11-1.9a2.24,2.24,0,0,0-3.4.73c-.39.53-.68,1.13-1.11,1.86l2.92-.59a9.83,9.83,0,0,1,4.57.31.66.66,0,0,1,.36.5,9.57,9.57,0,0,1-2.88,6,5.11,5.11,0,0,1-7.84-1.47c-.38-.8-.62-1.66-1-2.61,1.77.06,2.42-1.13,3.08-2.31.33-.58.6-1.2,1-1.76a21,21,0,0,1,1.7-2.38c.78-.88,1.41-1,2.25-.34A14.61,14.61,0,0,1,21.63,53Z"/><path class="cls-1" d="M18.38,25.07c-2.35,1.9-3.54,4.55-4.72,7.2-1.48,3.29-2.91,6.6-4.39,9.89A20.3,20.3,0,0,1,8.14,44.1a3,3,0,0,1-1.32-1.86,16.55,16.55,0,0,1-.69-5c0-1.12,0-2.25,0-3.35,3.55-.62,5.64-3.21,7.91-5.5A13.41,13.41,0,0,1,18.38,25.07Z"/><path class="cls-3" d="M19,59.93a9.57,9.57,0,0,0,2.88-6,.66.66,0,0,0-.36-.5,9.83,9.83,0,0,0-4.57-.31L14,53.7c.43-.73.72-1.33,1.11-1.86a2.24,2.24,0,0,1,3.4-.73c1.05.61,2.07,1.26,3.11,1.9a14.61,14.61,0,0,0-3.47-3.95c-.84-.62-1.47-.54-2.25.34a21,21,0,0,0-1.7,2.38c-.36.56-.63,1.18-1,1.76-.66,1.18-1.31,2.37-3.08,2.31.35.95.59,1.81,1,2.61A5.11,5.11,0,0,0,19,59.93Z"/><path class="cls-3" d="M34.55,71.22c-.5,0-1.17-.11-1.49.16a8,8,0,0,1-5.31,1.89,8,8,0,0,1-5.69-1.85,1,1,0,0,0-.61-.23,11.57,11.57,0,0,0-2.28.29,4,4,0,0,0-2.27,6A9.28,9.28,0,0,0,21.05,81a17.14,17.14,0,0,0,6.42,1.2c1.15-.1,2.3-.15,3.43-.32A10.24,10.24,0,0,0,37.8,78a4.1,4.1,0,0,0,.89-3.4A4.19,4.19,0,0,0,34.55,71.22Z"/><path class="cls-3" d="M37.4,70.19A10.83,10.83,0,0,1,34.8,67c-.09-.16-.28-.4-.4-.39a10.09,10.09,0,0,0-4.68,1.15,4,4,0,0,1-4.33,0,2.82,2.82,0,0,0-1.78-.37l-1,.11c-3,.32-4.51,1.54-5.3,4.35a7.3,7.3,0,0,1,6.06-1,18.24,18.24,0,0,0,7.92.08,12.37,12.37,0,0,1,3.84-.14,4.38,4.38,0,0,1,4,4.09A10.43,10.43,0,0,1,39,77.08c2.4-.34,4.84-4.14,5.28-7A4.88,4.88,0,0,1,37.4,70.19Z"/><path class="cls-3" d="M35.36,46.85c3-1,5.71-.8,8.07,1.49.69.66,1.41,1.28,2.12,1.93l.19-.12c-.49-.75-.94-1.54-1.48-2.26a12.17,12.17,0,0,0-3.19-3.4c-2.11-1.31-6.55-1-8.51.53a2.8,2.8,0,0,0-.8,3C33,47.63,34.17,47.25,35.36,46.85Z"/><path class="cls-3" d="M43,54.55c-.25-.34-.45-.7-.67-1-.89-1.41-1.67-2.9-2.68-4.21s-2.28-1.45-3.51-.16c-1.39,1.46-2.64,3-3.92,4.61a.84.84,0,0,0-.12.67,20.6,20.6,0,0,0,1,2.44,7.84,7.84,0,0,0,4.19,4.09,5.43,5.43,0,0,0,5.8-.86,9.39,9.39,0,0,0,1.24-1.54L44,58.4a2.17,2.17,0,0,0-.23.3,5.07,5.07,0,0,1-7.69,1.18A11.9,11.9,0,0,1,32.94,54c0-.12.19-.4.34-.44a9.91,9.91,0,0,1,4.39-.42c1,.18,2.06.39,3.09.58l.15-.14a20.4,20.4,0,0,0-1.5-2.17,2,2,0,0,0-2.5-.47,8.43,8.43,0,0,0-.92.53l-2.71,1.68A17.34,17.34,0,0,1,35,50.86a16.94,16.94,0,0,1,1.59-1.58c1-.84,1.67-.85,2.48.1a25.55,25.55,0,0,1,2,2.84c.5.77.87,1.62,1.37,2.39A2.16,2.16,0,0,0,45,55.7c0-.07.06-.13.08-.19a1.23,1.23,0,0,0-.44-.13A1.88,1.88,0,0,1,43,54.55Z"/><path class="cls-3" d="M45.29,41.29l-.82-1.66C44.73,40.19,45,40.74,45.29,41.29Z"/><path d="M15.12,26.52C12.33,27.63,9.67,29.1,6.55,29a4.61,4.61,0,0,0,.88,4.12C10.63,31.67,12.74,28.93,15.12,26.52Z"/><path class="cls-4" d="M46.52,33.12A10,10,0,0,1,44.81,32c-1.44-1.31-2.84-2.64-4.21-4A12.83,12.83,0,0,0,36.68,25c.55.58,1.13,1.11,1.61,1.72a26.74,26.74,0,0,1,3.58,6.71c.85,2.06,1.65,4.14,2.6,6.16l.82,1.66h0c.3.58.62,1.16,1,1.72A14.07,14.07,0,0,0,48.63,46c.94.88,1.84.52,2.1-.73A12.48,12.48,0,0,0,51,42.49c0-3-1-5.81-1.61-8.75A4.26,4.26,0,0,1,46.52,33.12Z"/><path class="cls-4" d="M14,28.39c-2.27,2.29-4.36,4.88-7.91,5.5,0,1.1,0,2.23,0,3.35a16.55,16.55,0,0,0,.69,5A3,3,0,0,0,8.14,44.1a20.3,20.3,0,0,0,1.13-1.94c1.48-3.29,2.91-6.6,4.39-9.89,1.18-2.65,2.37-5.3,4.72-7.2A13.41,13.41,0,0,0,14,28.39Z"/><polygon points="46.5 18.65 46.5 18.65 46.5 18.65 46.5 18.65"/><path d="M17.82,26.21A9.05,9.05,0,0,1,19.4,25a8.8,8.8,0,0,1,4.82-1.06c.31,0,.63,0,.94,0a1.24,1.24,0,0,0,.4-.16c-.1-.08-.22-.23-.32-.26h0c-.12.46-3.56.19-3.56.19h-.06L21,23.8l-.39.06A8.32,8.32,0,0,0,17.82,26.21Z"/><path d="M19.14,10.46a17.26,17.26,0,0,0-5.74,3.18,19.66,19.66,0,0,1,3.7-2.29C17.77,11,18.45,10.73,19.14,10.46Z"/><path d="M25.19,23.54c-1.21.05-2.42.05-3.62.18h.06S25.07,24,25.19,23.54Z"/><path d="M19.86,10.18l0,0,.14,0Z"/><path d="M25.19,23.54h0Z"/><path d="M29.55,23.61l1-.13a4.93,4.93,0,0,0-.55,0C29.71,23.53,29.59,23.54,29.55,23.61Z"/><path d="M51.39,41.48a27.85,27.85,0,0,0-.47-3.28c-.29-1.47-.68-2.91-1-4.37a.86.86,0,0,1,.18-.68,1.77,1.77,0,0,0,.41-2c-.29-.85-.65-1.68-1-2.53a.64.64,0,0,1,.1-.46c.93-1.41.73-4-1.15-4.9a.75.75,0,0,1-.33-.33c-.27-.71-.5-1.44-.75-2.16a15.29,15.29,0,0,0-.92-2.11h0a17,17,0,0,0-2.83-3.85A19.51,19.51,0,0,0,36.15,10a22.1,22.1,0,0,0-8.32-1.63A18.75,18.75,0,0,0,22.16,9,45.48,45.48,0,0,0,17,10.81a21.78,21.78,0,0,0-4.22,2.8,17.58,17.58,0,0,0-5.85,9.17.92.92,0,0,1-.43.56c-1.67.72-2,3.16-1.27,4.42a1.25,1.25,0,0,1,0,1.44,5.46,5.46,0,0,0-.56,1.44A2.5,2.5,0,0,0,5,33.27a.79.79,0,0,1,.07.6c-.23,1.13-.45,2.28-.75,3.4a21.3,21.3,0,0,0-.67,7.49,2.66,2.66,0,0,0,.93,1.9,1,1,0,0,1,.31.64c.07.94,0,1.88.14,2.81.19,1.78.42,3.55.67,5.32A6.09,6.09,0,0,0,7,58.25a3.27,3.27,0,0,1,.68,1c.2.83.24,1.69.42,2.52.36,1.62.75,3.24,1.18,4.84.23.85.67,1.66.86,2.52a16.4,16.4,0,0,0,1.91,5,7.59,7.59,0,0,0,3.36,3.13,4.4,4.4,0,0,1,1.7,1.26,11,11,0,0,0,2.49,2.22,11.81,11.81,0,0,0,5.76,1.79c3.19.25,6.38.17,9.31-1.37a17.88,17.88,0,0,0,2.65-1.87c.78-.63,1.2-1.74,2.41-1.79,0,0,.1-.07.15-.1a8.85,8.85,0,0,0,4.1-4.79c.45-1.22.76-2.49,1.13-3.74.11-.38.21-.77.34-1.14a16.28,16.28,0,0,0,.67-1.84c.45-2.11.85-4.24,1.24-6.36a1.55,1.55,0,0,1,.51-.93,3.42,3.42,0,0,0,1-1.36,32.77,32.77,0,0,0,1-4.59c.23-1.73.24-3.49.37-5.24a1.46,1.46,0,0,1,.29-.78,3.28,3.28,0,0,0,.86-2.15C51.43,43.48,51.46,42.47,51.39,41.48ZM50.05,32a1.27,1.27,0,0,1-1.5,1.23,4.28,4.28,0,0,1-1.76-.56,30.78,30.78,0,0,1-3.29-2.48c-1.29-1.15-2.49-2.4-3.73-3.61l.14-.11c2.92,1.11,5.68,2.86,9.15,2.38A5.66,5.66,0,0,1,50.05,32ZM6.55,29c3.12.11,5.78-1.36,8.57-2.47-2.38,2.41-4.49,5.15-7.69,6.59A4.61,4.61,0,0,1,6.55,29ZM8.14,44.1a3,3,0,0,1-1.32-1.86,16.55,16.55,0,0,1-.69-5c0-1.12,0-2.25,0-3.35,3.55-.62,5.64-3.21,7.91-5.5a13.41,13.41,0,0,1,4.34-3.32c-2.35,1.9-3.54,4.55-4.72,7.2-1.48,3.29-2.91,6.6-4.39,9.89A20.3,20.3,0,0,1,8.14,44.1Zm3,14.36c-.38-.8-.62-1.66-1-2.61,1.77.06,2.42-1.13,3.08-2.31.33-.58.6-1.2,1-1.76a21,21,0,0,1,1.7-2.38c.78-.88,1.41-1,2.25-.34A14.61,14.61,0,0,1,21.63,53c-1-.64-2.06-1.29-3.11-1.9a2.24,2.24,0,0,0-3.4.73c-.39.53-.68,1.13-1.11,1.86l2.92-.59a9.83,9.83,0,0,1,4.57.31.66.66,0,0,1,.36.5,9.57,9.57,0,0,1-2.88,6A5.11,5.11,0,0,1,11.14,58.46ZM37.8,78a10.24,10.24,0,0,1-6.9,3.88c-1.13.17-2.28.22-3.43.32A17.14,17.14,0,0,1,21.05,81a9.28,9.28,0,0,1-4.15-3.49,4,4,0,0,1,2.27-6,11.57,11.57,0,0,1,2.28-.29,1,1,0,0,1,.61.23,8,8,0,0,0,5.69,1.85,8,8,0,0,0,5.31-1.89c.32-.27,1-.19,1.49-.16a4.19,4.19,0,0,1,4.14,3.34A4.1,4.1,0,0,1,37.8,78ZM39,77.08A10.43,10.43,0,0,0,39.18,75a4.38,4.38,0,0,0-4-4.09,12.37,12.37,0,0,0-3.84.14,18.24,18.24,0,0,1-7.92-.08,7.3,7.3,0,0,0-6.06,1c.79-2.81,2.32-4,5.3-4.35l1-.11a2.82,2.82,0,0,1,1.78.37,4,4,0,0,0,4.33,0,10.09,10.09,0,0,1,4.68-1.15c.12,0,.31.23.4.39a10.83,10.83,0,0,0,2.6,3.16,4.88,4.88,0,0,0,6.83-.12C43.79,72.94,41.35,76.74,39,77.08Zm9.93-21.52a5.32,5.32,0,0,1-1.39,2.71c.06-.52.12-.86.13-1.2a1.28,1.28,0,0,0-.18-.44c-.1.12-.25.24-.28.38-.35,2.16-.62,4.34-1,6.48A18.94,18.94,0,0,1,44,69.41c-.94,1.64-2.62,1.91-4.36,1.49a4.17,4.17,0,0,1-3.16-3.08c-.34-1.16-.61-2.34-.91-3.51a3.13,3.13,0,0,0-2.11-2.26l-.15.12c.11.14.19.35.33.42a2.78,2.78,0,0,1,1.54,1.94,1.21,1.21,0,0,1-.94,1.65c-.65.14-1.34.08-2,.25a13.75,13.75,0,0,0-2.74,1,4.1,4.1,0,0,1-4.12,0,8,8,0,0,0-3.75-1.07,4.12,4.12,0,0,1-.86-.1,1.21,1.21,0,0,1-1-1.67,2.83,2.83,0,0,1,1.59-2c.11-.06.16-.23.25-.34-.16,0-.34-.08-.47,0a3,3,0,0,0-1.75,2.08c-.29,1.15-.56,2.31-.89,3.45a4.3,4.3,0,0,1-2.22,2.81.75.75,0,0,1-.69-.06A6.65,6.65,0,0,1,14,65a5.21,5.21,0,0,1,3.33-3.85,7.79,7.79,0,0,0,3.87-3.23A38.28,38.28,0,0,0,23,54.49a.73.73,0,0,0,0-.63c-1.34-1.62-2.64-3.29-4.1-4.79-1.23-1.25-2.38-1.15-3.46.25A43.36,43.36,0,0,0,13,53.1c-.27.42-.48.88-.78,1.27a3,3,0,0,1-.91.84c-.84.44-1.27.23-1.34-.7-.1-1.43-.12-2.87-.15-4.3a.72.72,0,0,1,.22-.55C11,48.82,12,48,13,47.2a5.81,5.81,0,0,1,5-.72c1.73.44,3.44,1,5.19,1.51a2.76,2.76,0,0,0-1.49-3.37,10.6,10.6,0,0,0-6-.89,5.49,5.49,0,0,0-3.16,1.78c-.86.94-1.59,2-2.38,3a2.19,2.19,0,0,1-.2.23c-.23-2.19-.59-4.31,0-6.4a30.24,30.24,0,0,1,1.43-3.45c1.39-3.18,2.73-6.39,4.22-9.54l.09-.19a10.34,10.34,0,0,1,2.1-2.93,8.32,8.32,0,0,1,2.74-2.35,24.77,24.77,0,0,0-5.48,2c-2,.88-4,1.59-6.05,2.37a3.36,3.36,0,0,1-.61.14c-1.34.16-1.36.4-1.67-1.17a9.32,9.32,0,0,1-.09-1.53c1,0,2,0,3,0,.18,0,.35-.22.52-.34a2.32,2.32,0,0,0-.57-.12c-.49,0-1,.09-1.54.15a32.7,32.7,0,0,1,1.2-5.65,11.92,11.92,0,0,1,1.06-2.52,12.3,12.3,0,0,1,3.09-3.56,17.26,17.26,0,0,1,5.74-3.18l.68-.26,0,0,.1,0h0a21.25,21.25,0,0,1,9.11-1.2c5.43.51,10.35,2.3,14.23,6.32a18.35,18.35,0,0,1,4.72,9.31c.08.37,0,.6-.36.63-.66.05-1.32.05-2,.05a5.52,5.52,0,0,0-.55-.07c-.11,0-.21.13-.31.2.07.09.13.24.21.25a5.39,5.39,0,0,0,2.9,0c.56-.21.84-.51.59-1.13a4.81,4.81,0,0,1-.13-.62,2.92,2.92,0,0,1,.91,3.8,1.54,1.54,0,0,1-.47.51,1.62,1.62,0,0,1-1.06.28,14.06,14.06,0,0,1-3.11-.62c-2.14-.82-4.23-1.78-6.33-2.7a17.77,17.77,0,0,0-7.84-1.68h0l-1,.13a.45.45,0,0,0,0,.27c1.27.09,2.56.06,3.8.27,2.55.44,4.23,2.13,5.54,4.24A59.92,59.92,0,0,1,42.4,36C43.52,38.52,44.74,41,46,43.51a11.4,11.4,0,0,0,1.85,2.43,4.58,4.58,0,0,0,1.49.86c.28.13.44.22.43.56A37.12,37.12,0,0,1,48.88,55.56Zm1.85-10.34c-.26,1.25-1.16,1.61-2.1.73A14.07,14.07,0,0,1,46.25,43c-.34-.56-.66-1.14-1-1.72s-.56-1.1-.82-1.66c-.95-2-1.75-4.1-2.6-6.16a26.74,26.74,0,0,0-3.58-6.71c-.48-.61-1.06-1.14-1.61-1.72A12.83,12.83,0,0,1,40.6,28c1.37,1.37,2.77,2.7,4.21,4a10,10,0,0,0,1.71,1.14,4.26,4.26,0,0,0,2.82.62c.58,2.94,1.59,5.76,1.61,8.75A12.48,12.48,0,0,1,50.73,45.22Z"/><path class="cls-4" d="M19.14,10.46l.68-.26Z"/><path class="cls-4" d="M20,10.15h0Z"/><path class="cls-4" d="M21.57,23.72a1.76,1.76,0,0,0-1,.14L21,23.8Z"/><path class="cls-4" d="M49.34,27.69a5.26,5.26,0,0,1-.47.51A1.54,1.54,0,0,0,49.34,27.69Z"/><path class="cls-4" d="M13.4,13.64a12.3,12.3,0,0,0-3.09,3.56A16.31,16.31,0,0,1,13.4,13.64Z"/><path class="cls-4" d="M38.37,25.16c2.1.92,4.19,1.88,6.33,2.7a14.06,14.06,0,0,0,3.11.62,1.62,1.62,0,0,0,1.06-.28,5.26,5.26,0,0,0,.47-.51,2.92,2.92,0,0,0-.91-3.8,4.81,4.81,0,0,0,.13.62c.25.62,0,.92-.59,1.13a5.39,5.39,0,0,1-2.9,0c-.08,0-.14-.16-.21-.25.1-.07.2-.2.31-.2a5.52,5.52,0,0,1,.55.07c.66,0,1.32,0,2-.05.36,0,.44-.26.36-.63a18.35,18.35,0,0,0-4.72-9.31c-3.88-4-8.8-5.81-14.23-6.32A21.25,21.25,0,0,0,20,10.14h0l-.14,0-.68.26c-.69.27-1.37.56-2,.89a19.66,19.66,0,0,0-3.7,2.29,16.31,16.31,0,0,0-3.09,3.56,11.92,11.92,0,0,0-1.06,2.52,32.7,32.7,0,0,0-1.2,5.65c.56-.06,1-.13,1.54-.15a2.32,2.32,0,0,1,.57.12c-.17.12-.34.34-.52.34-1,0-1.93,0-3,0a9.32,9.32,0,0,0,.09,1.53c.31,1.57.33,1.33,1.67,1.17A3.36,3.36,0,0,0,9,28.26c2-.78,4.07-1.49,6.05-2.37a24.77,24.77,0,0,1,5.48-2,1.76,1.76,0,0,1,1-.14c1.2-.13,2.41-.13,3.62-.18h0l2.26.34,2.05-.28c0-.07.16-.08.43-.1a4.93,4.93,0,0,1,.55,0h0A17.77,17.77,0,0,1,38.37,25.16Z"/><path class="cls-4" d="M15.72,29.14a29.07,29.07,0,0,1,2.1-2.93A10.34,10.34,0,0,0,15.72,29.14Z"/><path class="cls-4" d="M39.91,26.49l-.14.11c1.24,1.21,2.44,2.46,3.73,3.61a30.78,30.78,0,0,0,3.29,2.48,4.28,4.28,0,0,0,1.76.56A1.27,1.27,0,0,0,50.05,32a5.66,5.66,0,0,0-1-3.15C45.59,29.35,42.83,27.6,39.91,26.49Z"/><path class="cls-1" d="M15.12,26.52c-2.38,2.41-4.49,5.15-7.69,6.59A4.61,4.61,0,0,1,6.55,29C9.67,29.1,12.33,27.63,15.12,26.52Z"/><path class="cls-5" d="M45.55,50.27c-.71-.65-1.43-1.27-2.12-1.93-2.36-2.29-5.1-2.5-8.07-1.49-1.19.4-2.4.78-3.6,1.17a2.8,2.8,0,0,1,.8-3c2-1.54,6.4-1.84,8.51-.53a12.17,12.17,0,0,1,3.19,3.4c.54.72,1,1.51,1.48,2.26Z"/><path class="cls-5" d="M45,55.7a2.16,2.16,0,0,1-2.6-1.09c-.5-.77-.87-1.62-1.37-2.39a25.55,25.55,0,0,0-2-2.84c-.81-1-1.52-.94-2.48-.1A16.94,16.94,0,0,0,35,50.86a17.34,17.34,0,0,0-1.7,2.26L36,51.44a8.43,8.43,0,0,1,.92-.53,2,2,0,0,1,2.5.47,20.4,20.4,0,0,1,1.5,2.17l-.15.14c-1-.19-2.06-.4-3.09-.58a9.91,9.91,0,0,0-4.39.42c-.15,0-.37.32-.34.44a11.9,11.9,0,0,0,3.18,5.91,5.07,5.07,0,0,0,7.69-1.18,2.17,2.17,0,0,1,.23-.3l.2.14A9.39,9.39,0,0,1,43,60.08a5.43,5.43,0,0,1-5.8.86A7.84,7.84,0,0,1,33,56.85a20.6,20.6,0,0,1-1-2.44.84.84,0,0,1,.12-.67c1.28-1.56,2.53-3.15,3.92-4.61,1.23-1.29,2.41-1.24,3.51.16s1.79,2.8,2.68,4.21c.22.35.42.71.67,1a1.88,1.88,0,0,0,1.72.83,1.23,1.23,0,0,1,.44.13C45.09,55.57,45.06,55.63,45,55.7Z"/><path class="cls-2" d="M49.35,46.8a4.58,4.58,0,0,1-1.49-.86A11.4,11.4,0,0,1,46,43.51c-1.27-2.47-2.49-5-3.61-7.54a59.92,59.92,0,0,0-3.52-7.58c-1.31-2.11-3-3.8-5.54-4.24-1.24-.21-2.53-.18-3.8-.27a.45.45,0,0,1,0-.27l-2.05.28-2.26-.34c.1,0,.22.18.32.26a1.24,1.24,0,0,1-.4.16c-.31,0-.63,0-.94,0A8.8,8.8,0,0,0,19.4,25a9.05,9.05,0,0,0-1.58,1.21,29.07,29.07,0,0,0-2.1,2.93l-.09.19c-1.49,3.15-2.83,6.36-4.22,9.54A30.24,30.24,0,0,0,10,42.32c-.59,2.09-.23,4.21,0,6.4a2.19,2.19,0,0,0,.2-.23c.79-1,1.52-2,2.38-3a5.49,5.49,0,0,1,3.16-1.78,10.6,10.6,0,0,1,6,.89A2.76,2.76,0,0,1,23.19,48c-1.75-.52-3.46-1.07-5.19-1.51a5.81,5.81,0,0,0-5,.72c-1.06.75-2,1.62-3,2.46a.72.72,0,0,0-.22.55c0,1.43,0,2.87.15,4.3.07.93.5,1.14,1.34.7a3,3,0,0,0,.91-.84c.3-.39.51-.85.78-1.27a43.36,43.36,0,0,1,2.42-3.78c1.08-1.4,2.23-1.5,3.46-.25,1.46,1.5,2.76,3.17,4.1,4.79a.73.73,0,0,1,0,.63,38.28,38.28,0,0,1-1.75,3.44,7.79,7.79,0,0,1-3.87,3.23A5.21,5.21,0,0,0,14,65a6.65,6.65,0,0,0,1.65,5.46.75.75,0,0,0,.69.06,4.3,4.3,0,0,0,2.22-2.81c.33-1.14.6-2.3.89-3.45a3,3,0,0,1,1.75-2.08c.13,0,.31,0,.47,0-.09.11-.14.28-.25.34a2.83,2.83,0,0,0-1.59,2,1.21,1.21,0,0,0,1,1.67,4.12,4.12,0,0,0,.86.1,8,8,0,0,1,3.75,1.07,4.1,4.1,0,0,0,4.12,0,13.75,13.75,0,0,1,2.74-1c.64-.17,1.33-.11,2-.25a1.21,1.21,0,0,0,.94-1.65,2.78,2.78,0,0,0-1.54-1.94c-.14-.07-.22-.28-.33-.42l.15-.12a3.13,3.13,0,0,1,2.11,2.26c.3,1.17.57,2.35.91,3.51a4.17,4.17,0,0,0,3.16,3.08c1.74.42,3.42.15,4.36-1.49a18.94,18.94,0,0,0,2.09-5.92c.42-2.14.69-4.32,1-6.48,0-.14.18-.26.28-.38a1.28,1.28,0,0,1,.18.44c0,.34-.07.68-.13,1.2a5.32,5.32,0,0,0,1.39-2.71,37.12,37.12,0,0,0,.9-8.2C49.79,47,49.63,46.93,49.35,46.8ZM32.56,45c2-1.54,6.4-1.84,8.51-.53a12.17,12.17,0,0,1,3.19,3.4c.54.72,1,1.51,1.48,2.26l-.19.12c-.71-.65-1.43-1.27-2.12-1.93-2.36-2.29-5.1-2.5-8.07-1.49-1.19.4-2.4.78-3.6,1.17A2.8,2.8,0,0,1,32.56,45Z"/><path d="M45,55.26c-1.24.27-2.33-1.56-2.57-2a29.48,29.48,0,0,0-2.5-4.06l0-.06L39.74,49a1.84,1.84,0,0,0-2.51-.52,23.71,23.71,0,0,0-3.64,3.65l-.91,1.11,0,0h0l-.27.34a.73.73,0,0,0,0,.63c.44.9.85,1.83,1.33,2.72,3.31,5.45,6.84,4.18,7.52,3.86a4.85,4.85,0,0,0,1.55-1.18l0-.17a3.22,3.22,0,0,1-1.48,1.16h0c-3.89,1.76-6.46-2.56-6.46-2.56h0a13.89,13.89,0,0,1-1.48-3.38c-.42-1.2.39-1.49.39-1.49h0l.05,0a9.73,9.73,0,0,1,4.58-.3l2.91.58c-.24-.38-.46-.7-.65-1a4.14,4.14,0,0,0-2.14-1.53A3,3,0,0,0,37.2,51c-.34.12-.7.27-1.05.43h0a24.84,24.84,0,0,0-2.36,1.26l-.08,0a14.64,14.64,0,0,1,3.48-4c.83-.62,1.46-.54,2.24.34a20.25,20.25,0,0,1,1.7,2.39c.36.55.63,1.17,1,1.75.6,1.07,1.2,2.16,2.64,2.3C44.94,55.53,45.11,55.44,45,55.26Z"/></svg>