<svg id="Layer_1" data-name="Layer 1" xmlns="http://www.w3.org/2000/svg" viewBox="0 0 39 39"><defs><style>.cls-1{fill:#e84a1b;}.cls-2{fill:none;}.cls-3,.cls-6{fill:#fff;}.cls-3,.cls-4,.cls-5,.cls-7{fill-rule:evenodd;}.cls-4{fill:#f16136;}.cls-5{fill:#fde1d1;}.cls-8{fill:#0e1e31;}.cls-9{fill:#132c4f;}</style></defs><title>logo</title><rect class="cls-1" width="39" height="39" rx="7"/><rect class="cls-2" x="6.24" y="7.02" width="31.2" height="28.08"/><path class="cls-3" d="M27.51,18.2V28.8a.73.73,0,0,1-.75.76H20.23a.73.73,0,0,1-.73-.7,2,2,0,0,1,0-.25V7.66A.78.78,0,0,1,20,6.85a.76.76,0,0,1,.26-.06h6.46a.81.81,0,0,1,.83.84c0,3.52,0,7.05,0,10.57Zm-3.57-2.9-.73-.3s-.07-.11-.08-.17a3.68,3.68,0,0,1,0-.47c0-.15-.05-.2-.2-.2H21.4a15.73,15.73,0,0,1,0,3.29h1.45a.25.25,0,0,0,0-.07c.07-.57.15-1.14.2-1.71,0-.15.06-.21.21-.16l.48.17c.12,0,.15.11.15.23,0,.45-.07.91-.11,1.36,0,.12,0,.19.14.19h1.27a.18.18,0,0,0,.15-.13,3.25,3.25,0,0,0,.07-.45,16.46,16.46,0,0,0,.17-2.53c0-.15-.05-.2-.2-.2H24.31c-.46,0-.36,0-.37.38Zm0,6.4c0,.25.08.44.1.64s.05.15.17.15h1.2c.12,0,.16,0,.15-.16,0-.27,0-.55,0-.82a7.38,7.38,0,0,0-.51-2.12.31.31,0,0,0-.33-.22H22.8a1.31,1.31,0,0,1,.12.15c.25.36.25.39-.05.72a3.13,3.13,0,0,1-1.19.8.25.25,0,0,0-.15.15,3.62,3.62,0,0,0-.09,1.31c0,.13.07.17.2.17h1.14a.6.6,0,0,0,.45-.15l.57-.5Zm-.71-9.23c0-.27,0-.51,0-.75s.05-.23.22-.25A7.43,7.43,0,0,0,25.29,11c.09,0,.18-.07.17-.2-.06-.51-.12-1-.19-1.53,0,0-.09-.11-.14-.11H21.84c-.15,0-.24,0-.24.21,0,.41,0,.82,0,1.23a6.41,6.41,0,0,0,.24,1.74c0,.06.08.14.12.14Zm-.73,13.17h0a.27.27,0,0,1,.08.07,9,9,0,0,0,1.9,1.57,1,1,0,0,0,.69.22c.31,0,.31.06.33-.33,0-.06,0-.12,0-.19,0-.88,0-1.76,0-2.65,0-.05,0-.13-.08-.13h-.67A5.93,5.93,0,0,1,25,26l-.13-.07a6.17,6.17,0,0,1-1.51-1.59.25.25,0,0,0-.23-.13H21.57l-.13,0c.08.13.15.24.21.36a1.24,1.24,0,0,1,.2.42c0,.55,0,1.1,0,1.65,0,.28,0,.56-.07.86h.56c.11,0,.16,0,.16-.14s0-.36,0-.53Z"/><path class="cls-4" d="M23.94,15.3v-.76c0-.41-.09-.37.37-.38h1.13c.15,0,.19.05.2.2a16.46,16.46,0,0,1-.17,2.53,3.25,3.25,0,0,1-.07.45.18.18,0,0,1-.15.13H24c-.14,0-.15-.07-.14-.19,0-.45.07-.91.11-1.36,0-.12,0-.2-.15-.23l-.48-.17c-.15,0-.19,0-.21.16-.05.57-.13,1.14-.2,1.71a.25.25,0,0,1,0,.07H21.44a15.73,15.73,0,0,0,0-3.29h1.53c.15,0,.21.05.2.2a3.68,3.68,0,0,0,0,.47c0,.06,0,.15.08.17Z"/><path class="cls-4" d="M24,21.7l-.18.14-.57.5a.6.6,0,0,1-.45.15H21.64c-.13,0-.19,0-.2-.17A3.62,3.62,0,0,1,21.53,21a.25.25,0,0,1,.15-.15,3.13,3.13,0,0,0,1.19-.8c.3-.33.3-.36.05-.72a1.31,1.31,0,0,0-.12-.15h1.92a.31.31,0,0,1,.33.22,7.38,7.38,0,0,1,.51,2.12c0,.27,0,.55,0,.82,0,.11,0,.16-.15.16h-1.2c-.12,0-.16,0-.17-.15S24,22,24,21.7Zm-1,.19a2.5,2.5,0,0,0,.85-.62.26.26,0,0,0,0-.15l-.39-.94s0-.05-.07-.08A5.9,5.9,0,0,0,23,21.89Z"/><path class="cls-4" d="M23.27,12.47H21.93s-.11-.08-.12-.14a6.41,6.41,0,0,1-.24-1.74c0-.41,0-.82,0-1.23,0-.19.09-.21.24-.21h3.29c.05,0,.14.07.14.11.07.51.13,1,.19,1.53,0,.13-.08.16-.17.2a7.43,7.43,0,0,1-1.84.47c-.17,0-.23.08-.22.25S23.26,12.2,23.27,12.47Zm.13-3a8.47,8.47,0,0,0-.14,1.59c.24-.07.46-.13.67-.21a.19.19,0,0,0,.07-.16A2.54,2.54,0,0,0,23.4,9.52Z"/><path class="cls-4" d="M22.54,25.64v1.2c0,.17,0,.35,0,.53s-.05.14-.16.14H21.8c0-.3.07-.58.07-.86,0-.55,0-1.1,0-1.65a1.24,1.24,0,0,0-.2-.42c-.06-.12-.13-.23-.21-.36l.13,0h1.58a.25.25,0,0,1,.23.13,6.17,6.17,0,0,0,1.51,1.59L25,26a5.93,5.93,0,0,0-.19-1.78h.67s.08.08.08.13c0,.89,0,1.77,0,2.65,0,.07,0,.13,0,.19,0,.39,0,.29-.33.33a1,1,0,0,1-.69-.22,9,9,0,0,1-1.9-1.57.27.27,0,0,0-.08-.07Z"/><path class="cls-3" d="M23,21.89a5.9,5.9,0,0,1,.39-1.79s.06,0,.07.08l.39.94a.26.26,0,0,1,0,.15A2.5,2.5,0,0,1,23,21.89Z"/><path class="cls-3" d="M23.4,9.52a2.54,2.54,0,0,1,.6,1.22.19.19,0,0,1-.07.16c-.21.08-.43.14-.67.21A8.47,8.47,0,0,1,23.4,9.52Z"/><path class="cls-5" d="M10.81,29A5,5,0,0,1,9,28.69a2.63,2.63,0,0,1-1.2-1A1.15,1.15,0,0,1,8.41,26a3.61,3.61,0,0,1,.66-.08.31.31,0,0,1,.18.07,2.32,2.32,0,0,0,1.64.53,2.36,2.36,0,0,0,1.53-.55.74.74,0,0,1,.43,0,1.21,1.21,0,0,1,1.19,1,1.16,1.16,0,0,1-.26,1,2.93,2.93,0,0,1-2,1.12C11.47,29,11.14,29,10.81,29Z"/><path class="cls-3" d="M17.11,15.07a12.93,12.93,0,0,1,.46,2.53,3.38,3.38,0,0,1-.06.78c-.07.36-.33.47-.6.21a4,4,0,0,1-.69-.84A20.06,20.06,0,0,1,15,15a7.85,7.85,0,0,0-1-1.94c-.14-.17-.31-.33-.47-.49a3.59,3.59,0,0,1,1.13.84c.39.39.8.78,1.21,1.15a2.76,2.76,0,0,0,.5.34A1.18,1.18,0,0,0,17.11,15.07Z"/><path class="cls-5" d="M7.88,26.08a1.52,1.52,0,0,1,1.53-1.25l.28,0a.79.79,0,0,1,.52.1,1.14,1.14,0,0,0,1.24,0,2.81,2.81,0,0,1,1.35-.33s.09.06.12.11a3,3,0,0,0,.75.91,1.41,1.41,0,0,0,2,0c-.13.82-.83,1.92-1.53,2a2.68,2.68,0,0,0,.07-.62A1.26,1.26,0,0,0,13,25.77a3.73,3.73,0,0,0-1.11.05,5.36,5.36,0,0,1-2.29,0A2.09,2.09,0,0,0,7.88,26.08Z"/><path class="cls-5" d="M9.12,20.63l-.9-.55a.65.65,0,0,0-1,.21,6.07,6.07,0,0,0-.31.54l.84-.17a2.77,2.77,0,0,1,1.31.09.19.19,0,0,1,.11.14,2.75,2.75,0,0,1-.83,1.73A1.47,1.47,0,0,1,6.1,22.2c-.11-.23-.18-.48-.28-.75.51,0,.7-.33.89-.67.09-.17.17-.34.27-.5a7.09,7.09,0,0,1,.49-.69c.23-.26.41-.28.65-.1A4.21,4.21,0,0,1,9.12,20.63Z"/><path class="cls-3" d="M8.18,12.57a5.45,5.45,0,0,0-1.36,2.08c-.42.95-.83,1.9-1.26,2.85-.09.19-.22.37-.33.56a.89.89,0,0,1-.38-.54,5,5,0,0,1-.2-1.44v-1a4.33,4.33,0,0,0,2.28-1.59A4,4,0,0,1,8.18,12.57Z"/><path class="cls-2" d="M8.36,22.62a2.75,2.75,0,0,0,.83-1.73.19.19,0,0,0-.11-.14,2.77,2.77,0,0,0-1.31-.09l-.84.17a6.07,6.07,0,0,1,.31-.54.65.65,0,0,1,1-.21l.9.55a4.21,4.21,0,0,0-1-1.14c-.24-.18-.42-.16-.65.1a7.09,7.09,0,0,0-.49.69c-.1.16-.18.33-.27.5-.19.34-.38.68-.89.67.1.27.17.52.28.75A1.47,1.47,0,0,0,8.36,22.62Z"/><path class="cls-2" d="M12.85,25.88a.74.74,0,0,0-.43,0,2.36,2.36,0,0,1-1.53.55,2.32,2.32,0,0,1-1.64-.53.31.31,0,0,0-.18-.07,3.61,3.61,0,0,0-.66.08,1.15,1.15,0,0,0-.65,1.73,2.63,2.63,0,0,0,1.2,1,5,5,0,0,0,1.85.34c.33,0,.66,0,1-.09a2.93,2.93,0,0,0,2-1.12,1.16,1.16,0,0,0,.26-1A1.21,1.21,0,0,0,12.85,25.88Z"/><path class="cls-2" d="M13.67,25.58a3,3,0,0,1-.75-.91c0-.05-.08-.11-.12-.11a2.81,2.81,0,0,0-1.35.33,1.14,1.14,0,0,1-1.24,0,.79.79,0,0,0-.52-.1l-.28,0a1.52,1.52,0,0,0-1.53,1.25,2.09,2.09,0,0,1,1.74-.29,5.36,5.36,0,0,0,2.29,0A3.73,3.73,0,0,1,13,25.77,1.26,1.26,0,0,1,14.18,27a2.68,2.68,0,0,1-.07.62c.7-.1,1.4-1.2,1.53-2A1.41,1.41,0,0,1,13.67,25.58Z"/><path class="cls-2" d="M13.08,18.85a2.12,2.12,0,0,1,2.33.43l.61.56.05,0c-.14-.22-.27-.45-.42-.66a3.73,3.73,0,0,0-.92-1,2.62,2.62,0,0,0-2.46.15.83.83,0,0,0-.23.87Z"/><path class="cls-2" d="M15.27,21.07c-.07-.09-.13-.2-.2-.3a12.43,12.43,0,0,0-.77-1.21.58.58,0,0,0-1,0c-.4.42-.76.88-1.13,1.33a.21.21,0,0,0,0,.19,6.09,6.09,0,0,0,.27.71,2.27,2.27,0,0,0,1.21,1.17,1.56,1.56,0,0,0,1.67-.24,2.63,2.63,0,0,0,.36-.45l-.06,0a.47.47,0,0,0-.06.09,1.47,1.47,0,0,1-2.22.34,3.41,3.41,0,0,1-.92-1.71s.06-.11.1-.12a2.83,2.83,0,0,1,1.26-.12l.9.17,0,0a5.81,5.81,0,0,0-.43-.63.57.57,0,0,0-.72-.14l-.27.16-.78.48A5.26,5.26,0,0,1,13,20c.14-.16.3-.31.46-.46a.43.43,0,0,1,.72,0,9.23,9.23,0,0,1,.57.82c.15.22.25.47.4.69a.62.62,0,0,0,.75.31l0,0a.5.5,0,0,0-.13,0A.53.53,0,0,1,15.27,21.07Z"/><path class="cls-2" d="M15.94,17.25l-.23-.48C15.78,16.93,15.86,17.09,15.94,17.25Z"/><path d="M7.25,13a6.05,6.05,0,0,1-2.47.71A1.32,1.32,0,0,0,5,14.89,7.76,7.76,0,0,0,7.25,13Z"/><path class="cls-6" d="M16.3,14.9a2.76,2.76,0,0,1-.5-.34c-.41-.37-.82-.76-1.21-1.15a3.59,3.59,0,0,0-1.13-.84c.16.16.33.32.47.49A7.85,7.85,0,0,1,15,15c.24.59.47,1.19.75,1.77l.23.48h0l.28.5a4,4,0,0,0,.69.84c.27.26.53.15.6-.21a3.38,3.38,0,0,0,.06-.78,12.93,12.93,0,0,0-.46-2.53A1.18,1.18,0,0,1,16.3,14.9Z"/><path class="cls-6" d="M6.93,13.53a4.33,4.33,0,0,1-2.28,1.59v1a5,5,0,0,0,.2,1.44.89.89,0,0,0,.38.54c.11-.19.24-.37.33-.56.43-.95.84-1.9,1.26-2.85a5.45,5.45,0,0,1,1.36-2.08A4,4,0,0,0,6.93,13.53Z"/><polygon points="16.29 10.72 16.29 10.72 16.29 10.72 16.29 10.72"/><path d="M8,12.9a3.27,3.27,0,0,1,.46-.35,2.49,2.49,0,0,1,1.39-.3h.27l.12,0s-.07-.07-.1-.08h0c0,.14-1,.06-1,.06h0l-.18,0-.12,0A2.51,2.51,0,0,0,8,12.9Z"/><path d="M8.4,8.36a4.85,4.85,0,0,0-1.65.92,5.49,5.49,0,0,1,1.07-.66C8,8.52,8.21,8.44,8.4,8.36Z"/><path d="M10.15,12.13c-.35,0-.7,0-1,0h0S10.11,12.27,10.15,12.13Z"/><path d="M8.61,8.28h0l0,0Z"/><path d="M10.15,12.13h0Z"/><path d="M11.4,12.15l.29,0h-.16C11.45,12.13,11.42,12.13,11.4,12.15Z"/><path d="M17.7,17.3a7.58,7.58,0,0,0-.13-.94c-.09-.42-.2-.84-.29-1.26a.28.28,0,0,1,0-.2.51.51,0,0,0,.12-.58c-.09-.24-.19-.48-.28-.73a.22.22,0,0,1,0-.13,1,1,0,0,0-.33-1.41.24.24,0,0,1-.1-.1l-.21-.62a6.65,6.65,0,0,0-.27-.61h0a4.91,4.91,0,0,0-.82-1.11,5.74,5.74,0,0,0-2.16-1.39,6.53,6.53,0,0,0-2.4-.47A5.61,5.61,0,0,0,9.28,8a13.91,13.91,0,0,0-1.5.51,6.63,6.63,0,0,0-1.22.81,5.09,5.09,0,0,0-1.69,2.65.26.26,0,0,1-.12.15,1,1,0,0,0-.37,1.28.35.35,0,0,1,0,.41,1.65,1.65,0,0,0-.16.42.73.73,0,0,0,.11.76.23.23,0,0,1,0,.17c-.07.33-.13.66-.22,1a6.3,6.3,0,0,0-.19,2.16.75.75,0,0,0,.27.55A.31.31,0,0,1,4.3,19c0,.27,0,.54,0,.81,0,.52.12,1,.19,1.54a1.75,1.75,0,0,0,.36.81,1,1,0,0,1,.2.28c0,.24.06.49.12.73.1.47.21.93.34,1.39.06.25.19.48.25.73a4.48,4.48,0,0,0,.55,1.45,2.2,2.2,0,0,0,1,.9A1.25,1.25,0,0,1,7.8,28a3.67,3.67,0,0,0,.72.64,3.4,3.4,0,0,0,1.66.51,4.88,4.88,0,0,0,2.69-.39,5.81,5.81,0,0,0,.76-.54c.23-.18.35-.5.69-.52,0,0,0,0,0,0a2.51,2.51,0,0,0,1.18-1.38c.13-.35.22-.72.33-1.08l.09-.32a3.5,3.5,0,0,0,.2-.54c.13-.6.24-1.22.36-1.83a.47.47,0,0,1,.14-.27,1,1,0,0,0,.3-.39,11.49,11.49,0,0,0,.3-1.32c.06-.5.06-1,.1-1.51a.46.46,0,0,1,.09-.23.89.89,0,0,0,.24-.62A8.42,8.42,0,0,0,17.7,17.3Zm-.39-2.72a.36.36,0,0,1-.43.35,1.32,1.32,0,0,1-.51-.16,7.31,7.31,0,0,1-.94-.72c-.38-.32-.72-.69-1.08-1l0,0a5.2,5.2,0,0,0,2.64.69A1.63,1.63,0,0,1,17.31,14.58ZM4.78,13.7A6.05,6.05,0,0,0,7.25,13,7.76,7.76,0,0,1,5,14.89,1.32,1.32,0,0,1,4.78,13.7Zm.45,4.36a.89.89,0,0,1-.38-.54,5,5,0,0,1-.2-1.44v-1a4.33,4.33,0,0,0,2.28-1.59,4,4,0,0,1,1.25-1,5.45,5.45,0,0,0-1.36,2.08c-.42.95-.83,1.9-1.26,2.85C5.47,17.69,5.34,17.87,5.23,18.06ZM6.1,22.2c-.11-.23-.18-.48-.28-.75.51,0,.7-.33.89-.67.09-.17.17-.34.27-.5a7.09,7.09,0,0,1,.49-.69c.23-.26.41-.28.65-.1a4.21,4.21,0,0,1,1,1.14l-.9-.55a.65.65,0,0,0-1,.21,6.07,6.07,0,0,0-.31.54l.84-.17a2.77,2.77,0,0,1,1.31.09.19.19,0,0,1,.11.14,2.75,2.75,0,0,1-.83,1.73A1.47,1.47,0,0,1,6.1,22.2Zm7.68,5.62a2.93,2.93,0,0,1-2,1.12c-.32,0-.65.06-1,.09A5,5,0,0,1,9,28.69a2.63,2.63,0,0,1-1.2-1A1.15,1.15,0,0,1,8.41,26a3.61,3.61,0,0,1,.66-.08.31.31,0,0,1,.18.07,2.32,2.32,0,0,0,1.64.53,2.36,2.36,0,0,0,1.53-.55.74.74,0,0,1,.43,0,1.21,1.21,0,0,1,1.19,1A1.16,1.16,0,0,1,13.78,27.82Zm.33-.25a2.68,2.68,0,0,0,.07-.62A1.26,1.26,0,0,0,13,25.77a3.73,3.73,0,0,0-1.11.05,5.36,5.36,0,0,1-2.29,0,2.09,2.09,0,0,0-1.74.29,1.52,1.52,0,0,1,1.53-1.25l.28,0a.79.79,0,0,1,.52.1,1.14,1.14,0,0,0,1.24,0,2.81,2.81,0,0,1,1.35-.33s.09.06.12.11a3,3,0,0,0,.75.91,1.41,1.41,0,0,0,2,0C15.51,26.37,14.81,27.47,14.11,27.57ZM17,21.36a1.58,1.58,0,0,1-.4.78c0-.14,0-.24,0-.34a.35.35,0,0,0-.05-.13s-.07.07-.08.11c-.1.62-.18,1.25-.3,1.87a5.63,5.63,0,0,1-.6,1.71,1.05,1.05,0,0,1-1.26.43,1.23,1.23,0,0,1-.91-.89c-.1-.34-.18-.68-.26-1a.88.88,0,0,0-.61-.65l0,0s.05.1.09.12A.82.82,0,0,1,13,24a.34.34,0,0,1-.27.47c-.19,0-.39,0-.57.08a3.8,3.8,0,0,0-.8.28,1.16,1.16,0,0,1-1.18,0,2.32,2.32,0,0,0-1.08-.31,1,1,0,0,1-.25,0A.35.35,0,0,1,8.6,24a.85.85,0,0,1,.46-.57.26.26,0,0,0,.07-.1s-.1,0-.13,0a.86.86,0,0,0-.51.59c-.08.34-.16.67-.25,1a1.24,1.24,0,0,1-.64.81.2.2,0,0,1-.2,0,1.93,1.93,0,0,1-.48-1.57,1.5,1.5,0,0,1,1-1.11A2.28,2.28,0,0,0,9,22.05c.19-.32.34-.66.5-1a.19.19,0,0,0,0-.18c-.38-.46-.75-.95-1.18-1.38a.57.57,0,0,0-1,.07,12.59,12.59,0,0,0-.7,1.09A3.32,3.32,0,0,1,6.4,21a.74.74,0,0,1-.26.24c-.24.13-.36.07-.38-.2s0-.83,0-1.24a.31.31,0,0,1,.06-.16c.29-.24.57-.49.87-.7a1.61,1.61,0,0,1,1.43-.21c.5.12,1,.28,1.5.43a.79.79,0,0,0-.43-1A3.08,3.08,0,0,0,7.42,18a1.53,1.53,0,0,0-.91.52c-.25.27-.46.57-.69.86l-.06.06a5,5,0,0,1,0-1.84,7.86,7.86,0,0,1,.42-1c.4-.92.78-1.84,1.21-2.75l0-.05A3,3,0,0,1,8,12.9a2.51,2.51,0,0,1,.79-.67,7.16,7.16,0,0,0-1.58.58c-.57.25-1.16.46-1.74.68a.58.58,0,0,1-.18,0c-.38.05-.39.12-.48-.33a2.29,2.29,0,0,1,0-.44h.86s.1-.06.15-.1a.51.51,0,0,0-.17,0,3.59,3.59,0,0,0-.44,0A9.42,9.42,0,0,1,5.55,11a3.91,3.91,0,0,1,.31-.72,3.4,3.4,0,0,1,.89-1A4.85,4.85,0,0,1,8.4,8.36l.2-.07h.05a6.15,6.15,0,0,1,2.63-.35,6.31,6.31,0,0,1,4.1,1.83,5.25,5.25,0,0,1,1.36,2.68c0,.11,0,.17-.1.18l-.57,0c-.06,0-.11,0-.16,0l-.09.06s0,.07.06.08a1.6,1.6,0,0,0,.84,0c.16-.06.24-.15.17-.33a.48.48,0,0,1,0-.18.85.85,0,0,1,.26,1.1.4.4,0,0,1-.14.15.52.52,0,0,1-.3.08,4.49,4.49,0,0,1-.9-.18c-.61-.24-1.22-.52-1.82-.78a5.23,5.23,0,0,0-2.26-.49h0l-.29,0v.08c.37,0,.74,0,1.1.08a2.32,2.32,0,0,1,1.59,1.22,16.12,16.12,0,0,1,1,2.19c.32.73.67,1.46,1,2.17a3,3,0,0,0,.53.7,1.31,1.31,0,0,0,.43.25c.08,0,.13.06.13.16A10.94,10.94,0,0,1,17,21.36Zm.53-3c-.07.36-.33.47-.6.21a4,4,0,0,1-.69-.84l-.28-.5c-.08-.16-.16-.32-.23-.48-.28-.58-.51-1.18-.75-1.77a7.85,7.85,0,0,0-1-1.94c-.14-.17-.31-.33-.47-.49a3.59,3.59,0,0,1,1.13.84c.39.39.8.78,1.21,1.15a2.76,2.76,0,0,0,.5.34,1.18,1.18,0,0,0,.81.17,12.93,12.93,0,0,1,.46,2.53A3.38,3.38,0,0,1,17.51,18.38Z"/><path class="cls-6" d="M8.4,8.36l.2-.07Z"/><path class="cls-6" d="M8.64,8.27h0Z"/><path class="cls-6" d="M9.11,12.18a.56.56,0,0,0-.3.05l.12,0Z"/><path class="cls-6" d="M17.11,13.33l-.14.15A.4.4,0,0,0,17.11,13.33Z"/><path class="cls-6" d="M6.75,9.28a3.4,3.4,0,0,0-.89,1A4.41,4.41,0,0,1,6.75,9.28Z"/><path class="cls-6" d="M14,12.6c.6.26,1.21.54,1.82.78a4.49,4.49,0,0,0,.9.18.52.52,0,0,0,.3-.08l.14-.15a.85.85,0,0,0-.26-1.1.48.48,0,0,0,0,.18c.07.18,0,.27-.17.33a1.6,1.6,0,0,1-.84,0s0-.05-.06-.08l.09-.06c.05,0,.1,0,.16,0l.57,0c.1,0,.12-.07.1-.18a5.25,5.25,0,0,0-1.36-2.68,6.31,6.31,0,0,0-4.1-1.83,6.15,6.15,0,0,0-2.63.35h0l0,0-.2.07c-.19.08-.39.16-.58.26a5.49,5.49,0,0,0-1.07.66,4.41,4.41,0,0,0-.89,1,3.91,3.91,0,0,0-.31.72,9.42,9.42,0,0,0-.34,1.63,3.59,3.59,0,0,1,.44,0,.51.51,0,0,1,.17,0c-.05,0-.1.1-.15.1H4.81a2.29,2.29,0,0,0,0,.44c.09.45.1.38.48.33a.58.58,0,0,0,.18,0c.58-.22,1.17-.43,1.74-.68a7.16,7.16,0,0,1,1.58-.58.56.56,0,0,1,.3-.05c.34,0,.69,0,1,0h0l.65.1.59-.08s0,0,.13,0h.16A5.23,5.23,0,0,1,14,12.6Z"/><path class="cls-6" d="M7.42,13.75A8.44,8.44,0,0,1,8,12.9,3,3,0,0,0,7.42,13.75Z"/><path class="cls-6" d="M14.39,13l0,0c.36.34.7.71,1.08,1a7.31,7.31,0,0,0,.94.72,1.32,1.32,0,0,0,.51.16.36.36,0,0,0,.43-.35,1.63,1.63,0,0,0-.28-.91A5.2,5.2,0,0,1,14.39,13Z"/><path class="cls-3" d="M7.25,13A7.76,7.76,0,0,1,5,14.89a1.32,1.32,0,0,1-.25-1.19A6.05,6.05,0,0,0,7.25,13Z"/><path class="cls-7" d="M16,19.84l-.61-.56a2.12,2.12,0,0,0-2.33-.43l-1,.34a.83.83,0,0,1,.23-.87,2.62,2.62,0,0,1,2.46-.15,3.73,3.73,0,0,1,.92,1c.15.21.28.44.42.66Z"/><path class="cls-7" d="M15.87,21.4a.62.62,0,0,1-.75-.31c-.15-.22-.25-.47-.4-.69a9.23,9.23,0,0,0-.57-.82.43.43,0,0,0-.72,0c-.16.15-.32.3-.46.46a5.26,5.26,0,0,0-.49.65l.78-.48.27-.16a.57.57,0,0,1,.72.14,5.81,5.81,0,0,1,.43.63l0,0-.9-.17a2.83,2.83,0,0,0-1.26.12s-.11.09-.1.12a3.41,3.41,0,0,0,.92,1.71,1.47,1.47,0,0,0,2.22-.34.47.47,0,0,1,.06-.09l.06,0a2.63,2.63,0,0,1-.36.45,1.56,1.56,0,0,1-1.67.24,2.27,2.27,0,0,1-1.21-1.17,6.09,6.09,0,0,1-.27-.71.21.21,0,0,1,0-.19c.37-.45.73-.91,1.13-1.33a.58.58,0,0,1,1,0,12.43,12.43,0,0,1,.77,1.21c.07.1.13.21.2.3a.53.53,0,0,0,.49.24.5.5,0,0,1,.13,0Z"/><path class="cls-5" d="M17.11,18.84a1.31,1.31,0,0,1-.43-.25,3,3,0,0,1-.53-.7c-.37-.71-.72-1.44-1-2.17a16.12,16.12,0,0,0-1-2.19,2.32,2.32,0,0,0-1.59-1.22c-.36-.06-.73-.05-1.1-.08v-.08l-.59.08-.65-.1s.06.06.1.08l-.12,0H9.87a2.49,2.49,0,0,0-1.39.3A3.27,3.27,0,0,0,8,12.9a8.44,8.44,0,0,0-.6.85l0,.05c-.43.91-.81,1.83-1.21,2.75a7.86,7.86,0,0,0-.42,1,5,5,0,0,0,0,1.84l.06-.06c.23-.29.44-.59.69-.86A1.53,1.53,0,0,1,7.42,18a3.08,3.08,0,0,1,1.72.26.79.79,0,0,1,.43,1c-.5-.15-1-.31-1.5-.43A1.61,1.61,0,0,0,6.64,19c-.3.21-.58.46-.87.7a.31.31,0,0,0-.06.16c0,.41,0,.83,0,1.24s.14.33.38.2A.74.74,0,0,0,6.4,21a3.32,3.32,0,0,0,.23-.37,12.59,12.59,0,0,1,.7-1.09.57.57,0,0,1,1-.07c.43.43.8.92,1.18,1.38a.19.19,0,0,1,0,.18c-.16.34-.31.68-.5,1A2.28,2.28,0,0,1,7.88,23a1.5,1.5,0,0,0-1,1.11,1.93,1.93,0,0,0,.48,1.57.2.2,0,0,0,.2,0,1.24,1.24,0,0,0,.64-.81c.09-.33.17-.66.25-1A.86.86,0,0,1,9,23.28s.09,0,.13,0a.26.26,0,0,1-.07.1A.85.85,0,0,0,8.6,24a.35.35,0,0,0,.29.48,1,1,0,0,0,.25,0,2.32,2.32,0,0,1,1.08.31,1.16,1.16,0,0,0,1.18,0,3.8,3.8,0,0,1,.8-.28c.18-.05.38,0,.57-.08A.34.34,0,0,0,13,24a.82.82,0,0,0-.45-.56s-.06-.08-.09-.12l0,0a.88.88,0,0,1,.61.65c.08.33.16.67.26,1a1.23,1.23,0,0,0,.91.89,1.05,1.05,0,0,0,1.26-.43,5.63,5.63,0,0,0,.6-1.71c.12-.62.2-1.25.3-1.87,0,0,.05-.07.08-.11a.35.35,0,0,1,.05.13c0,.1,0,.2,0,.34a1.58,1.58,0,0,0,.4-.78A10.94,10.94,0,0,0,17.24,19C17.24,18.9,17.19,18.88,17.11,18.84Zm-4.84-.52a2.62,2.62,0,0,1,2.46-.15,3.73,3.73,0,0,1,.92,1c.15.21.28.44.42.66l-.05,0-.61-.56a2.12,2.12,0,0,0-2.33-.43l-1,.34A.83.83,0,0,1,12.27,18.32Z"/><path d="M15.85,21.28c-.35.07-.67-.45-.74-.58a7.3,7.3,0,0,0-.72-1.17v0l0,0a.52.52,0,0,0-.72-.15,7,7,0,0,0-1,1.05l-.26.33h0l-.08.1a.23.23,0,0,0,0,.18c.13.26.25.53.39.78,1,1.58,2,1.21,2.16,1.12a1.4,1.4,0,0,0,.45-.34v-.05a.9.9,0,0,1-.43.33h0c-1.12.51-1.86-.73-1.86-.73h0a4,4,0,0,1-.43-1c-.12-.35.12-.43.12-.43h0A3,3,0,0,1,14,20.58l.84.17-.19-.28A1.24,1.24,0,0,0,14,20a1,1,0,0,0-.39,0l-.3.13h0a5.66,5.66,0,0,0-.68.36h0a4,4,0,0,1,1-1.14c.24-.17.42-.15.64.1a4.79,4.79,0,0,1,.49.69,5.05,5.05,0,0,1,.28.51c.17.31.35.62.76.66C15.84,21.36,15.89,21.33,15.85,21.28Z"/><polygon class="cls-8" points="24.07 33.92 24.37 28.23 35.68 28.31 35.32 34.92 24.07 33.92"/><polygon class="cls-9" points="24.77 28.65 35.24 28.73 34.92 34.46 24.51 33.54 24.77 28.65"/><polygon class="cls-6" points="26.52 29.94 26.58 29.39 25.32 29.38 25.17 32.03 26.42 32.15 26.45 31.6 25.59 31.53 25.61 30.92 26.48 31.02 26.5 30.5 25.65 30.45 25.69 29.89 26.52 29.94"/><polygon class="cls-6" points="27.04 30.5 27.22 31.01 27.5 30.51 27.86 30.53 27.38 31.35 27.75 32.25 27.39 32.23 27.19 31.7 26.95 32.17 26.56 32.14 27.03 31.33 26.69 30.48 27.04 30.5"/><path class="cls-6" d="M28.82,30.52c-.19-.07-.39.2-.39.2v-.19h-.33L28,32.87l.4,0,0-.75a.48.48,0,0,0,.35.23c.2,0,.52-.22.57-.89S29,30.58,28.82,30.52Zm-.15,1.38c-.18,0-.3-.24-.3-.52a.41.41,0,0,1,.28-.42.39.39,0,0,1,.29.48C28.9,31.75,28.8,31.88,28.67,31.9Z"/><path class="cls-6" d="M30.32,30.66l0,.5a.32.32,0,0,0-.35.12,3.87,3.87,0,0,0-.11,1.19l-.39-.06.14-1.77.33,0,0,.22S30.11,30.52,30.32,30.66Z"/><path class="cls-6" d="M31.14,30.65c-.34,0-.7.39-.72,1a.84.84,0,0,0,.72.93.91.91,0,0,0,.57-.24L31.49,32a.34.34,0,0,1-.39.15c-.26-.08-.29-.42-.29-.42s.59.07,1,.08C31.85,31,31.49,30.69,31.14,30.65Zm-.3.74s.1-.32.31-.32.27.34.27.34Z"/><path class="cls-6" d="M33.06,31.3a.49.49,0,0,0-.47-.14c-.29.05-.13.33.12.36s.63.32.56.65a.64.64,0,0,1-.77.53.7.7,0,0,1-.54-.29l.16-.38a1,1,0,0,0,.44.23c.24,0,.35-.17.2-.25s-.75-.14-.73-.62a.62.62,0,0,1,.67-.67,1,1,0,0,1,.57.21Z"/><path class="cls-6" d="M34.84,31a1,1,0,0,0-.41-.2.69.69,0,0,0-.84.27.58.58,0,0,0,.25.87c.39.17.41.07.48.22s-.16.31-.47.16a1,1,0,0,1-.3-.2l-.17.42a1.55,1.55,0,0,0,.78.33.74.74,0,0,0,.66-.64.6.6,0,0,0-.55-.61c-.34-.08-.49-.31-.27-.4a.55.55,0,0,1,.62.2A2.5,2.5,0,0,1,34.84,31Z"/></svg>