<svg id="Layer_1" data-name="Layer 1" xmlns="http://www.w3.org/2000/svg" viewBox="0 0 64.09 55.09"><defs><style>.cls-1,.cls-5{fill:#fff;}.cls-1,.cls-2,.cls-3,.cls-6,.cls-7,.cls-8{fill-rule:evenodd;}.cls-2{fill:#f37422;}.cls-3{fill:#fce0d2;}.cls-4{fill:none;}.cls-7{fill:#f16136;}.cls-8{fill:#fde1d1;}.cls-9{fill:#0e1e31;}.cls-10{fill:#132c4f;}</style></defs><title>Phan logoEx-0101-01</title><path class="cls-1" d="M45.71,25V43.67A1.28,1.28,0,0,1,44.48,45H32.92a1.3,1.3,0,0,1-1.28-1.22V6.53a1.38,1.38,0,0,1,.84-1.41,1.23,1.23,0,0,1,.46-.1H44.29a1.41,1.41,0,0,1,1.46,1.36V25.06Zm-6.26-5c-.47-.19-.88-.35-1.28-.54-.08,0-.13-.19-.14-.29a5.75,5.75,0,0,1,0-.83c0-.27-.08-.35-.34-.35H35a27.24,27.24,0,0,1,.07,5.78h2.55a.21.21,0,0,0,0-.11c.12-1,.25-2,.35-3,0-.28.1-.37.37-.28l.84.28a.36.36,0,0,1,.26.42c-.06.79-.11,1.59-.18,2.39,0,.2,0,.33.25.32h2.23a.36.36,0,0,0,.26-.22,5.19,5.19,0,0,0,.12-.79,28.76,28.76,0,0,0,.29-4.45c0-.27-.09-.35-.35-.34h-2c-.82,0-.64-.06-.65.66A13.09,13.09,0,0,1,39.45,20Zm.07,11.24c.07.43.13.77.17,1.12s.09.28.3.27H42.1c.22,0,.28-.08.27-.28a8.28,8.28,0,0,0-.08-1.43,13,13,0,0,0-.9-3.73.53.53,0,0,0-.57-.38H37.45l.2.25c.44.63.45.7-.08,1.26a5.53,5.53,0,0,1-2.09,1.41.46.46,0,0,0-.27.26,6.2,6.2,0,0,0-.15,2.31c0,.23.12.3.35.29h2a1.05,1.05,0,0,0,.78-.27l1-.88ZM38.27,15a9.51,9.51,0,0,0-.06-1.33c-.06-.43.08-.41.38-.44a13,13,0,0,0,3.24-.82c.16-.07.32-.13.29-.35-.11-.9-.2-1.79-.33-2.68a.31.31,0,0,0-.25-.19H35.77c-.26,0-.41,0-.42.36,0,.72-.07,1.44-.06,2.16a12.2,12.2,0,0,0,.42,3.06.3.3,0,0,0,.22.24ZM37,38.11h0a.86.86,0,0,1,.14.13A15.6,15.6,0,0,0,40.49,41a1.81,1.81,0,0,0,1.21.39c.56-.06.55.1.58-.58v-5a.33.33,0,0,0-.14-.24H41a10.67,10.67,0,0,1,.34,3.13l-.24-.13a10.75,10.75,0,0,1-2.64-2.78.44.44,0,0,0-.41-.23H35c.13.23.26.43.37.63a1.87,1.87,0,0,1,.35.74v2.9c0,.49-.08,1-.13,1.52h1c.19,0,.28-.06.28-.25V40.2A13.12,13.12,0,0,0,37,38.11Z"/><path class="cls-2" d="M39.45,20V18.61c0-.72-.17-.65.65-.66h2c.26,0,.34.08.35.34a28.76,28.76,0,0,1-.29,4.45c0,.27-.07.53-.12.79a.38.38,0,0,1-.26.22H39.55c-.25,0-.26-.12-.25-.32.07-.79.12-1.59.18-2.39a.36.36,0,0,0-.26-.42l-.84-.28c-.27-.09-.34,0-.37.28-.1,1-.23,2-.35,3a.21.21,0,0,1,0,.11H35.05A28.13,28.13,0,0,0,35,18h2.69c.26,0,.36.08.34.35a5.75,5.75,0,0,0,0,.83c0,.1.06.26.14.29A7.75,7.75,0,0,1,39.45,20Z"/><path class="cls-2" d="M39.52,31.19l-.32.24-1,.88a1,1,0,0,1-.78.27h-2c-.23,0-.33-.07-.35-.29A6.54,6.54,0,0,1,35.2,30a.46.46,0,0,1,.27-.26,5.53,5.53,0,0,0,2.09-1.41c.53-.57.53-.63.08-1.26a2.43,2.43,0,0,0-.2-.25h3.37a.53.53,0,0,1,.57.38,13,13,0,0,1,.9,3.73,8.34,8.34,0,0,0,.08,1.43c0,.2,0,.28-.27.28H40c-.2,0-.28-.07-.3-.27A11.58,11.58,0,0,0,39.52,31.19Zm-1.76.33a4.23,4.23,0,0,0,1.49-1.09v-.27c-.22-.55-.44-1.1-.68-1.65,0-.05-.07-.08-.13-.15A11,11,0,0,0,37.76,31.52Z"/><path class="cls-2" d="M37,38.11v3c0,.3-.09.25-.28.25h-1c0-.54.13-1,.13-1.52V37a2.19,2.19,0,0,0-.35-.74c-.11-.21-.23-.4-.37-.63l.22-.05h2.78a.44.44,0,0,1,.41.23,10.75,10.75,0,0,0,2.64,2.78l.24.13A10.58,10.58,0,0,0,41,35.56h1.17c.06,0,.14.15.14.24v5c0,.68,0,.52-.58.58A1.81,1.81,0,0,1,40.48,41a15.69,15.69,0,0,1-3.33-2.75A.54.54,0,0,0,37,38.1Z"/><path class="cls-1" d="M37.76,31.52a10.32,10.32,0,0,1,.68-3.15.47.47,0,0,1,.13.15c.23.55.46,1.1.68,1.65v.27A4.42,4.42,0,0,1,37.76,31.52Z"/><path class="cls-1" d="M38.5,9.8a4.41,4.41,0,0,1,1,2.14.33.33,0,0,1-.12.28c-.37.14-.75.25-1.18.38A14.63,14.63,0,0,1,38.5,9.8Z"/><path class="cls-3" d="M16.38,44.07a8.8,8.8,0,0,1-3.25-.61A4.66,4.66,0,0,1,11,41.69a2,2,0,0,1,.61-2.76,1.86,1.86,0,0,1,.54-.24,6.45,6.45,0,0,1,1.16-.14.51.51,0,0,1,.31.11,4,4,0,0,0,2.88.94,4.14,4.14,0,0,0,2.69-1c.16-.14.5-.09.75-.08a2.08,2.08,0,0,1,1.64,3.41,5.18,5.18,0,0,1-3.49,2C17.54,44,17,44,16.38,44.07Z"/><path class="cls-1" d="M27.45,19.55A23.88,23.88,0,0,1,28.26,24a7.14,7.14,0,0,1-.11,1.38c-.13.63-.59.81-1.06.37a7.2,7.2,0,0,1-1.2-1.49,34,34,0,0,1-2.22-4.83A13.9,13.9,0,0,0,21.86,16c-.26-.3-.53-.59-.82-.87a6.47,6.47,0,0,1,2,1.48c.69.69,1.41,1.37,2.13,2a5.07,5.07,0,0,0,.87.58A2.13,2.13,0,0,0,27.45,19.55Z"/><path class="cls-3" d="M11.23,38.88a2.7,2.7,0,0,1,2.68-2.2,1.4,1.4,0,0,0,.5-.06,1.36,1.36,0,0,1,.9.19,2.06,2.06,0,0,0,2.19,0,5.12,5.12,0,0,1,2.37-.58c.06,0,.16.12.2.2A5.66,5.66,0,0,0,21.38,38a2.48,2.48,0,0,0,3.46,0c-.22,1.45-1.46,3.38-2.67,3.55a4.9,4.9,0,0,0,.12-1.08,2.22,2.22,0,0,0-2.05-2.07,6.38,6.38,0,0,0-1.95.07,9.3,9.3,0,0,1-4,0A3.67,3.67,0,0,0,11.23,38.88Z"/><path class="cls-3" d="M13.42,29.31c-.52-.32-1-.65-1.58-1a1.13,1.13,0,0,0-1.59.17,1.37,1.37,0,0,0-.13.2c-.19.27-.34.57-.56.94l1.47-.3a4.93,4.93,0,0,1,2.32.16.31.31,0,0,1,.18.25,4.81,4.81,0,0,1-1.46,3.05,2.58,2.58,0,0,1-3.64-.23A2.68,2.68,0,0,1,8.07,32c-.19-.4-.31-.84-.49-1.32.89,0,1.23-.57,1.56-1.17.16-.29.3-.61.48-.89a11.5,11.5,0,0,1,.86-1.21c.39-.45.71-.49,1.13-.18A7.25,7.25,0,0,1,13.42,29.31Z"/><path class="cls-1" d="M11.77,15.16a9.17,9.17,0,0,0-2.39,3.65c-.75,1.66-1.47,3.34-2.22,5a9.9,9.9,0,0,1-.57,1,1.61,1.61,0,0,1-.67-.94,8.32,8.32,0,0,1-.35-2.53v-1.7c1.8-.32,2.86-1.62,4-2.79A6.86,6.86,0,0,1,11.77,15.16Z"/><path class="cls-4" d="M12.08,32.81a4.91,4.91,0,0,0,1.46-3.05.31.31,0,0,0-.18-.25A5,5,0,0,0,11,29.35l-1.47.3c.22-.37.36-.67.56-.94a1.13,1.13,0,0,1,1.52-.5,1.37,1.37,0,0,1,.2.13c.53.31,1,.64,1.58,1a7.48,7.48,0,0,0-1.76-2c-.42-.31-.74-.27-1.13.18a8.56,8.56,0,0,0-.86,1.21c-.18.28-.32.59-.48.89-.33.6-.67,1.2-1.56,1.17.18.48.3.92.49,1.32a2.56,2.56,0,0,0,3.46,1.07A2.4,2.4,0,0,0,12.08,32.81Z"/><path class="cls-4" d="M20,38.53c-.26,0-.6-.06-.75.08a4.09,4.09,0,0,1-2.69,1,4,4,0,0,1-2.88-.94.51.51,0,0,0-.31-.11,6.45,6.45,0,0,0-1.16.14,2,2,0,0,0-1.39,2.46,1.86,1.86,0,0,0,.24.54,4.7,4.7,0,0,0,2.1,1.77,8.8,8.8,0,0,0,3.25.61,12.5,12.5,0,0,0,1.73-.16,5.16,5.16,0,0,0,3.49-2A2,2,0,0,0,22,40.23,2.09,2.09,0,0,0,20,38.53Z"/><path class="cls-4" d="M21.4,38a5.33,5.33,0,0,1-1.31-1.6c-.05-.08-.14-.2-.2-.2a5.12,5.12,0,0,0-2.37.58,2.06,2.06,0,0,1-2.19,0,1.36,1.36,0,0,0-.9-.19l-.5.06a2.7,2.7,0,0,0-2.68,2.2,3.71,3.71,0,0,1,3.07-.51,9.3,9.3,0,0,0,4,0,6.1,6.1,0,0,1,2-.07,2.23,2.23,0,0,1,2,2.07,4.9,4.9,0,0,1-.12,1.08c1.22-.17,2.45-2.09,2.67-3.55A2.49,2.49,0,0,1,21.4,38Z"/><path class="cls-4" d="M20.37,26.19a3.71,3.71,0,0,1,4.08.75c.35.34.72.65,1.07,1l.09-.06c-.25-.38-.48-.78-.75-1.15A6.07,6.07,0,0,0,23.24,25a4.55,4.55,0,0,0-4.31.27,1.41,1.41,0,0,0-.41,1.52Z"/><path class="cls-4" d="M24.21,30.09c-.12-.17-.23-.36-.34-.53-.42-.73-.87-1.44-1.36-2.13a1,1,0,0,0-1.78-.08c-.7.74-1.34,1.55-2,2.33a.45.45,0,0,0-.06.34,9.21,9.21,0,0,0,.48,1.23,4,4,0,0,0,2.12,2.07,2.75,2.75,0,0,0,2.94-.44,6,6,0,0,0,.63-.78l-.1-.07a.61.61,0,0,0-.12.16,2.57,2.57,0,0,1-3.53.86,1.83,1.83,0,0,1-.36-.26,6,6,0,0,1-1.61-3,.34.34,0,0,1,.17-.22,5.06,5.06,0,0,1,2.22-.21l1.57.29.08-.07a10.25,10.25,0,0,0-.76-1.1,1,1,0,0,0-1.27-.23,4.39,4.39,0,0,0-.47.27l-1.37.85a9.46,9.46,0,0,1,.86-1.14,8.75,8.75,0,0,1,.81-.8c.48-.42.84-.43,1.26.05a14.22,14.22,0,0,1,1,1.44c.25.39.44.82.69,1.21a1.1,1.1,0,0,0,1.32.55v-.09a.81.81,0,0,0-.22-.07A1,1,0,0,1,24.21,30.09Z"/><path class="cls-4" d="M25.4,23.37l-.4-.84A8.09,8.09,0,0,0,25.4,23.37Z"/><path d="M10.13,15.89c-1.41.56-2.76,1.31-4.34,1.25a2.31,2.31,0,0,0,.44,2.09C7.85,18.51,8.92,17.12,10.13,15.89Z"/><path class="cls-5" d="M26,19.24a5.72,5.72,0,0,1-.87-.58c-.73-.66-1.44-1.34-2.13-2a6.35,6.35,0,0,0-2-1.48c.28.29.57.56.82.87a13.72,13.72,0,0,1,1.81,3.4c.43,1,.84,2.1,1.31,3.12.4.81.41.84.42.84h0c.15.29.32.58.49.87a7.2,7.2,0,0,0,1.2,1.49c.47.44.93.26,1.06-.37a6.59,6.59,0,0,0,.15-1.4,23.82,23.82,0,0,0-.81-4.43A2.23,2.23,0,0,1,26,19.24Z"/><path class="cls-5" d="M9.58,16.84c-1.15,1.16-2.21,2.47-4,2.79v1.7a8.32,8.32,0,0,0,.35,2.53,1.61,1.61,0,0,0,.67.94,8.91,8.91,0,0,0,.57-1c.75-1.66,1.47-3.34,2.22-5a9.17,9.17,0,0,1,2.39-3.65A6.86,6.86,0,0,0,9.58,16.84Z"/><path d="M11.49,15.74a3.94,3.94,0,0,1,.8-.61,4.31,4.31,0,0,1,2.44-.53h.48a.5.5,0,0,0,.2-.08c-.06,0-.11-.12-.17-.13h0c-.06.24-1.8.1-1.8.1h-.51A3.86,3.86,0,0,0,11.49,15.74Z"/><path d="M12.16,7.76A8.84,8.84,0,0,0,9.25,9.37a10,10,0,0,1,1.87-1.16C11.47,8.05,11.81,7.9,12.16,7.76Z"/><path d="M15.22,14.39a12.47,12.47,0,0,0-1.83.09h0S15.16,14.62,15.22,14.39Z"/><path d="M17.43,14.42l.49-.07h-.28C17.51,14.38,17.45,14.39,17.43,14.42Z"/><path class="cls-5" d="M12.16,7.76l.34-.13Z"/><path class="cls-5" d="M13.39,14.48a.9.9,0,0,0-.51.07h.2Z"/><path class="cls-5" d="M27.45,16.49c-.09.11-.19.2-.24.26A.85.85,0,0,0,27.45,16.49Z"/><path class="cls-5" d="M9.25,9.37a6.13,6.13,0,0,0-1.56,1.8A8.38,8.38,0,0,1,9.25,9.37Z"/><path class="cls-5" d="M21.9,15.21c1.06.47,2.12.95,3.21,1.37a7.68,7.68,0,0,0,1.57.32.93.93,0,0,0,.54-.14c.05-.06.15-.15.24-.26A1.48,1.48,0,0,0,27,14.58a1.55,1.55,0,0,0,.07.31c.12.31,0,.47-.3.57a2.82,2.82,0,0,1-1.47,0,1.24,1.24,0,0,1-.1-.13c0-.05.1-.1.15-.1h1.28c.33,0,.22-.13.18-.32a9.42,9.42,0,0,0-2.39-4.72A11,11,0,0,0,17.22,7a11,11,0,0,0-4.62.6h-.07l-.34.13c-.35.14-.69.29-1,.45a9.8,9.8,0,0,0-1.92,1.2,8.38,8.38,0,0,0-1.56,1.8,5.79,5.79,0,0,0-.54,1.28,16.36,16.36,0,0,0-.61,2.86l.78-.08a1.36,1.36,0,0,1,.29.06c-.09.06-.18.17-.27.17H5.85a4.09,4.09,0,0,0,.05.78c.16.79.17.67.85.59a1.08,1.08,0,0,0,.31-.07c1-.39,2.06-.76,3.06-1.2a13.19,13.19,0,0,1,2.78-1,.9.9,0,0,1,.51-.07c.61-.06,1.22-.07,1.83-.09h0l1.15.18,1-.14h.5A8.91,8.91,0,0,1,21.9,15.21Z"/><path class="cls-5" d="M10.43,17.22a12.94,12.94,0,0,1,1.07-1.48A5.38,5.38,0,0,0,10.43,17.22Z"/><path class="cls-5" d="M22.67,15.88l-.07.06c.63.61,1.24,1.25,1.89,1.82A16.66,16.66,0,0,0,26.15,19a2.17,2.17,0,0,0,.89.29.64.64,0,0,0,.75-.51.41.41,0,0,0,0-.11,2.86,2.86,0,0,0-.5-1.6C25.55,17.33,24.15,16.44,22.67,15.88Z"/><path class="cls-1" d="M10.13,15.89c-1.21,1.22-2.27,2.61-3.9,3.34a2.31,2.31,0,0,1-.44-2.09A10.65,10.65,0,0,0,10.13,15.89Z"/><path class="cls-6" d="M25.53,27.92c-.36-.33-.73-.64-1.07-1a3.7,3.7,0,0,0-4.08-.75c-.61.21-1.22.4-1.82.59a1.41,1.41,0,0,1,.44-1.5A4.58,4.58,0,0,1,23.28,25a6,6,0,0,1,1.62,1.72c.27.37.5.76.75,1.15Z"/><path class="cls-6" d="M25.27,30.67A1.1,1.1,0,0,1,24,30.12c-.25-.39-.44-.82-.69-1.21a14.22,14.22,0,0,0-1-1.44c-.41-.48-.77-.47-1.26,0a8.75,8.75,0,0,0-.81.8,9.46,9.46,0,0,0-.86,1.14l1.37-.85a4.39,4.39,0,0,1,.47-.27,1,1,0,0,1,1.27.23,11.94,11.94,0,0,1,.76,1.1l-.08.07L21.6,29.4a4.91,4.91,0,0,0-2.22.21c-.08,0-.19.16-.17.22a6,6,0,0,0,1.61,3,2.57,2.57,0,0,0,3.63-.24,3.32,3.32,0,0,0,.26-.36l.12-.16.1.07a4.68,4.68,0,0,1-.63.78,2.77,2.77,0,0,1-2.94.44,3.94,3.94,0,0,1-2.12-2.07A9.09,9.09,0,0,1,18.69,30a.41.41,0,0,1,.06-.34c.65-.79,1.28-1.6,2-2.33A1,1,0,0,1,22.11,27a1,1,0,0,1,.42.46c.51.66.91,1.42,1.36,2.13.11.18.22.36.34.53a1,1,0,0,0,.87.42.57.57,0,0,1,.22.07A.54.54,0,0,1,25.27,30.67Z"/><path class="cls-3" d="M27.46,26.17a2.35,2.35,0,0,1-.75-.44,5.9,5.9,0,0,1-.94-1.23c-.65-1.25-1.26-2.53-1.83-3.82a30.42,30.42,0,0,0-1.79-3.84,4.13,4.13,0,0,0-2.8-2.15,17.69,17.69,0,0,0-1.92-.13.17.17,0,0,1,0-.14l-1,.14-1.15-.18a1.09,1.09,0,0,1,.17.13l-.2.08h-.48a4.5,4.5,0,0,0-2.44.53,5.83,5.83,0,0,0-.8.61,15.44,15.44,0,0,0-1.07,1.48v.1C9.63,18.89,9,20.52,8.25,22.13a14,14,0,0,0-.72,1.75,8.41,8.41,0,0,0,0,3.24l.1-.12c.4-.5.77-1,1.2-1.51a2.8,2.8,0,0,1,1.6-.9,5.35,5.35,0,0,1,3,.45,1.38,1.38,0,0,1,.75,1.7c-.89-.26-1.75-.54-2.63-.76A2.93,2.93,0,0,0,9,26.35c-.53.38-1,.82-1.52,1.24a.41.41,0,0,0-.11.28,19.77,19.77,0,0,0,.08,2.18c0,.47.25.58.68.35a1.46,1.46,0,0,0,.49-.4A6.11,6.11,0,0,0,9,29.33c.38-.66.79-1.29,1.23-1.91a1,1,0,0,1,1.31-.52,1,1,0,0,1,.46.39c.74.76,1.4,1.61,2.08,2.43a.36.36,0,0,1,0,.32,15.82,15.82,0,0,1-.89,1.74,4,4,0,0,1-2,1.64A2.65,2.65,0,0,0,9.5,35.37a3.36,3.36,0,0,0,.83,2.76.43.43,0,0,0,.35,0,2.19,2.19,0,0,0,1.12-1.42c.17-.58.3-1.16.45-1.75a1.52,1.52,0,0,1,.89-1.05h.23c.07,0-.07.14-.13.17a1.45,1.45,0,0,0-.8,1,.6.6,0,0,0,.18.83A.65.65,0,0,0,13,36a1.62,1.62,0,0,0,.44,0,4.09,4.09,0,0,1,1.9.54,2,2,0,0,0,2.08,0,6.75,6.75,0,0,1,1.39-.49c.32-.09.67-.06,1-.13a.62.62,0,0,0,.52-.69.57.57,0,0,0,0-.14,1.35,1.35,0,0,0-.78-1,.68.68,0,0,1-.17-.21l.08-.06A1.6,1.6,0,0,1,20.49,35c.15.59.29,1.19.46,1.78a2.11,2.11,0,0,0,1.6,1.56,1.84,1.84,0,0,0,2.21-.75,10,10,0,0,0,1.06-3c.21-1.09.35-2.19.53-3.28,0-.07.09-.13.14-.19s.09.15.09.23a2.88,2.88,0,0,1-.06.61,2.65,2.65,0,0,0,.7-1.37,18.64,18.64,0,0,0,.45-4.15C27.68,26.28,27.6,26.23,27.46,26.17ZM19,25.26A4.58,4.58,0,0,1,23.27,25a6,6,0,0,1,1.62,1.72c.27.37.5.76.75,1.15l-.09.06c-.36-.33-.73-.64-1.07-1a3.7,3.7,0,0,0-4.08-.75c-.61.21-1.22.4-1.82.59A1.34,1.34,0,0,1,19,25.26Z"/><path d="M25.24,30.45c-.63.13-1.18-.79-1.3-1a15,15,0,0,0-1.27-2.06h0l-.06-.07A.93.93,0,0,0,21.34,27h0a11.92,11.92,0,0,0-1.84,1.85l-.46.56h0l-.14.17a.36.36,0,0,0,0,.32c.22.46.43.93.68,1.38,1.68,2.76,3.46,2.12,3.8,2a2.44,2.44,0,0,0,.79-.6V32.6a1.67,1.67,0,0,1-.75.59h0c-2,.89-3.27-1.3-3.27-1.3h0a7.66,7.66,0,0,1-.75-1.71c-.21-.61.2-.76.2-.76h0a4.89,4.89,0,0,1,2.31-.16l1.47.3c-.12-.19-.23-.35-.33-.49a2.09,2.09,0,0,0-1-.8,1.52,1.52,0,0,0-.67,0,4.93,4.93,0,0,0-.53.22h0a10.46,10.46,0,0,0-1.19.64h0a7.48,7.48,0,0,1,1.76-2c.42-.31.74-.27,1.13.18a8.56,8.56,0,0,1,.86,1.21c.18.28.32.59.48.89.3.54.61,1.09,1.34,1.16C25.22,30.59,25.31,30.54,25.24,30.45Z"/><path class="cls-2" d="M38.27,15H35.92c-.08,0-.19-.15-.22-.24a12.2,12.2,0,0,1-.42-3.06c0-.72.06-1.44.06-2.16,0-.32.15-.36.42-.36h5.77a.33.33,0,0,1,.25.19c.12.89.22,1.79.33,2.68,0,.22-.13.29-.29.35a13,13,0,0,1-3.24.82c-.3,0-.41.14-.38.44S38.25,14.51,38.27,15Zm.23-5.2a14.58,14.58,0,0,0-.25,2.8c.43-.13.81-.24,1.18-.38.07,0,.14-.19.12-.28A4.32,4.32,0,0,0,38.5,9.8Z"/><path class="cls-1" d="M45.7,24.9V43.41a1.26,1.26,0,0,1-1.31,1.32q-5.7,0-11.4,0a1.29,1.29,0,0,1-1.27-1.21c0-.15,0-.3,0-.45V6.5a1.36,1.36,0,0,1,.83-1.4A1.18,1.18,0,0,1,33,5c3.76,0,7.52,0,11.28,0a1.4,1.4,0,0,1,1.45,1.47c0,6.15,0,12.3,0,18.44Zm-6.22-5c-.47-.19-.88-.35-1.28-.53a.4.4,0,0,1-.13-.29,7.67,7.67,0,0,1,0-.83c0-.26-.08-.35-.34-.34-.78,0-1.56,0-2.34,0l-.33,0a27.55,27.55,0,0,1,.07,5.74h2.53c0-.05,0-.07,0-.1.12-1,.26-2,.35-3,0-.27.1-.37.37-.28l.83.28a.36.36,0,0,1,.26.42c-.07.79-.12,1.58-.19,2.37,0,.2,0,.32.25.32.74,0,1.48,0,2.22,0a.36.36,0,0,0,.26-.22,6.67,6.67,0,0,0,.12-.78,28.59,28.59,0,0,0,.29-4.43c0-.26-.09-.34-.35-.34-.65,0-1.31,0-2,0s-.64-.06-.64.66ZM39.55,31c.07.43.14.77.17,1.11s.09.28.3.27h2.09c.22,0,.28-.08.27-.28,0-.47,0-.95-.08-1.42A13.15,13.15,0,0,0,41.41,27a.54.54,0,0,0-.57-.38h-3.2l-.15,0a3.11,3.11,0,0,1,.2.25c.44.63.45.69-.08,1.25a5.49,5.49,0,0,1-2.08,1.41.46.46,0,0,0-.27.26,6.31,6.31,0,0,0-.15,2.29c0,.23.12.3.35.29.66,0,1.33,0,2,0a1.08,1.08,0,0,0,.78-.27l1-.87ZM38.3,14.91c0-.47,0-.89-.06-1.31s.08-.41.38-.44a12.92,12.92,0,0,0,3.22-.82c.16-.07.31-.13.28-.35-.1-.89-.2-1.78-.32-2.67,0-.07-.16-.18-.25-.19-.36,0-.72,0-1.07,0H35.81c-.26,0-.41,0-.41.35,0,.72-.07,1.44-.07,2.15a12,12,0,0,0,.42,3c0,.1.15.24.22.24C36.73,14.92,37.49,14.91,38.3,14.91ZM37,37.89h0a.86.86,0,0,1,.14.13,15.54,15.54,0,0,0,3.31,2.73,1.77,1.77,0,0,0,1.2.39c.55-.06.55.1.58-.58,0-.1,0-.21,0-.32,0-1.54,0-3.08,0-4.62,0-.09-.09-.24-.14-.24-.39,0-.77,0-1.17,0a10.43,10.43,0,0,1,.34,3.11c-.12-.07-.19-.09-.24-.13a10.82,10.82,0,0,1-2.63-2.77.43.43,0,0,0-.41-.23c-.92,0-1.84,0-2.75,0a.7.7,0,0,0-.23,0c.14.23.26.43.37.63a2,2,0,0,1,.35.73c.05,1,.05,1.92,0,2.88,0,.49-.08,1-.13,1.51.35,0,.66,0,1,0s.27-.06.28-.25,0-.61,0-.92C37,39.29,37,38.59,37,37.89Z"/><path class="cls-7" d="M39.48,19.85V18.52c0-.72-.17-.65.64-.66s1.32,0,2,0c.26,0,.34.08.35.34a28.59,28.59,0,0,1-.29,4.43,6.67,6.67,0,0,1-.12.78.36.36,0,0,1-.26.22c-.74,0-1.48,0-2.22,0-.25,0-.26-.12-.25-.32.07-.79.12-1.58.19-2.37a.36.36,0,0,0-.26-.42l-.83-.28c-.27-.09-.34,0-.37.28-.09,1-.23,2-.35,3,0,0,0,.05,0,.1H35.11A27.55,27.55,0,0,0,35,17.88l.33,0c.78,0,1.56,0,2.34,0,.26,0,.36.08.34.34a7.67,7.67,0,0,0,0,.83.4.4,0,0,0,.13.29C38.6,19.5,39,19.66,39.48,19.85Z"/><path class="cls-7" d="M39.55,31l-.32.25-1,.87a1.08,1.08,0,0,1-.78.27c-.66,0-1.33,0-2,0-.23,0-.33-.06-.35-.29a6.31,6.31,0,0,1,.15-2.29.46.46,0,0,1,.27-.26,5.49,5.49,0,0,0,2.08-1.41c.53-.56.52-.62.08-1.25a3.11,3.11,0,0,0-.2-.25l.15,0h3.2a.54.54,0,0,1,.57.38,13.15,13.15,0,0,1,.89,3.71c0,.47.05.95.08,1.42,0,.2-.05.28-.27.28H40c-.21,0-.28-.07-.3-.27S39.62,31.44,39.55,31Zm-1.75.33a4.47,4.47,0,0,0,1.48-1.08s0-.18,0-.26c-.22-.55-.44-1.1-.68-1.64,0-.05-.07-.08-.13-.15A10.78,10.78,0,0,0,37.8,31.34Z"/><path class="cls-7" d="M38.3,14.91c-.81,0-1.57,0-2.33,0-.07,0-.19-.14-.22-.24a12,12,0,0,1-.42-3c0-.71.06-1.43.07-2.15,0-.32.15-.35.41-.35h4.67c.35,0,.71,0,1.07,0,.09,0,.24.12.25.19.12.89.22,1.78.32,2.67,0,.22-.12.28-.28.35a12.92,12.92,0,0,1-3.22.82c-.3,0-.41.14-.38.44S38.28,14.44,38.3,14.91Zm.24-5.15a14.31,14.31,0,0,0-.25,2.78c.42-.14.8-.24,1.17-.38a.31.31,0,0,0,.12-.28A4.44,4.44,0,0,0,38.54,9.76Z"/><path class="cls-7" d="M37,37.89c0,.7,0,1.4,0,2.09,0,.31,0,.61,0,.92s-.1.25-.28.25-.63,0-1,0c0-.53.12-1,.13-1.51,0-1,0-1.92,0-2.88a2,2,0,0,0-.35-.73c-.11-.2-.23-.4-.37-.63a.7.7,0,0,1,.23,0c.91,0,1.83,0,2.75,0a.43.43,0,0,1,.41.23,10.82,10.82,0,0,0,2.63,2.77s.12.06.24.13A10.43,10.43,0,0,0,41,35.38c.4,0,.78,0,1.17,0,0,0,.14.15.14.24,0,1.54,0,3.08,0,4.62,0,.11,0,.22,0,.32,0,.68,0,.52-.58.58a1.77,1.77,0,0,1-1.2-.39A15.54,15.54,0,0,1,37.21,38a.86.86,0,0,0-.14-.13Z"/><path class="cls-1" d="M37.8,31.34a10.78,10.78,0,0,1,.67-3.13c.06.07.12.1.13.15.24.54.46,1.09.68,1.64,0,.08,0,.22,0,.26A4.47,4.47,0,0,1,37.8,31.34Z"/><path class="cls-1" d="M38.54,9.76a4.44,4.44,0,0,1,1,2.12.31.31,0,0,1-.12.28c-.37.14-.75.24-1.17.38A14.31,14.31,0,0,1,38.54,9.76Z"/><path class="cls-8" d="M16.56,43.81a8.71,8.71,0,0,1-3.24-.61,4.55,4.55,0,0,1-2.08-1.75,2,2,0,0,1,1.14-3,5.49,5.49,0,0,1,1.15-.15.47.47,0,0,1,.3.12,4,4,0,0,0,2.87.93,4.12,4.12,0,0,0,2.67-1c.16-.14.49-.1.75-.09A2.12,2.12,0,0,1,22.2,40a2.07,2.07,0,0,1-.45,1.71,5.16,5.16,0,0,1-3.47,1.95C17.71,43.73,17.13,43.76,16.56,43.81Z"/><path class="cls-1" d="M27.56,19.45a24.84,24.84,0,0,1,.81,4.4,7.08,7.08,0,0,1-.11,1.38c-.13.63-.59.8-1.06.36A6.89,6.89,0,0,1,26,24.11a34.17,34.17,0,0,1-2.2-4.8A13.83,13.83,0,0,0,22,15.94c-.25-.31-.54-.58-.81-.87a6.5,6.5,0,0,1,2,1.48c.69.68,1.39,1.36,2.12,2a5.18,5.18,0,0,0,.86.58A2.17,2.17,0,0,0,27.56,19.45Z"/><path class="cls-8" d="M11.44,38.66a2.7,2.7,0,0,1,2.67-2.19l.5,0a1.43,1.43,0,0,1,.9.18,2,2,0,0,0,2.18,0A5.07,5.07,0,0,1,20,36c.06,0,.16.12.2.2a5.54,5.54,0,0,0,1.31,1.59A2.45,2.45,0,0,0,25,37.73c-.22,1.44-1.44,3.36-2.65,3.52a5.57,5.57,0,0,0,.12-1.07,2.2,2.2,0,0,0-2-2,6,6,0,0,0-1.94.07,9.21,9.21,0,0,1-4,0A3.66,3.66,0,0,0,11.44,38.66Z"/><path class="cls-8" d="M13.61,29.14c-.52-.32-1-.64-1.56-.95a1.12,1.12,0,0,0-1.71.36c-.19.27-.34.58-.56.94l1.47-.29a5,5,0,0,1,2.3.15.31.31,0,0,1,.18.25,4.8,4.8,0,0,1-1.45,3,2.56,2.56,0,0,1-3.94-.74c-.19-.4-.32-.84-.49-1.32.89,0,1.22-.57,1.55-1.16.16-.29.3-.6.48-.88a11.37,11.37,0,0,1,.86-1.2c.39-.44.71-.49,1.13-.18A7.36,7.36,0,0,1,13.61,29.14Z"/><path class="cls-1" d="M12,15.09A9.15,9.15,0,0,0,9.6,18.71c-.74,1.65-1.46,3.32-2.2,5-.16.34-.38.65-.57,1a1.54,1.54,0,0,1-.67-.93,8.61,8.61,0,0,1-.34-2.52c0-.56,0-1.13,0-1.69,1.78-.31,2.84-1.61,4-2.76A6.72,6.72,0,0,1,12,15.09Z"/><path class="cls-4" d="M12.28,32.63a4.8,4.8,0,0,0,1.45-3,.31.31,0,0,0-.18-.25,5,5,0,0,0-2.3-.15l-1.47.29c.22-.36.37-.67.56-.94a1.12,1.12,0,0,1,1.71-.36c.53.31,1,.63,1.56.95a7.36,7.36,0,0,0-1.74-2c-.42-.31-.74-.26-1.13.18a11.37,11.37,0,0,0-.86,1.2c-.18.28-.32.59-.48.88-.33.59-.66,1.19-1.55,1.16.17.48.3.92.49,1.32A2.56,2.56,0,0,0,12.28,32.63Z"/><path class="cls-4" d="M20.12,38.3c-.26,0-.59,0-.75.09a4.12,4.12,0,0,1-2.67,1,4,4,0,0,1-2.87-.93.47.47,0,0,0-.3-.12,5.49,5.49,0,0,0-1.15.15,2,2,0,0,0-1.14,3,4.55,4.55,0,0,0,2.08,1.75,8.71,8.71,0,0,0,3.24.61c.57-.05,1.15-.08,1.72-.16a5.16,5.16,0,0,0,3.47-1.95A2.07,2.07,0,0,0,22.2,40,2.12,2.12,0,0,0,20.12,38.3Z"/><path class="cls-4" d="M21.55,37.79a5.54,5.54,0,0,1-1.31-1.59c0-.08-.14-.2-.2-.2a5.07,5.07,0,0,0-2.35.58,2,2,0,0,1-2.18,0,1.43,1.43,0,0,0-.9-.18l-.5,0a2.7,2.7,0,0,0-2.67,2.19,3.66,3.66,0,0,1,3.05-.5,9.21,9.21,0,0,0,4,0,6,6,0,0,1,1.94-.07,2.2,2.2,0,0,1,2,2,5.57,5.57,0,0,1-.12,1.07c1.21-.16,2.43-2.08,2.65-3.52A2.45,2.45,0,0,1,21.55,37.79Z"/><path class="cls-4" d="M20.52,26a3.7,3.7,0,0,1,4.06.75c.35.34.71.65,1.07,1l.09-.06c-.24-.38-.47-.78-.74-1.14a5.94,5.94,0,0,0-1.6-1.71,4.55,4.55,0,0,0-4.28.26,1.41,1.41,0,0,0-.41,1.52C19.32,26.44,19.92,26.25,20.52,26Z"/><path class="cls-4" d="M24.34,29.92c-.12-.17-.23-.35-.34-.53a21,21,0,0,0-1.35-2.11,1,1,0,0,0-1.76-.09c-.7.73-1.33,1.54-2,2.32a.41.41,0,0,0-.06.34,8.71,8.71,0,0,0,.48,1.23,3.92,3.92,0,0,0,2.11,2.05,2.73,2.73,0,0,0,2.92-.43,5.22,5.22,0,0,0,.62-.77l-.1-.08a1.67,1.67,0,0,0-.12.16,2.54,2.54,0,0,1-3.86.59,5.93,5.93,0,0,1-1.6-3c0-.06.09-.2.17-.23a5,5,0,0,1,2.2-.2l1.56.29.08-.07a11.94,11.94,0,0,0-.76-1.1,1,1,0,0,0-1.26-.23,4.17,4.17,0,0,0-.46.26l-1.37.85a8.84,8.84,0,0,1,.86-1.13,8.63,8.63,0,0,1,.8-.8c.48-.42.84-.43,1.25.05a11.89,11.89,0,0,1,1,1.43c.25.39.44.81.69,1.2a1.1,1.1,0,0,0,1.31.55,1,1,0,0,1,0-.1c-.08,0-.15-.07-.22-.06A1,1,0,0,1,24.34,29.92Z"/><path class="cls-4" d="M25.52,23.25s0,0-.41-.84C25.24,22.69,25.37,23,25.52,23.25Z"/><path d="M10.34,15.82A10.71,10.71,0,0,1,6,17.06a2.29,2.29,0,0,0,.44,2.07C8.08,18.41,9.14,17,10.34,15.82Z"/><path class="cls-5" d="M26.14,19.14a5.18,5.18,0,0,1-.86-.58c-.73-.65-1.43-1.33-2.12-2a6.5,6.5,0,0,0-2-1.48c.27.29.56.56.81.87a13.83,13.83,0,0,1,1.8,3.37c.42,1,.83,2.09,1.31,3.1.39.81.41.84.41.84h0c.15.29.31.58.48.86a6.89,6.89,0,0,0,1.2,1.48c.47.44.93.27,1.06-.36a7.08,7.08,0,0,0,.11-1.38,24.84,24.84,0,0,0-.81-4.4A2.17,2.17,0,0,1,26.14,19.14Z"/><path class="cls-5" d="M9.8,16.76c-1.14,1.15-2.2,2.45-4,2.76,0,.56,0,1.13,0,1.69a8.61,8.61,0,0,0,.34,2.52,1.54,1.54,0,0,0,.67.93c.19-.33.41-.64.57-1,.74-1.65,1.46-3.32,2.2-5A9.15,9.15,0,0,1,12,15.09,6.72,6.72,0,0,0,9.8,16.76Z"/><polygon points="26.13 11.86 26.13 11.86 26.13 11.86 26.13 11.86"/><path d="M11.7,15.66a5.35,5.35,0,0,1,.79-.61,4.47,4.47,0,0,1,2.43-.53c.16,0,.31,0,.47,0a.5.5,0,0,0,.2-.08.91.91,0,0,0-.16-.13h0c-.05.23-1.79.09-1.79.09h0l-.32,0-.19,0A4.15,4.15,0,0,0,11.7,15.66Z"/><path d="M12.36,7.73A8.91,8.91,0,0,0,9.47,9.34a10.33,10.33,0,0,1,1.87-1.16C11.67,8,12,7.87,12.36,7.73Z"/><path d="M15.4,14.32c-.6,0-1.21,0-1.81.09h0S15.35,14.55,15.4,14.32Z"/><path d="M12.72,7.6h0l.07,0Z"/><path d="M15.4,14.32h0Z"/><path d="M17.6,14.35l.49-.06h-.28C17.68,14.31,17.62,14.32,17.6,14.35Z"/><path d="M28.59,23.34a15.62,15.62,0,0,0-.24-1.65c-.15-.73-.34-1.46-.5-2.2a.42.42,0,0,1,.09-.33.89.89,0,0,0,.2-1c-.14-.43-.32-.85-.48-1.27a.32.32,0,0,1,.05-.23,1.76,1.76,0,0,0-.58-2.47A.35.35,0,0,1,27,14c-.14-.36-.26-.73-.38-1.09a7.71,7.71,0,0,0-.46-1.06h0A8.54,8.54,0,0,0,24.7,9.92a10,10,0,0,0-3.78-2.43,11.33,11.33,0,0,0-4.19-.82A9.48,9.48,0,0,0,13.88,7a23.75,23.75,0,0,0-2.62.89A11.49,11.49,0,0,0,9.14,9.32,8.86,8.86,0,0,0,6.2,13.94a.51.51,0,0,1-.22.28,1.69,1.69,0,0,0-.64,2.22.62.62,0,0,1,0,.73,2.84,2.84,0,0,0-.28.72,1.25,1.25,0,0,0,.19,1.32.44.44,0,0,1,0,.3c-.11.58-.22,1.15-.37,1.72A10.66,10.66,0,0,0,4.57,25,1.29,1.29,0,0,0,5,26a.53.53,0,0,1,.15.32c0,.47,0,.95.08,1.42q.14,1.33.33,2.67a3.1,3.1,0,0,0,.63,1.42c.12.16.3.31.34.5.1.41.12.85.21,1.26.18.82.38,1.63.59,2.44.12.43.34.83.44,1.27a8.11,8.11,0,0,0,1,2.52,3.75,3.75,0,0,0,1.69,1.58,2.11,2.11,0,0,1,.85.64,5.81,5.81,0,0,0,1.26,1.11,5.88,5.88,0,0,0,2.9.9,8.37,8.37,0,0,0,4.68-.69,8.66,8.66,0,0,0,1.33-.94c.4-.31.61-.87,1.21-.9,0,0,.06,0,.08,0A4.44,4.44,0,0,0,24.83,39c.23-.61.39-1.25.57-1.88.06-.19.11-.39.17-.57a8,8,0,0,0,.34-.93c.23-1.06.43-2.13.63-3.2a.75.75,0,0,1,.25-.47,1.59,1.59,0,0,0,.51-.68A16.79,16.79,0,0,0,27.83,29c.12-.87.12-1.76.18-2.64a.7.7,0,0,1,.15-.39,1.62,1.62,0,0,0,.43-1.08A12.85,12.85,0,0,0,28.59,23.34Zm-.68-4.75a.63.63,0,0,1-.75.61,2.21,2.21,0,0,1-.89-.28,15.22,15.22,0,0,1-1.65-1.25c-.65-.57-1.26-1.2-1.88-1.81l.07-.06c1.47.56,2.86,1.44,4.6,1.2A2.73,2.73,0,0,1,27.91,18.59ZM6,17.06a10.71,10.71,0,0,0,4.31-1.24C9.14,17,8.08,18.41,6.47,19.13A2.29,2.29,0,0,1,6,17.06Zm.8,7.6a1.54,1.54,0,0,1-.67-.93,8.61,8.61,0,0,1-.34-2.52c0-.56,0-1.13,0-1.69,1.78-.31,2.84-1.61,4-2.76A6.72,6.72,0,0,1,12,15.09,9.15,9.15,0,0,0,9.6,18.71c-.74,1.65-1.46,3.32-2.2,5C7.24,24,7,24.33,6.83,24.66Zm1.51,7.23c-.19-.4-.32-.84-.49-1.32.89,0,1.22-.57,1.55-1.16.16-.29.3-.6.48-.88a11.37,11.37,0,0,1,.86-1.2c.39-.44.71-.49,1.13-.18a7.36,7.36,0,0,1,1.74,2c-.52-.32-1-.64-1.56-.95a1.12,1.12,0,0,0-1.71.36c-.19.27-.34.58-.56.94l1.47-.29a5,5,0,0,1,2.3.15.31.31,0,0,1,.18.25,4.8,4.8,0,0,1-1.45,3A2.56,2.56,0,0,1,8.34,31.89ZM21.75,41.7a5.16,5.16,0,0,1-3.47,1.95c-.57.08-1.15.11-1.72.16a8.71,8.71,0,0,1-3.24-.61,4.55,4.55,0,0,1-2.08-1.75,2,2,0,0,1,1.14-3,5.49,5.49,0,0,1,1.15-.15.47.47,0,0,1,.3.12,4,4,0,0,0,2.87.93,4.12,4.12,0,0,0,2.67-1c.16-.14.49-.1.75-.09A2.12,2.12,0,0,1,22.2,40,2.07,2.07,0,0,1,21.75,41.7Zm.58-.45a5.57,5.57,0,0,0,.12-1.07,2.2,2.2,0,0,0-2-2,6,6,0,0,0-1.94.07,9.21,9.21,0,0,1-4,0,3.66,3.66,0,0,0-3.05.5,2.7,2.7,0,0,1,2.67-2.19l.5,0a1.43,1.43,0,0,1,.9.18,2,2,0,0,0,2.18,0A5.07,5.07,0,0,1,20,36c.06,0,.16.12.2.2a5.54,5.54,0,0,0,1.31,1.59A2.45,2.45,0,0,0,25,37.73C24.76,39.17,23.54,41.09,22.33,41.25Zm5-10.82a2.78,2.78,0,0,1-.7,1.36,5.73,5.73,0,0,0,.06-.6c0-.08-.06-.15-.09-.23s-.13.13-.14.2c-.18,1.08-.31,2.18-.52,3.26a9.72,9.72,0,0,1-1.05,3,1.82,1.82,0,0,1-2.2.74,2.1,2.1,0,0,1-1.59-1.55c-.17-.58-.31-1.17-.46-1.76a1.57,1.57,0,0,0-1.06-1.14l-.08.06c.06.08.1.18.17.21a1.41,1.41,0,0,1,.78,1,.61.61,0,0,1-.48.83c-.32.07-.67,0-1,.13a6.66,6.66,0,0,0-1.38.49,2.07,2.07,0,0,1-2.07,0,4,4,0,0,0-1.89-.54,3.15,3.15,0,0,1-.43,0,.6.6,0,0,1-.5-.84,1.43,1.43,0,0,1,.8-1c.05,0,.08-.11.12-.17s-.17,0-.23,0a1.51,1.51,0,0,0-.88,1c-.15.58-.29,1.16-.45,1.73A2.19,2.19,0,0,1,11,38c-.09,0-.3,0-.34,0a3.32,3.32,0,0,1-.83-2.75,2.64,2.64,0,0,1,1.67-1.94,3.89,3.89,0,0,0,2-1.62,18.73,18.73,0,0,0,.88-1.73.36.36,0,0,0,0-.32c-.67-.81-1.32-1.65-2.06-2.41a1,1,0,0,0-1.74.13,21.94,21.94,0,0,0-1.22,1.9c-.13.21-.24.44-.39.64a1.42,1.42,0,0,1-.46.42c-.42.22-.64.12-.67-.35,0-.72-.06-1.44-.08-2.17a.39.39,0,0,1,.11-.27c.49-.42,1-.86,1.51-1.24a2.93,2.93,0,0,1,2.51-.36c.87.22,1.73.5,2.61.76a1.4,1.4,0,0,0-.75-1.7,5.37,5.37,0,0,0-3-.44,2.7,2.7,0,0,0-1.59.89c-.43.47-.8,1-1.19,1.5L7.75,27a8.71,8.71,0,0,1,0-3.22A14.51,14.51,0,0,1,8.47,22c.7-1.6,1.38-3.22,2.12-4.8l.05-.1a5.3,5.3,0,0,1,1.06-1.47,4.15,4.15,0,0,1,1.38-1.18,12.56,12.56,0,0,0-2.76,1c-1,.44-2,.8-3.05,1.19a1,1,0,0,1-.3.07c-.68.08-.69.2-.84-.58a4.31,4.31,0,0,1,0-.77h1.5c.09,0,.18-.11.27-.17a1.11,1.11,0,0,0-.29-.07l-.78.08a16.18,16.18,0,0,1,.61-2.85,5.48,5.48,0,0,1,.53-1.26A6.08,6.08,0,0,1,9.47,9.34a8.91,8.91,0,0,1,2.89-1.61l.34-.12h0l0,0h0A10.79,10.79,0,0,1,17.38,7a11,11,0,0,1,7.16,3.18,9.22,9.22,0,0,1,2.37,4.69c0,.18,0,.3-.18.31-.33,0-.66,0-1,0-.1,0-.19,0-.28,0s-.11.07-.16.1.07.12.11.13a2.68,2.68,0,0,0,1.46,0c.28-.1.42-.25.3-.56a1.55,1.55,0,0,1-.07-.31,1.47,1.47,0,0,1,.46,1.91.72.72,0,0,1-.24.25.79.79,0,0,1-.53.14,6.83,6.83,0,0,1-1.57-.31c-1.08-.41-2.13-.9-3.18-1.36a9,9,0,0,0-3.95-.84h0l-.49.06s0,.07,0,.14c.65,0,1.29,0,1.91.13a4.12,4.12,0,0,1,2.79,2.14,29.91,29.91,0,0,1,1.77,3.81c.57,1.29,1.18,2.55,1.82,3.8a6,6,0,0,0,.93,1.22,2.41,2.41,0,0,0,.75.43c.14.07.22.11.22.28A19.14,19.14,0,0,1,27.33,30.43Zm.93-5.2c-.13.63-.59.8-1.06.36A6.89,6.89,0,0,1,26,24.11c-.17-.28-.33-.57-.48-.86s-.28-.56-.41-.84c-.48-1-.89-2.06-1.31-3.1A13.83,13.83,0,0,0,22,15.94c-.25-.31-.54-.58-.81-.87a6.5,6.5,0,0,1,2,1.48c.69.68,1.39,1.36,2.12,2a5.18,5.18,0,0,0,.86.58,2.17,2.17,0,0,0,1.42.31,24.84,24.84,0,0,1,.81,4.4A7.08,7.08,0,0,1,28.26,25.23Z"/><path class="cls-5" d="M12.36,7.73l.34-.12Z"/><path class="cls-5" d="M12.77,7.58h0Z"/><path class="cls-5" d="M13.59,14.41a.85.85,0,0,0-.51.07l.19,0Z"/><path class="cls-5" d="M27.56,16.41a3.08,3.08,0,0,1-.24.25A.72.72,0,0,0,27.56,16.41Z"/><path class="cls-5" d="M9.47,9.34a6.08,6.08,0,0,0-1.55,1.79A8,8,0,0,1,9.47,9.34Z"/><path class="cls-5" d="M22,15.13c1.05.46,2.1.95,3.18,1.36a6.83,6.83,0,0,0,1.57.31.79.79,0,0,0,.53-.14,3.08,3.08,0,0,0,.24-.25,1.47,1.47,0,0,0-.46-1.91,1.55,1.55,0,0,0,.07.31c.12.31,0,.46-.3.56a2.68,2.68,0,0,1-1.46,0s-.07-.08-.11-.13.1-.1.16-.1.18,0,.28,0c.33,0,.66,0,1,0,.18,0,.22-.13.18-.31a9.22,9.22,0,0,0-2.37-4.69A11,11,0,0,0,17.38,7a10.79,10.79,0,0,0-4.59.6h0l-.07,0-.34.12c-.34.14-.69.29-1,.45A10.33,10.33,0,0,0,9.47,9.34a8,8,0,0,0-1.55,1.79,5.48,5.48,0,0,0-.53,1.26,16.18,16.18,0,0,0-.61,2.85l.78-.08a1.11,1.11,0,0,1,.29.07c-.09.06-.18.16-.27.17H6.08a4.31,4.31,0,0,0,0,.77c.15.78.16.66.84.58a1,1,0,0,0,.3-.07c1-.39,2.05-.75,3.05-1.19a12.56,12.56,0,0,1,2.76-1,.85.85,0,0,1,.51-.07c.6-.07,1.21-.07,1.81-.09h0l1.14.17,1-.14s.08,0,.21,0h.28A9,9,0,0,1,22,15.13Z"/><path class="cls-5" d="M10.64,17.13a14.66,14.66,0,0,1,1.06-1.47A5.3,5.3,0,0,0,10.64,17.13Z"/><path class="cls-5" d="M22.81,15.8l-.07.06c.62.61,1.23,1.24,1.88,1.81a15.22,15.22,0,0,0,1.65,1.25,2.21,2.21,0,0,0,.89.28.63.63,0,0,0,.75-.61,2.73,2.73,0,0,0-.5-1.59C25.67,17.24,24.28,16.36,22.81,15.8Z"/><path class="cls-1" d="M10.34,15.82C9.14,17,8.08,18.41,6.47,19.13A2.29,2.29,0,0,1,6,17.06,10.71,10.71,0,0,0,10.34,15.82Z"/><path class="cls-6" d="M25.65,27.77c-.36-.33-.72-.64-1.07-1A3.7,3.7,0,0,0,20.52,26c-.6.21-1.2.4-1.81.6a1.41,1.41,0,0,1,.41-1.52,4.55,4.55,0,0,1,4.28-.26A5.94,5.94,0,0,1,25,26.57c.27.36.5.76.74,1.14Z"/><path class="cls-6" d="M25.39,30.5A1.1,1.1,0,0,1,24.08,30c-.25-.39-.44-.81-.69-1.2a11.89,11.89,0,0,0-1-1.43c-.41-.48-.77-.47-1.25-.05a8.63,8.63,0,0,0-.8.8,8.84,8.84,0,0,0-.86,1.13l1.37-.85a4.17,4.17,0,0,1,.46-.26,1,1,0,0,1,1.26.23,11.94,11.94,0,0,1,.76,1.1l-.08.07-1.56-.29a5,5,0,0,0-2.2.2c-.08,0-.19.17-.17.23a5.93,5.93,0,0,0,1.6,3A2.54,2.54,0,0,0,24.77,32a1.67,1.67,0,0,1,.12-.16l.1.08a5.22,5.22,0,0,1-.62.77,2.73,2.73,0,0,1-2.92.43,3.92,3.92,0,0,1-2.11-2.05,8.71,8.71,0,0,1-.48-1.23.41.41,0,0,1,.06-.34c.64-.78,1.27-1.59,2-2.32a1,1,0,0,1,1.76.09A21,21,0,0,1,24,29.39c.11.18.22.36.34.53a1,1,0,0,0,.87.42c.07,0,.14,0,.22.06A1,1,0,0,0,25.39,30.5Z"/><path class="cls-8" d="M27.56,26a2.41,2.41,0,0,1-.75-.43,6,6,0,0,1-.93-1.22c-.64-1.25-1.25-2.51-1.82-3.8a29.91,29.91,0,0,0-1.77-3.81,4.12,4.12,0,0,0-2.79-2.14c-.62-.1-1.26-.09-1.91-.13,0-.07,0-.11,0-.14l-1,.14-1.14-.17a.91.91,0,0,1,.16.13.5.5,0,0,1-.2.08c-.16,0-.31,0-.47,0a4.47,4.47,0,0,0-2.43.53,5.35,5.35,0,0,0-.79.61,14.66,14.66,0,0,0-1.06,1.47l-.05.1c-.74,1.58-1.42,3.2-2.12,4.8a14.51,14.51,0,0,0-.72,1.74,8.71,8.71,0,0,0,0,3.22l.11-.12c.39-.5.76-1,1.19-1.5a2.7,2.7,0,0,1,1.59-.89,5.37,5.37,0,0,1,3,.44,1.4,1.4,0,0,1,.75,1.7c-.88-.26-1.74-.54-2.61-.76a2.93,2.93,0,0,0-2.51.36c-.53.38-1,.82-1.51,1.24a.39.39,0,0,0-.11.27c0,.73,0,1.45.08,2.17,0,.47.25.57.67.35a1.42,1.42,0,0,0,.46-.42c.15-.2.26-.43.39-.64a21.94,21.94,0,0,1,1.22-1.9,1,1,0,0,1,1.74-.13c.74.76,1.39,1.6,2.06,2.41a.36.36,0,0,1,0,.32,18.73,18.73,0,0,1-.88,1.73,3.89,3.89,0,0,1-2,1.62,2.64,2.64,0,0,0-1.67,1.94,3.32,3.32,0,0,0,.83,2.75c0,.07.25.08.34,0a2.19,2.19,0,0,0,1.12-1.42c.16-.57.3-1.15.45-1.73a1.51,1.51,0,0,1,.88-1c.06,0,.15,0,.23,0s-.07.14-.12.17a1.43,1.43,0,0,0-.8,1,.6.6,0,0,0,.5.84,3.15,3.15,0,0,0,.43,0,4,4,0,0,1,1.89.54,2.07,2.07,0,0,0,2.07,0A6.66,6.66,0,0,1,19,35.9c.32-.09.67-.06,1-.13a.61.61,0,0,0,.48-.83,1.41,1.41,0,0,0-.78-1c-.07,0-.11-.13-.17-.21l.08-.06a1.57,1.57,0,0,1,1.06,1.14c.15.59.29,1.18.46,1.76a2.1,2.1,0,0,0,1.59,1.55,1.82,1.82,0,0,0,2.2-.74,9.72,9.72,0,0,0,1.05-3c.21-1.08.34-2.18.52-3.26,0-.07.09-.13.14-.2s.09.15.09.23a5.73,5.73,0,0,1-.06.6,2.78,2.78,0,0,0,.7-1.36,19.14,19.14,0,0,0,.45-4.13C27.78,26.13,27.7,26.09,27.56,26Zm-8.44-.9a4.55,4.55,0,0,1,4.28-.26A5.94,5.94,0,0,1,25,26.57c.27.36.5.76.74,1.14l-.09.06c-.36-.33-.72-.64-1.07-1A3.7,3.7,0,0,0,20.52,26c-.6.21-1.2.4-1.81.6A1.41,1.41,0,0,1,19.12,25.12Z"/><path d="M25.36,30.28c-.62.13-1.17-.79-1.29-1a14,14,0,0,0-1.26-2l0,0-.06-.08a.94.94,0,0,0-1.27-.26,12.25,12.25,0,0,0-1.83,1.84l-.46.56h0l-.14.17a.36.36,0,0,0,0,.32c.22.45.43.92.67,1.36,1.66,2.75,3.44,2.11,3.78,1.95a2.51,2.51,0,0,0,.78-.6v-.08a1.59,1.59,0,0,1-.74.59h0c-2,.88-3.25-1.29-3.25-1.29h0a6.75,6.75,0,0,1-.74-1.7c-.22-.61.19-.76.19-.76h0a5,5,0,0,1,2.3-.15l1.47.29-.33-.49a2.11,2.11,0,0,0-1.08-.77,1.64,1.64,0,0,0-.67,0l-.53.21h0a10.76,10.76,0,0,0-1.19.64.05.05,0,0,1,0,0,7.58,7.58,0,0,1,1.75-2c.42-.31.74-.26,1.13.18a11.37,11.37,0,0,1,.86,1.2c.18.28.31.59.48.88.3.54.6,1.09,1.32,1.16C25.34,30.41,25.43,30.37,25.36,30.28Z"/><polygon class="cls-9" points="39.7 52.35 40.23 42.4 59.97 42.55 59.33 54.08 39.7 52.35"/><polygon class="cls-10" points="40.93 43.14 59.19 43.28 58.64 53.28 40.47 51.68 40.93 43.14"/><polygon class="cls-5" points="43.99 45.39 44.08 44.44 41.87 44.41 41.63 49.05 43.8 49.24 43.86 48.3 42.35 48.17 42.4 47.1 43.91 47.29 43.94 46.37 42.46 46.28 42.53 45.31 43.99 45.39"/><polygon class="cls-5" points="44.89 46.37 45.19 47.26 45.68 46.38 46.31 46.43 45.47 47.85 46.13 49.43 45.5 49.38 45.15 48.46 44.72 49.29 44.05 49.23 44.87 47.82 44.28 46.34 44.89 46.37"/><path class="cls-5" d="M48,46.4c-.33-.11-.68.35-.68.35l0-.32-.59,0-.27,4.09.69,0,0-1.32s.26.4.61.4.92-.37,1-1.55S48.33,46.51,48,46.4Zm-.26,2.42c-.32,0-.53-.43-.52-.91s.32-.73.49-.73a.69.69,0,0,1,.51.84C48.13,48.56,48,48.79,47.73,48.82Z"/><path class="cls-5" d="M50.61,46.66l-.06.87a.56.56,0,0,0-.63.2,6.85,6.85,0,0,0-.18,2.08l-.68-.11.23-3.09.59,0-.07.38S50.24,46.41,50.61,46.66Z"/><path class="cls-5" d="M52.05,46.63c-.6-.08-1.23.69-1.27,1.74A1.49,1.49,0,0,0,52,50a1.61,1.61,0,0,0,1-.43l-.4-.61a.56.56,0,0,1-.67.26c-.46-.14-.5-.73-.5-.73s1,.12,1.69.13C53.29,47.21,52.64,46.71,52.05,46.63Zm-.54,1.3s.19-.57.55-.57.46.6.46.6Z"/><path class="cls-5" d="M55.4,47.76a.89.89,0,0,0-.83-.24c-.5.09-.23.58.22.62s1.08.57,1,1.15a1.11,1.11,0,0,1-1.33.92,1.24,1.24,0,0,1-1-.51l.28-.65a1.74,1.74,0,0,0,.76.39c.43.08.63-.29.35-.44s-1.3-.24-1.27-1.07a1.1,1.1,0,0,1,1.18-1.18,1.66,1.66,0,0,1,1,.37Z"/><path class="cls-5" d="M58.5,47.24a1.73,1.73,0,0,0-.72-.35,1.2,1.2,0,0,0-1.46.47,1,1,0,0,0,.44,1.53c.67.29.7.11.83.39s-.28.53-.82.27a1.77,1.77,0,0,1-.53-.35l-.29.73a2.56,2.56,0,0,0,1.36.57,1.29,1.29,0,0,0,1.15-1.12,1,1,0,0,0-1-1.05c-.6-.14-.86-.54-.48-.71a1,1,0,0,1,1.08.35A6.07,6.07,0,0,1,58.5,47.24Z"/></svg>