<svg id="Layer_1" data-name="Layer 1" xmlns="http://www.w3.org/2000/svg" viewBox="0 0 89 89"><defs><style>.cls-1{fill:#fff;}.cls-2{fill:#f9b51c;}</style></defs><title>logo tong chu vàng</title><path class="cls-1" d="M36.58,28.66A30.65,30.65,0,0,0,40.17,28c-1.49-2-2.9-3.52-4.94-4.28-.27-.1-.78-.22-.94.1a3.63,3.63,0,0,0-.18,3.27A2.45,2.45,0,0,0,36.58,28.66Zm.21-2.43L37,25.15c.5.25,1.21.53,1,1.47a1.06,1.06,0,0,1-1.29.83,1.07,1.07,0,0,1-1-1.22Z"/><path class="cls-1" d="M40.87,52.24c-1.37-.08-1.6.2-1.56,1.56a9.93,9.93,0,0,0,2.76,6.63c.23-2.28.48-4.63.68-7a1,1,0,0,0-.45-.81A3.43,3.43,0,0,0,40.87,52.24Z"/><path class="cls-1" d="M23.37,31.15A41.65,41.65,0,0,0,22.09,36L25,34.38C23.74,38,23.22,42.82,23.9,44.87L26,42c.33,3.95,1,6.35,2,7.2a7.29,7.29,0,0,1,1-2.46,7.07,7.07,0,0,1,2.43-1.1,1.65,1.65,0,0,0-.06-.19,6.71,6.71,0,0,1,3.76-9.13,1.87,1.87,0,0,0,.77-.65A5.25,5.25,0,0,1,41,33.33a6.66,6.66,0,0,0-3.33,2.91l1.27.22c-1,.28-1.67.45-2.35.68a2.41,2.41,0,0,0-1.78,1.94A2.37,2.37,0,0,0,36,41.54c.74.5,1.54.91,2.32,1.34.43.24.89.43,1.34.65-2.41,0-4.23-1.28-6.11-2.47a3,3,0,0,0,1.78,4,36.43,36.43,0,0,0,4.13,1.11c.61.15,1.24.22,1.86.32l0,.31L34.28,46a3.7,3.7,0,0,0,2.49,2.42,11.49,11.49,0,0,0,3,.45c1.44,0,2.89-.14,4.43-.23-1.79,1.17-3.8,1.17-5.78,1.53a4,4,0,0,0,1.93.81,18.36,18.36,0,0,0,3.69-.4c1.42-.3,2.8-.79,4.21-1.14.54-.14.8-.42.68-.94-.45-2-1-3.91-3.14-4.88a12.33,12.33,0,0,1-3-2.05,4.1,4.1,0,0,1-.15-5.63c.17,1.58-.27,3.34,1.35,4.47,1.72-1.35,1.7-1.32,3.5,0a9.52,9.52,0,0,0,1.95.83v-.63c0-6.2,0-12.4,0-18.6,0-.19,0-.6,0-.6l-.53-.43a17.67,17.67,0,0,0-3.65-2.21c-2.82-1.26-5.86-1.22-8.88-1.13h-.7c4.63-2,9.19-1.53,14,.44-.25-.49-.31-.78-.5-.95-3.36-3.14-7.59-3.11-11.81-3.2a16.71,16.71,0,0,1,12.13.19c-2.55-3-6-3.09-9.58-3.07a12.5,12.5,0,0,1,9.6.35c0-.7,0-1.28,0-1.87,0-.35,0-.62,0-.62l-.63-.16A26.15,26.15,0,0,0,41.25,8a20.49,20.49,0,0,0-6.54,2,8.77,8.77,0,0,1-6.87.17c-1.49-.6-2.91-1.37-4.36-2.07-.36-.17-.69-.39-1.06-.6-1.72,5.32-.57,10,2.38,14.26-2,2-4,3.83-5.83,5.81a23.18,23.18,0,0,0-4.26,6.93,40.43,40.43,0,0,1,11-7.67A39.34,39.34,0,0,0,23.37,31.15Zm7.06-5A2.14,2.14,0,0,0,30.66,25c-.39-2.44.51-4.27,2.47-5.08l-.93,2.77c3.18.59,6.3.94,8.35,3.61A15,15,0,0,1,43.3,32a4.12,4.12,0,0,0-3.5-1.71,6,6,0,0,0-3.68,1.46l-.57.55.41-.7c.32-.49.64-1,1-1.56a5,5,0,0,1-3.71-3c-2,1.48-2.66,3.61-3,6.07A7.47,7.47,0,0,1,30.43,26.18Z"/><path class="cls-1" d="M43.06,68.28c.37,1.45,1.51,1.79,2.66.78a.81.81,0,0,0,.21-1.14c-.82-1.73-1.55-3.51-2.33-5.3a5.18,5.18,0,0,0-.26.5A8.29,8.29,0,0,0,43.06,68.28Z"/><path class="cls-1" d="M43.59,72.83c-2.28-1.68-4-3.57-4-6.55a24.81,24.81,0,0,0-.18-2.86,6.72,6.72,0,0,0-1.33-3.5L36.2,61.1V57.48l-1,.4c0-.07,0-.09,0-.12,0-.3.06-.59.07-.89a5.91,5.91,0,0,0-1.72-4.72,2.58,2.58,0,0,0-2.67-.82,2.49,2.49,0,0,0-1.56,2.12,4.67,4.67,0,0,0-.15,1.06c0,.69,0,1.39,0,2.08a18.42,18.42,0,0,1-3.81-9.15l-.28-.1L22.4,50.8A27.9,27.9,0,0,1,22.33,39L19,41.45a17,17,0,0,1,1.34-6.1c.75-1.89,1.68-3.71,2.54-5.57-5.61,2.94-10.26,13.06-9.08,19.91.75-.82,1.46-1.58,2.17-2.34a38.94,38.94,0,0,0,1.83,14.26l2.07-3.88c.95,4.08,1.9,8,4.41,11.48A7.93,7.93,0,0,1,28,64.63c-.14.6-.27,1.2-.43,1.92.85-.54,1.55-1,2.3-1.45a4.83,4.83,0,0,1,6.66,1.63,8.74,8.74,0,0,1,1,1.72c.68,1.74,1.33,3.51,1.92,5.29a8.83,8.83,0,0,0,4.12,5.19c-.17-.63-.35-1.16-.45-1.7s-.13-1.1-.19-1.64c1.63,2.58,3.5,4.75,6.46,5.91v-11C47,70.33,44.92,70.59,43.59,72.83Z"/><path class="cls-1" d="M48.25,67.11l-1-.89c-.23.78-.41,1.42-.62,2.15h2.92c-.18-.76-.32-1.36-.51-2.14Z"/><path class="cls-1" d="M45.32,54.39v.33l.19-.27,1.15-1.55.66.54.64-.81.59.71.46-.27.59-1.77-4.28.33Z"/><rect class="cls-1" x="52.6" y="8.9" width="22.81" height="72.6" rx="0.58"/><path class="cls-2" d="M59.47,59.88h9a6.27,6.27,0,0,1,2.42.49l.54.23V56l-.53.21a6.64,6.64,0,0,1-2.43.5H61l10.48-6.38V45.26l-.53.21a6.87,6.87,0,0,1-2.43.45h-9.4a6.22,6.22,0,0,1-2.25-.45l-.53-.21v4.52l.52-.18a7,7,0,0,1,2.26-.46h7.36L56.29,55.56v5l.53-.2A7.45,7.45,0,0,1,59.47,59.88Z"/><path class="cls-2" d="M57.67,19.66a4,4,0,0,1,.94-.11h9.67v2A2.07,2.07,0,0,1,67.64,23l-.61.66h4.4V11.86H67l.67.67a1.76,1.76,0,0,1,.63,1.09V15.9H58.61a3.53,3.53,0,0,1-1.74-.43l-.58-.34v5.31L56.9,20A2.55,2.55,0,0,1,57.67,19.66Z"/><path class="cls-2" d="M57,42a2.62,2.62,0,0,0,1.34.53,13.67,13.67,0,0,0,2.18.13h6.7a14.74,14.74,0,0,0,2.13-.12,2.57,2.57,0,0,0,1.35-.53,2,2,0,0,0,.63-1.16,9.75,9.75,0,0,0,.1-1.57V29.55a9.62,9.62,0,0,0-.1-1.56,1.93,1.93,0,0,0-.63-1.14,2.75,2.75,0,0,0-1.35-.52,16.77,16.77,0,0,0-2.13-.11H66.1l.07.1c.29.38.61.82,1,1.37l1,1.49-1.7-.58a9.13,9.13,0,0,1-3.76-2.38H60.52a13.75,13.75,0,0,0-2.18.13,2.62,2.62,0,0,0-1.34.53A1.72,1.72,0,0,0,56.38,28a10.74,10.74,0,0,0-.09,1.53v9.77a11,11,0,0,0,.09,1.56A1.77,1.77,0,0,0,57,42ZM60.26,30.8a3.25,3.25,0,0,1,.08-.79.58.58,0,0,1,.18-.33A1,1,0,0,1,61,29.5a6.29,6.29,0,0,1,1-.07h3.82a7.72,7.72,0,0,1,1.11.07,1,1,0,0,1,.44.17.5.5,0,0,1,.14.3,6,6,0,0,1,0,.83v7.32a1.39,1.39,0,0,1-.33,1.06,2.19,2.19,0,0,1-1.41.3H61.94c-.91,0-1.24-.2-1.36-.32a1.44,1.44,0,0,1-.32-1Z"/><path class="cls-2" d="M61.12,22.38s1.51,4.69,5.53,5.65c-1.52-2.21-2.77-3-2.58-6.84C61.11,22.42,61.12,22.38,61.12,22.38Z"/><path class="cls-2" d="M71.16,63.67a1.68,1.68,0,0,0-1.06-.61A7.64,7.64,0,0,0,68.62,63H59.44a7.73,7.73,0,0,0-1.5.11,1.71,1.71,0,0,0-1.06.6,2.55,2.55,0,0,0-.49,1.27,14.66,14.66,0,0,0-.1,2v10l.51-.18a8,8,0,0,1,2.64-.49h6.07V70a4.11,4.11,0,0,1,.32-1.46L66,68H61.68l.42.6a2.05,2.05,0,0,1,.34.7,3,3,0,0,1,.09.68v2.53H59.27V68.22a4.51,4.51,0,0,1,.08-.93,1,1,0,0,1,.18-.43.63.63,0,0,1,.31-.17,3.62,3.62,0,0,1,.73-.06h6.67a3.82,3.82,0,0,1,.76.06.61.61,0,0,1,.31.16,1.16,1.16,0,0,1,.17.43,5.91,5.91,0,0,1,.06.94v5.72a2.48,2.48,0,0,1-.15.91,1.7,1.7,0,0,1-.48.68l-.74.67h4.56V66.9a14.76,14.76,0,0,0-.1-2A2.66,2.66,0,0,0,71.16,63.67Z"/></svg>