<svg xmlns="http://www.w3.org/2000/svg" width="13" height="13" fill="none" viewBox="0 0 13 13">
    <path fill="#E84A1B" d="M11.096 8.404c-.708-.708-1.55-1.232-2.47-1.55.985-.678 1.632-1.813 1.632-3.096C10.258 1.686 8.572 0 6.5 0S2.742 1.686 2.742 3.758c0 1.283.647 2.418 1.632 3.096-.92.318-1.762.842-2.47 1.55C.676 9.632 0 11.264 0 13h1.016c0-3.024 2.46-5.484 5.484-5.484s5.484 2.46 5.484 5.484H13c0-1.736-.676-3.368-1.904-4.596zM6.5 6.5c-1.512 0-2.742-1.23-2.742-2.742S4.988 1.016 6.5 1.016s2.742 1.23 2.742 2.742S8.012 6.5 6.5 6.5z"/>
</svg>
