<svg width="20" height="20" viewBox="0 0 20 20" fill="none" xmlns="http://www.w3.org/2000/svg">
<path d="M2 9.94438C1.72386 9.94438 1.5 10.1682 1.5 10.4444C1.5 10.7205 1.72386 10.9444 2 10.9444V9.94438ZM18 10.4444L18.3536 10.7979C18.4473 10.7042 18.5 10.577 18.5 10.4444C18.5 10.3118 18.4473 10.1846 18.3536 10.0908L18 10.4444ZM13.9091 5.64639C13.7138 5.45112 13.3973 5.45112 13.202 5.64639C13.0067 5.84165 13.0067 6.15823 13.202 6.35349L13.9091 5.64639ZM13.202 14.5353C13.0067 14.7305 13.0067 15.0471 13.202 15.2424C13.3973 15.4376 13.7138 15.4376 13.9091 15.2424L13.202 14.5353ZM2 10.9444H18V9.94438H2V10.9444ZM18.3536 10.0908L13.9091 5.64639L13.202 6.35349L17.6464 10.7979L18.3536 10.0908ZM17.6464 10.0908L13.202 14.5353L13.9091 15.2424L18.3536 10.7979L17.6464 10.0908Z" fill="#0E0E10"/>
</svg>
