<?xml version="1.0" encoding="utf-8"?>
<!-- Generator: Adobe Illustrator 25.3.0, SVG Export Plug-In . SVG Version: 6.00 Build 0)  -->
<svg version="1.1" id="Layer_1" xmlns="http://www.w3.org/2000/svg" xmlns:xlink="http://www.w3.org/1999/xlink" x="0px" y="0px"
	 viewBox="0 0 140 40" style="enable-background:new 0 0 140 40;" xml:space="preserve">
<style type="text/css">
	.st0{fill:#FFFFFF;}
	.st1{fill:#FF0000;}
</style>
<g>
	<g>
		<g>
			<g>
				<g>
					<path class="st0" d="M35.3,26.1c0.9-3.6,1.8-7.1,2.8-10.7c0.8-3,1.6-6,2.3-9h-2.3l0.2-0.8c0.3-1.3,0.9-4,0.9-4l0.1-0.5L47.2,1
						L47,1.8c0,0-1,3.7-1.6,6.2c0.2,0,0.3,0,0.4,0c1.1,0,2.1,0.2,2.9,0.8c1.6,1,2.5,3,2.3,4.9c-0.2,1.8-0.6,3.5-1.1,5.2
						c-0.3,1.1-0.6,2.3-0.8,3.4c0,0,0.1,0,0.3,0c0.1,0,0.3,0,0.4,0c0.1,0,0.2,0,0.3,0h0.5l0.9,3l-0.4,0.3c-0.7,0.5-1.6,0.8-2.6,0.8
						c-0.5,0-1.1-0.1-1.6-0.2c-1.1-0.3-1.8-0.7-2.3-1.4c-0.7-1-1-2.3-0.6-3.8c0.2-0.9,0.4-1.8,0.7-2.8c0.3-1.1,0.6-2.3,0.8-3.4
						c0.1-0.5-0.1-1.1-0.6-1.3c-0.1,0-0.2,0-0.3,0c-0.4,0-0.8,0.3-0.8,0.7c-0.6,2.3-1.2,4.5-1.8,6.7c-0.5,1.8-1,3.6-1.4,5.4
						l-0.1,0.4H40c-0.7,0.1-1.5,0.1-2.2,0.2c-0.6,0-1.2,0.1-1.8,0.1l-0.9,0L35.3,26.1z"/>
					<path class="st1" d="M46.5,1.6c0,0-1.2,4.7-1.8,7.1c0.4-0.1,0.9-0.1,1.3-0.1c0.9,0,1.8,0.2,2.5,0.7c1.4,0.9,2.2,2.7,2,4.3
						c-0.3,2.9-1.4,5.7-1.9,8.6c0.1,0.6,0.5,0.7,1,0.7c0.3,0,0.5,0,0.7,0c0.2,0.7,0.4,1.4,0.6,2c-0.7,0.5-1.5,0.7-2.3,0.7
						c-0.5,0-1-0.1-1.5-0.2c-0.7-0.2-1.5-0.5-2-1.1c-0.7-0.9-0.8-2.1-0.5-3.2c0.5-2.1,1-4.1,1.5-6.2c0.2-0.8-0.2-1.8-1-2
						c-0.1-0.1-0.3-0.1-0.4-0.1c-0.7,0-1.3,0.6-1.5,1.3c-1.1,4-2.1,8-3.2,12c-1.4,0.1-2.7,0.2-4.1,0.3c1.8-6.9,3.6-13.7,5.3-20.6
						c-0.8,0-1.5,0-2.3,0c0.3-1.3,0.9-4,0.9-4L46.5,1.6 M48.2,0.3h-1.7l-6.6,0.1h-1l-0.2,1c0,0-0.6,2.7-0.9,4L37.3,7H39
						c0.2,0,0.4,0,0.6,0c-0.7,2.7-1.4,5.5-2.1,8.2c-0.9,3.6-1.9,7.2-2.8,10.7l-0.5,1.8l1.8-0.1c0.6,0,1.2-0.1,1.8-0.1
						c0.7,0,1.5-0.1,2.2-0.2l0.9-0.1l0.2-0.9c0.5-1.8,1-3.6,1.4-5.4c0.6-2.2,1.2-4.4,1.8-6.6v-0.1v-0.1c0-0.1,0.1-0.2,0.2-0.2l0,0
						l0,0c0.1,0,0.2,0.3,0.2,0.5l0,0l0,0c-0.3,1.1-0.5,2.3-0.8,3.4c-0.2,0.9-0.4,1.8-0.7,2.8c-0.4,1.6-0.1,3.2,0.8,4.3
						c0.6,0.8,1.5,1.3,2.7,1.6c0.6,0.2,1.2,0.2,1.8,0.2c1.1,0,2.2-0.3,3-0.9l0.8-0.6L52,24.3c-0.2-0.7-0.4-1.4-0.6-2l-0.3-1h-1
						c-0.1,0-0.1,0-0.2,0c0.2-0.9,0.4-1.7,0.6-2.6c0.4-1.7,0.9-3.4,1.1-5.2c0.2-2.2-0.8-4.4-2.6-5.6c-0.8-0.5-1.7-0.8-2.8-0.8
						c0.6-2.4,1.4-5.4,1.4-5.4L48.2,0.3L48.2,0.3z"/>
				</g>
			</g>
			<g>
				<g>
					<path class="st0" d="M110.5,1.8h0.5c0.9-0.1,1.8-0.1,2.7-0.2l2-0.2c0,0-0.2,1-0.2,1.1c0.5-0.1,1.1-0.2,1.6-0.2s1,0,1.5,0.1
						l0.7,0.1l-0.1,0.7c-0.1,0.7-0.3,1.4-0.4,2.1c-0.1,0.5-0.4,2.1-0.4,2.1h-0.6c-0.3,0-0.6,0-0.9,0c-1.1,0-1.9,0.2-2.5,0.6
						c-0.7,2.5-1.4,5-2.1,7.4c-0.4,1.4-0.7,2.8-1.1,4.2L111,20h-0.4c-0.7,0.1-1.5,0.1-2.2,0.2c-0.6,0.1-1.3,0.1-1.9,0.2l-0.9,0.1
						L110.5,1.8z"/>
					<path class="st1" d="M114.9,2.1c-0.1,0.4-0.1,0.9-0.2,1.3c0.8-0.3,1.6-0.4,2.5-0.4c0.5,0,1,0,1.4,0.1c-0.2,1.2-0.5,2.4-0.7,3.6
						c-0.3,0-0.6,0-0.9,0c-1.1,0-2.2,0.2-3.1,0.9c-1.2,3.9-2.2,7.9-3.3,11.8c-1.4,0.1-2.8,0.2-4.1,0.4c1.5-5.8,3.1-11.6,4.6-17.4
						C112.3,2.3,113.6,2.2,114.9,2.1 M114.4,2.7c-0.8,0.1-1.5,0.1-2.2,0.2c0.5,0.1,1.1,0.2,1.6,0.3c-0.1,0.6-0.2,1.2-0.3,1.7
						c1.3-0.7,2.7-1.1,4.2-1.1c0,0.5,0,1.1,0.1,1.6c0.2-0.6,0.3-1.3,0.4-1.9c-0.3,0-0.5-0.1-0.8-0.1c-1.1,0-2.1,0.3-3.1,0.7
						C114.3,3.6,114.3,3.1,114.4,2.7 M113.3,7.2c-0.7,0-0.7,0.7-0.8,1.2c-0.9,3.3-1.9,6.6-2.7,9.9l0,0c0.7,0,0.7-0.7,0.9-1.2
						C111.5,13.8,112.5,10.5,113.3,7.2 M116.4,0.7l-1.7,0.1c-0.4,0-0.8,0.1-1.2,0.1c-0.9,0.1-1.8,0.1-2.7,0.2L110,1.2l-0.2,0.9
						c-0.7,2.7-1.4,5.3-2.1,8c-0.8,3.1-1.7,6.2-2.5,9.4l-0.5,1.8l1.9-0.2c0.6-0.1,1.2-0.1,1.9-0.2c0.8-0.1,1.5-0.1,2.3-0.2l0.9-0.1
						l0.2-0.9c0.4-1.4,0.8-2.8,1.1-4.2c0.6-2.4,1.3-4.8,2-7.2c0.5-0.3,1.1-0.4,2-0.4c0.3,0,0.5,0,0.8,0L119,8l0.2-1.1
						c0.1-0.5,0.2-1,0.3-1.5c0.1-0.7,0.3-1.4,0.4-2.1l0.3-1.3l-1.3-0.2c-0.6-0.1-1.1-0.1-1.6-0.1c-0.3,0-0.6,0-0.8,0L116.4,0.7
						L116.4,0.7z"/>
				</g>
			</g>
			<g>
				<g>
					<path class="st0" d="M100.1,21.5c-1.8,0-3.2-0.4-4.3-1.2c-1.5-1.2-2.3-2.9-2.3-4.6c0-1.6,0.6-3.2,1.9-4.4
						c-0.6-1.4-0.7-3-0.2-4.5c0.5-1.7,2.1-3.1,4.1-3.7c0.8-0.2,1.6-0.3,2.4-0.3c1.6,0,3.2,0.4,4.6,0.7l0.6,0.2l-0.1,0.6
						c-0.1,0.6-0.3,1.3-0.4,1.9S106.1,7.4,106,8l-0.1,0.7l-0.7-0.2c-1.1-0.3-2.3-0.7-3.6-0.7c-0.1,0-0.3,0-0.4,0
						c-1,0.1-1,0.4-1.1,0.8c0,0.3,0.2,0.5,0.5,0.6c0.4,0.1,0.8,0.2,1.2,0.2c0.6,0,1.2-0.1,1.8-0.2l1.3-0.2l-0.2,0.9
						c-0.2,0.7-0.3,1.4-0.4,2.1c-0.1,0.5-0.5,2.1-0.5,2.1h-0.5c-0.6,0-1.1,0.1-1.7,0.1c-0.8,0-1.5,0.1-2.3,0.2
						c-0.4,0-0.6,0.4-0.6,0.5c-0.1,0.4-0.1,0.7,0.1,1s0.6,0.4,1.1,0.4c0.1,0,0.3,0,0.4,0c0.8-0.1,1.7-0.4,2.6-1l0.6-0.4l0.3,0.6
						c0.3,0.6,0.6,1.1,0.9,1.7c0.3,0.5,0.5,1,0.8,1.5l0.2,0.4l-0.3,0.3c-1.1,1.3-2.9,2-5,2C100.4,21.5,100.2,21.5,100.1,21.5z"/>
					<path class="st1" d="M101.7,3.4c1.5,0,3,0.3,4.4,0.7c-0.3,1.2-0.5,2.5-0.8,3.7c-1.2-0.4-2.5-0.7-3.7-0.7c-0.2,0-0.3,0-0.5,0
						c-0.7,0-1.6,0.2-1.7,1.4l0,0c0,0.6,0.4,1.1,0.9,1.3c0.5,0.1,1,0.2,1.4,0.2c0.8,0,1.5-0.1,2.2-0.2c-0.3,1.2-0.5,2.5-0.8,3.7
						c-1.3,0.1-2.6,0.1-3.9,0.3c-1.2,0.1-1.7,1.7-1,2.6c0.4,0.5,1,0.6,1.6,0.6c0.2,0,0.3,0,0.5,0c1.1-0.1,2-0.6,2.9-1.1
						c0.6,1,1.1,2.1,1.7,3.2c-1.1,1.3-2.9,1.8-4.6,1.8c-0.1,0-0.2,0-0.3,0c-1.4,0-2.8-0.3-3.9-1.1c-1.2-1-2.1-2.5-2.1-4.1
						s0.8-3.2,2-4.3c-0.6-1.4-0.8-3-0.3-4.4c0.5-1.7,2-2.8,3.7-3.3C100.1,3.5,100.9,3.4,101.7,3.4 M98.1,4.9c1-0.5,2.3-0.7,3.5-0.7
						c1.1,0,2.3,0.2,3.4,0.5c0,0.6,0.1,1.3,0.1,1.9c0.2-0.8,0.3-1.5,0.4-2.3c-1.1-0.3-2.3-0.5-3.5-0.5C100.7,3.8,99.3,4.1,98.1,4.9
						 M101.5,10.9c0.5,0,1,0,1.4-0.1c0,0.6,0.1,1.2,0.1,1.8c0.2-0.8,0.3-1.5,0.5-2.3c-0.6,0-1.3,0.1-2,0.1c-0.5,0-1.1-0.1-1.6-0.3
						c-1.4-0.6-0.9-2.4-0.8-2.6c-0.6,0.9-0.5,2.3,0.5,2.9C100.2,10.8,100.8,10.9,101.5,10.9 M95.5,12.8c0.6-0.3,1.2-0.7,1.8-1
						c-0.1-0.2-0.3-0.3-0.4-0.5C96.4,11.8,95.9,12.2,95.5,12.8 M100.3,18.2c1.4,0,2.5-0.8,2.5-0.8l0.7,0.7l-0.7-1.2
						c-1,0.6-1.9,0.9-2.7,0.9c-1.4,0-2.4-0.8-2.5-1.3c0.2,0.8,0.9,1.6,2.4,1.7C100.2,18.2,100.2,18.2,100.3,18.2 M101.7,2.1
						L101.7,2.1c-0.9,0-1.8,0.1-2.6,0.4c-2.3,0.6-4,2.2-4.6,4.2C94,8,94,9.6,94.6,11.1c-1.1,1.3-1.8,2.9-1.7,4.6
						c0,1.9,0.9,3.7,2.5,5.1l0,0l0,0c1.2,0.9,2.8,1.4,4.7,1.4c0.1,0,0.3,0,0.4,0c2.3,0,4.3-0.8,5.5-2.3l0.6-0.7l-0.4-0.8
						c-0.3-0.5-0.5-1-0.8-1.4c-0.3-0.6-0.6-1.2-0.9-1.7l-0.3-0.5h0.1l0.2-0.9c0.1-0.5,0.2-1.1,0.3-1.6c0.1-0.7,0.3-1.4,0.5-2.1
						l0.2-0.8l0.8,0.2l0.3-1.4c0.1-0.6,0.3-1.2,0.4-1.8s0.3-1.3,0.4-1.9l0.2-1.2L106.4,3C105,2.4,103.3,2.1,101.7,2.1L101.7,2.1
						L101.7,2.1z M100.7,8.5c0.1,0,0.2-0.1,0.4-0.1c0.1,0,0.2,0,0.4,0c0.5,0,1,0.1,1.5,0.2c-0.4,0.1-0.9,0.1-1.3,0.1
						C101.4,8.7,101.1,8.6,100.7,8.5L100.7,8.5L100.7,8.5L100.7,8.5z M99.9,15.7c-0.3,0-0.5-0.1-0.6-0.1l0,0l0,0c0,0,0-0.1,0-0.2
						c0-0.1,0.1-0.2,0.1-0.2c0.7-0.1,1.5-0.1,2.2-0.2c0.2,0,0.5,0,0.7,0c-0.8,0.5-1.5,0.7-2.1,0.8C100.2,15.6,100,15.7,99.9,15.7
						L99.9,15.7z"/>
				</g>
			</g>
			<g>
				<g>
					<path class="st0" d="M65.5,23.3c0.8-2.9,1.5-5.7,2.3-8.6s1.6-5.8,2.3-8.7l0.1-0.4h0.5c1.3-0.1,2.6-0.2,3.9-0.3h0.9l-0.2,1.1
						c0.5-0.1,1-0.2,1.6-0.2c0.5,0,1,0,1.6,0.1l0.7,0.1L79,7c-0.2,1.2-0.5,2.4-0.7,3.6l-0.1,0.6l-0.6-0.1c-0.3,0-0.6,0-0.9,0
						c-1.1,0-1.9,0.2-2.5,0.6c-0.1,0.2-0.2,0.4-0.2,0.7c0,0.2-0.1,0.3-0.1,0.5c-0.9,3.5-1.9,7-2.9,10.4l-0.1,0.4h-0.5
						c-0.7,0.1-1.5,0.1-2.2,0.2C67.6,24,67,24,66.3,24.1l-0.9,0.1L65.5,23.3z"/>
					<path class="st1" d="M74.7,5.9c-0.1,0.4-0.2,0.9-0.3,1.3c0.8-0.3,1.6-0.4,2.5-0.4c0.5,0,1,0,1.5,0.1c-0.2,1.2-0.5,2.4-0.7,3.6
						c-0.3,0-0.6,0-0.9,0c-1.1,0-2.2,0.2-3,0.8c-0.3,0.4-0.3,0.9-0.5,1.4c-0.9,3.5-1.9,7-2.9,10.5c-1.4,0.1-2.7,0.2-4.1,0.3
						c1.5-5.8,3.1-11.6,4.6-17.3C72.1,6.1,73.4,5.9,74.7,5.9 M74.2,6.4c-0.8,0-1.5,0.1-2.2,0.2c0.5,0.1,1.1,0.2,1.6,0.3
						c-0.1,0.6-0.2,1.2-0.3,1.8c1.3-0.6,2.7-1.1,4.2-1.1c0,0.6,0,1.1,0.1,1.7c0.2-0.7,0.3-1.3,0.4-2c-0.3-0.1-0.6-0.1-1-0.1
						c-1,0-2,0.3-3,0.7C74,7.4,74.1,6.9,74.2,6.4 M73,11c-0.1,0-0.4,0.1-0.6,0.1c-0.9,3.6-2,7.3-2.9,10.9h0.1c0.1,0,0.3,0,0.4,0h0.1
						C71.1,18.4,72.1,14.7,73,11 M76.4,4.5l-1.7,0.1c-1.3,0.1-2.7,0.2-3.9,0.3L69.9,5l-0.3,0.9c-0.8,2.9-1.5,5.8-2.3,8.7
						s-1.5,5.7-2.3,8.6L64.4,25l1.8-0.1c0.6,0,1.3-0.1,1.9-0.2c0.7-0.1,1.5-0.1,2.2-0.2l0.9-0.1l0.2-0.9c1-3.5,1.9-7,2.9-10.5
						c0-0.1,0.1-0.3,0.1-0.5c0-0.1,0.1-0.3,0.1-0.4c0.5-0.3,1.2-0.4,2-0.4c0.3,0,0.5,0,0.8,0l1.2,0.1l0.2-1.1
						c0.3-1.2,0.5-2.4,0.7-3.6l0.3-1.3l-1.3-0.2c-0.6-0.1-1.1-0.1-1.7-0.1c-0.3,0-0.5,0-0.8,0L76.4,4.5L76.4,4.5z"/>
				</g>
			</g>
			<g>
				<g>
					<path class="st0" d="M57.1,25c-1.2,0-2.3-0.2-3.3-0.7c-1.9-0.9-3.3-2.9-3.4-5.1c-0.3-3,1.1-5.8,3.7-7.2l1.2-5.2h0.5
						c0.5,0,0.9-0.1,1.4-0.1c1-0.1,2.1-0.1,3.2-0.1c0.4,0,0.8,0,1.3,0c1.5,0.1,3,1,3.7,2.5c1.1,2.1,0.5,4.6,0.1,6.4
						c-0.2,0.7-0.4,1.5-0.6,2.1c-0.3,1-0.7,2-0.7,3c0,0,0.1,0,0.2,0c0.2,0,0.4,0,0.6-0.1c0.1,0,0.2,0,0.3,0h0.5L66,21
						c0.3,0.7,0.7,2.1,0.7,2.1l0.2,0.5L66.3,24c-0.1,0-1.5,0.9-3.1,0.9c-0.9,0-1.7-0.2-2.3-0.7C59.6,24.7,58.3,25,57.1,25z
						 M58.8,16.3c-0.9,0-1.6,0.1-2.2,0.5c-0.8,0.4-1.2,1.4-1,2.2c0.1,0.5,0.7,0.7,1.1,0.7h0.1c0.5,0,1.8-0.1,2.2-0.9
						c0.3-0.7,0.5-1.5,0.6-2.4C59.4,16.4,59.1,16.3,58.8,16.3z"/>
					<path class="st1" d="M60.4,7.3c0.4,0,0.8,0,1.2,0c1.4,0.1,2.6,1,3.2,2.1c1,1.8,0.5,4,0,6c-0.4,1.8-1.3,3.5-1.4,5.4
						c0,0.5,0.4,0.6,0.8,0.6c0.3,0,0.7-0.1,0.9-0.1c0.2,0.7,0.7,2.1,0.7,2.1s-1.3,0.8-2.8,0.8c-0.7,0-1.5-0.2-2.2-0.9
						c-1.2,0.6-2.5,0.9-3.9,0.9c-1,0-2.1-0.2-3-0.6c-1.7-0.8-2.9-2.6-3-4.5c-0.3-2.8,1.1-5.7,4-6.9c1.3-0.5,2.7-0.7,4-0.7
						c0.7,0,1.4,0,2.1,0c-0.3-0.4-1.1-0.7-1.8-0.7c-0.2,0-0.3,0-0.5,0c-1.3,0-2.7,0.2-4,0.4c0.3-1.3,0.6-2.6,0.9-3.8
						C57.3,7.4,58.8,7.3,60.4,7.3 M57.1,8.4c1.1,0,2.3-0.2,3.4-0.2c0.4,0,0.9,0,1.3,0.1c1.5,0.3,2.4,1.8,2.4,3.2
						c0.1,2.8-0.9,5.6-1.7,8.2c-0.2,0.7-0.3,1.5,0.2,2c0.4,0.5,1.1,0.4,1.7,0.5c0.2,0.2,0.4,0.4,0.5,0.6c-0.1-0.3-0.2-0.7-0.2-1
						c-0.1,0-0.1,0-0.2,0s-0.2,0-0.3,0c-0.4,0-0.8,0-1.1-0.3c-0.4-0.5-0.2-1.1-0.1-1.7c0.7-2.9,2-5.7,1.7-8.8
						c-0.1-1.6-1.3-3-2.9-3.3c-0.4,0-0.8-0.1-1.3-0.1c-0.8,0-1.6,0.1-2.5,0.1c-0.6,0.1-1.4-0.1-1.8,0.5C56.6,8.4,56.9,8.4,57.1,8.4
						 M51.6,17.9c0.5-1.6,1.4-3.1,2.9-4c1.5-0.8,3.1-1.1,4.7-1.1c0.8,0,1.6,0.1,2.3,0.2c0.1-0.2,0.1-0.4,0.1-0.5
						c-0.8-0.1-1.6-0.2-2.4-0.2c-1.4,0-2.8,0.2-4.1,0.7C53.2,13.8,51.6,15.8,51.6,17.9 M56.8,20.3L56.8,20.3L56.8,20.3
						c1.1,0,2.3-0.3,2.8-1.3s0.6-2.1,0.8-3.2c-0.5-0.1-1.1-0.1-1.7-0.1c-0.9,0-1.7,0.1-2.5,0.5c-1,0.6-1.6,1.8-1.3,3
						C55.3,19.9,56.1,20.3,56.8,20.3 M54.5,17.9c0,0-1.4,3.1,1.6,3.6c0.2,0,0.4,0,0.7,0c0.8,0,1.6-0.2,2.3-0.4
						c0.1-0.1,0.2-0.4,0.2-0.6c-0.7,0.2-1.6,0.5-2.4,0.5c-0.5,0-0.9-0.1-1.3-0.3C54.5,20.3,54.3,18.9,54.5,17.9 M60.4,6L60.4,6
						c-1.1,0-2.2,0.1-3.3,0.1c-0.5,0-0.9,0.1-1.4,0.1l-1,0.1l-0.2,1c-0.2,0.9-0.4,1.7-0.6,2.6l-0.3,1.3l-0.1,0.5
						c-2.7,1.6-4.1,4.5-3.8,7.7c0.2,2.4,1.6,4.6,3.8,5.6c1.1,0.5,2.3,0.8,3.5,0.8s2.5-0.2,3.7-0.7c0.7,0.4,1.5,0.7,2.4,0.7
						c1.8,0,3.3-0.9,3.5-1l0.9-0.5l-0.3-1c0,0-0.5-1.4-0.7-2.1l-0.3-1l-1,0.1c-0.1,0-0.1,0-0.2,0c0.1-0.7,0.4-1.4,0.6-2.1
						s0.5-1.5,0.6-2.2c0.4-1.9,1.1-4.5-0.2-6.8c-0.9-1.7-2.5-2.8-4.3-2.8C61.3,6,60.8,6,60.4,6L60.4,6z M56.8,19
						c-0.3,0-0.5-0.1-0.5-0.2c-0.2-0.5,0.1-1.2,0.6-1.5c0.5-0.2,1.1-0.4,1.9-0.4h0.1c-0.1,0.5-0.2,1-0.4,1.5
						C58.3,18.9,57.6,19,57,19l0,0H56.8L56.8,19L56.8,19z"/>
				</g>
			</g>
			<g>
				<g>
					<path class="st0" d="M29.9,27.8c-1.6,0-3-0.3-4.3-0.9c-1.6-0.7-3-2.2-3.6-4c-0.8-2.3-0.6-5,0.5-7.5c1.5-3.5,5.4-6,9.6-6
						c1.8,0,3.5,0.5,4.9,1.3l0.4,0.3l-0.1,0.5c-0.4,1.4-0.7,2.6-1.1,3.9L36,16.2l-0.7-0.5c-1.1-0.7-2.4-1.2-3.6-1.2
						c-0.5,0-1.1,0.1-1.5,0.3c-2.3,0.8-3.5,3.4-3.4,5.4c0,1,0.5,2.1,1.6,2.5c0.4,0.1,0.9,0.2,1.4,0.2c0.7,0,1.4-0.1,2.3-0.4
						c0.5-0.1,0.9-0.5,1.2-0.9l0.7-0.8l0.4,1c0.2,0.5,0.5,1.1,0.8,1.6c0.3,0.7,0.7,1.4,1,2.1l0.2,0.4l-0.3,0.3
						c-0.7,0.7-1.6,0.9-2.4,1.1c-0.2,0-0.4,0.1-0.5,0.1C32,27.7,30.9,27.8,29.9,27.8z"/>
					<path class="st1" d="M32.1,10c1.6,0,3.2,0.4,4.5,1.2c-0.3,1.2-0.7,2.5-1.1,3.8c-1.2-0.7-2.5-1.3-3.9-1.3
						c-0.6,0-1.2,0.1-1.8,0.3c-2.5,0.8-3.9,3.5-3.8,6c0,1.3,0.7,2.6,2,3.1c0.5,0.2,1.1,0.3,1.7,0.3c0.8,0,1.7-0.2,2.5-0.4
						c0.6-0.2,1.1-0.6,1.5-1.1c0.5,1.2,1.2,2.4,1.7,3.6c-0.7,0.7-1.7,0.8-2.6,1.1c-1,0.3-2,0.4-2.9,0.4c-1.4,0-2.8-0.3-4-0.9
						c-1.5-0.7-2.7-2-3.2-3.6c-0.8-2.3-0.5-4.8,0.5-7C24.5,12.2,28.4,10,32.1,10 M25.7,25.8c-1-0.8-1.9-1.8-2.3-3.1
						c-1.2-3.7,0.3-8,3.5-10.2c1.4-1,3.1-1.4,4.9-1.4c1.2,0,2.4,0.2,3.6,0.6c0,0.7,0,1.4,0,2.1c0.2-0.8,0.4-1.6,0.6-2.4
						c-1.3-0.7-2.7-1-4.1-1c-3.1,0-6.2,1.6-7.9,4.2c-1.3,2.2-1.9,4.9-1.2,7.4C23.3,23.6,24.3,25,25.7,25.8 M25.7,18.3
						c-0.3,1.1-0.5,2.3-0.1,3.3c0.4,1.3,1.5,2.2,2.7,2.6c0.5,0.2,1,0.2,1.5,0.2c1.2,0,2.3-0.3,3.4-0.7c0.5,0.7,1.6,2.1,1.6,2.1
						s-0.8-2-1.3-2.9c-1.2,0.7-2.6,1-3.9,1c-0.3,0-0.5,0-0.8,0c-1.3-0.1-2.5-1-2.9-2.3C25.5,20.6,25.7,19.4,25.7,18.3 M32.1,8.7
						L32.1,8.7c-4.4,0-8.6,2.6-10.2,6.4c-1.1,2.6-1.3,5.5-0.5,8c0.6,1.9,2.1,3.6,3.9,4.4c1.3,0.6,2.9,1,4.5,1c1.1,0,2.2-0.1,3.3-0.4
						c0.2-0.1,0.4-0.1,0.5-0.1c0.8-0.2,1.9-0.5,2.7-1.3L37,26l-0.3-0.8c-0.3-0.8-0.6-1.5-1-2.1c-0.3-0.5-0.5-1-0.7-1.5l-0.8-2
						l-1.4,1.6c-0.3,0.4-0.6,0.6-0.8,0.7c-0.9,0.2-1.6,0.3-2.2,0.3c-0.5,0-0.9-0.1-1.2-0.2c-0.7-0.3-1.1-1.2-1.1-1.9
						c-0.1-1.8,0.9-4.1,2.9-4.8c0.4-0.2,0.9-0.2,1.3-0.2c1,0,2.2,0.4,3.2,1.1l1.5,1l0.5-1.7c0.4-1.4,0.8-2.8,1.1-3.9l0.2-0.9
						l-0.8-0.5C35.8,9.2,34,8.7,32.1,8.7L32.1,8.7z"/>
				</g>
			</g>
		</g>
		<g>
			<g>
				<g>
					<path class="st0" d="M83.9,39c-3.3,0-6.6-1.8-8.2-4.7c-0.4-0.7-0.7-1.4-0.9-2.1c-7.7,0.3-15.5,0.7-23.2,1l-1.1,0.1l0.5-1
						c0.3-0.7,0.7-1.3,1.1-1.9c-4.4,0.1-8.7,0.3-13.1,0.4c-5.7,0.2-11.6,0.4-17.4,0.6l-0.1-1.3c13.3-1.9,26.6-3.7,39.8-5.5l1.3-0.2
						L62,25.5c-0.2,0.4-0.5,0.9-0.7,1.3c-0.1,0.2-0.2,0.4-0.3,0.6l6-0.5c3.9-0.3,7.8-0.7,11.7-1l0.7-0.1v0.7c0,2.2,0.1,4.5,1.6,6
						c0.7,0.7,1.7,1.1,2.7,1.1l0,0c0.8,0,1.5-0.2,2.1-0.6c1.3-0.9,1.6-2.9,0.8-4.2c-0.7-1.1-2-1.9-3.9-2.5c-0.6-0.2-1.3-0.3-2-0.4
						c-0.4,0-0.8-0.1-1.3-0.2l-1-0.2l0.6-0.8c0.6-0.8,1.2-1.6,1.8-2.3c0.2-0.3,0.5-0.6,0.7-0.9c-1-0.4-2.1-1.1-2.9-2.3
						c-1.1-1.5-1.5-3.5-1.3-6.2c0.4-3,1.9-5.6,4.3-7c1.4-0.9,3.2-1.3,5.2-1.3c0.6,0,1.2,0,1.7,0.1c1.5-1,3.3-1.5,5.2-1.5
						c0.3,0,0.7,0,1,0.1l0.7,0.1l-0.1,0.7C95,5.1,94.9,6,94.7,6.8c-0.1,0.4-0.2,0.8-0.2,1.1l-0.1,0.5c0,0-1,0-1.3,0
						c1.5,3.3,0.9,7.5-1.5,10.3l-0.9,1c-0.9,1-1.8,2.1-2.8,3.2c2,1.2,3.4,2.8,3.9,4.6c0.8,2.6,0.5,5.4-0.8,7.5
						c-1.1,1.8-2.9,3.2-5,3.7C85.3,39,84.6,39,83.9,39z M86.4,9.7c-0.2,0-0.5,0-0.7,0.1c-2.3,0.7-3.8,3.3-3.3,5.5
						c0.2,0.9,1.1,1.6,2,1.6c0.1,0,0.2,0,0.2,0c1.2-0.1,2.3-0.9,3.1-2c0.8-1.1,1-2.5,0.7-3.7C88.3,10.4,87.4,9.7,86.4,9.7z"/>
					<path class="st1" d="M93.5,4.1c0.3,0,0.6,0,1,0.1c-0.1,1.2-0.4,2.5-0.6,3.7c-0.6,0-1.2,0-1.8,0.1c2,3.2,1.5,7.7-1,10.5
						c-1.4,1.6-2.8,3.2-4.2,4.7c1.9,1,3.7,2.5,4.4,4.6c0.7,2.3,0.5,4.9-0.8,7c-1,1.7-2.7,2.9-4.6,3.4c-0.6,0.2-1.3,0.2-2,0.2
						c-3.1,0-6.1-1.7-7.7-4.3c-0.4-0.8-0.7-1.6-0.9-2.5c-7.9,0.3-15.8,0.7-23.8,1c0.5-1,1.1-1.9,1.6-2.9
						c-10.6,0.3-21.2,0.8-31.7,1.1c13.3-1.9,26.6-3.7,39.8-5.5c-0.5,1-1.1,2-1.7,3c6.3-0.6,12.6-1.1,19-1.7c0,2.2,0.1,4.8,1.8,6.4
						c0.8,0.9,2,1.3,3.2,1.3c0.9,0,1.7-0.2,2.5-0.7c1.6-1.1,2-3.5,0.9-5.1c-1-1.5-2.6-2.3-4.3-2.8c-1.1-0.4-2.2-0.4-3.4-0.6
						c1-1.4,2.1-2.6,3.1-3.9c-1.4-0.4-2.7-1.1-3.5-2.3c-1.2-1.6-1.3-3.8-1.2-5.8c0.3-2.6,1.7-5.1,4-6.5c1.4-0.9,3.1-1.2,4.8-1.2
						c0.6,0,1.3,0,1.9,0.1C90,4.6,91.7,4.1,93.5,4.1 M92.1,7.5c0.3,0,0.7,0,1,0c0.3-1,0.5-1.9,0.8-2.9c-0.1,0-0.2,0-0.3,0
						c-0.8,0-1.6,0.1-2.4,0.3C91.9,5,92.6,5,93.3,5c-0.2,0.7-0.4,1.4-0.5,2.1C92.6,7.2,92.4,7.4,92.1,7.5 M78.2,15.3
						c0.2-1,0.4-2.1,0.8-3.1c0.7-1.6,1.5-3.3,3-4.3c1.4-1,3.1-1.3,4.8-1.3c0.6,0,1.2,0,1.8,0.1c0-0.1,0.1-0.3,0.2-0.4
						C88,6.1,87.2,6,86.4,6c-1.9,0-3.8,0.5-5.3,1.8C79,9.6,78.2,12.5,78.2,15.3 M92.3,15.3c0.8-2.6,0.6-5.6-1.2-7.7
						C91,7.7,90.8,7.8,90.7,8c0.6,0.9,1.1,2,1.4,3.1C92.4,12.5,92.3,13.9,92.3,15.3 M84.4,17.6c0.1,0,0.2,0,0.3,0
						c2.9-0.3,5.1-3.6,4.4-6.4C88.8,9.9,87.6,9,86.4,9c-0.3,0-0.6,0-0.9,0.2c-2.5,0.8-4.4,3.6-3.7,6.2
						C82.1,16.6,83.2,17.6,84.4,17.6 M82.5,10.6c-1,1.2-1.8,2.6-1.8,4.2c0,1.4,0.8,2.7,2.1,3.3c0.5,0.2,1,0.3,1.5,0.3
						c0.8,0,1.5-0.2,2.2-0.6c-0.6,0.1-1.2,0.2-1.8,0.2c-0.5,0-1-0.1-1.5-0.3c-1.1-0.4-2-1.5-2.1-2.7C80.9,13.4,81.7,12,82.5,10.6
						 M81.6,23.3l2-1.8L83,21.4L81.6,23.3 M88.9,35.7c1.9-2,2.8-5.1,1.9-7.7c-0.7-2.1-2.5-3.8-4.6-4.5C86.1,23.7,86,24,86,24.1
						c2,1,3.9,2.6,4.4,4.8C91,31.3,90.1,33.7,88.9,35.7 M60.4,25.8c-3.7,0.5-7.4,1-11.1,1.5c-2.8,0.4-9.9,1.4-12.7,2
						c6.2-0.7,16.5-2.1,22.7-2.7c-0.6,1-1.2,2-1.8,2.9c6.7-0.6,13.3-1.2,20-1.7c-0.1,1.7,0.2,3.4,1.2,4.8c0.8,1.2,2.1,2.2,3.6,2.5
						c0.3,0,0.6,0.1,0.9,0.1c1,0,1.9-0.2,2.7-0.8c-0.7,0.2-1.6,0.4-2.5,0.4c-0.2,0-0.3,0-0.5,0c-1.3-0.1-2.5-0.8-3.3-1.8
						c-1.2-1.6-1.6-3.6-1.6-5.6c-6.4,0.5-12.8,1-19.2,1.5C59.3,27.9,59.9,26.9,60.4,25.8 M93.5,2.8c-1.9,0-3.7,0.5-5.3,1.5
						c-0.5-0.1-1.1-0.1-1.6-0.1c-2.1,0-3.9,0.5-5.5,1.4c-2.5,1.5-4.2,4.3-4.6,7.5c-0.3,2.8,0.2,5,1.4,6.7c0.6,0.8,1.4,1.6,2.4,2.1
						c-0.1,0.1-0.1,0.2-0.2,0.3c-0.6,0.7-1.2,1.5-1.8,2.3l-0.7,1c-3.6,0.3-7.2,0.6-10.8,1c-1.6,0.1-3.2,0.3-4.8,0.4
						c0.2-0.3,0.3-0.6,0.5-0.8l1.2-2.3L61.1,24c-15.5,2.1-28.2,3.9-39.8,5.5l0.2,2.5c5.8-0.2,11.7-0.3,17.4-0.5
						c3.9-0.1,8-0.3,12-0.4c-0.2,0.3-0.3,0.6-0.5,0.9l-1,2l2.2-0.1c7.2-0.3,15-0.7,22.7-1c0.2,0.6,0.4,1.2,0.8,1.8
						c1.8,3,5.2,5,8.8,5c0.8,0,1.5-0.1,2.3-0.3c2.3-0.5,4.3-2,5.4-4c1.4-2.3,1.7-5.3,0.9-8c-0.6-1.8-1.8-3.3-3.6-4.5
						c0.8-0.9,1.5-1.7,2.3-2.6l0.9-1c2.4-2.8,3.1-6.8,2-10.1H95l0.2-1c0.1-0.4,0.1-0.8,0.2-1.1c0.2-0.9,0.3-1.7,0.4-2.7L95.9,3
						l-1.3-0.1C94.3,2.8,93.9,2.8,93.5,2.8L93.5,2.8z M84.4,16.3c-0.6,0-1.3-0.5-1.4-1.1c-0.5-1.9,0.9-4.1,2.8-4.7l0,0l0,0
						c0.1-0.1,0.3-0.1,0.5-0.1c0.7,0,1.3,0.5,1.5,1.1c0.3,1,0,2.2-0.6,3.1c-0.7,1-1.6,1.6-2.6,1.7C84.5,16.3,84.5,16.3,84.4,16.3
						L84.4,16.3z M83.6,33c-0.9,0-1.7-0.3-2.2-0.9c-1.3-1.3-1.5-3.4-1.4-5.5v-0.1c0.2,0,0.4,0,0.5,0.1c0.7,0.1,1.3,0.2,1.9,0.3
						c1.8,0.6,3,1.3,3.6,2.2c0.7,1,0.4,2.7-0.6,3.3C84.8,32.9,84.2,33,83.6,33L83.6,33z"/>
				</g>
			</g>
			<g>
				<g>
					<path class="st0" d="M91.7,30.4c0.2-1.6,0-3.2-0.6-4.6L90.7,25l0.9-0.1c3.2-0.3,6.4-0.7,9.6-1c3.5-0.4,7-0.8,10.5-1.1l0.9-0.1
						l-0.2,0.9c-0.3,1.1-0.5,2.1-0.8,3.2c-0.3,1-0.5,2-0.8,3.1l-0.1,0.5h-0.5c-3.5,0.2-7.1,0.3-10.6,0.5c-2.4,0.1-8.1,0.4-8.1,0.4
						L91.7,30.4z"/>
					<path class="st1" d="M111.8,23.5c-0.5,2.1-1,4.2-1.6,6.2c-6,0.3-11.9,0.6-17.9,0.8c0.3-1.7,0-3.4-0.7-5
						C98.4,24.9,105.1,24.1,111.8,23.5 M111.1,24.2c-6.1,0.5-18.4,1.6-18.4,1.6l0.2,0.7c0,0,11.6-1.2,17.5-1.8c-0.1,1-0.2,2-0.2,2.9
						C110.5,26.6,110.8,25.4,111.1,24.2 M113.5,22l-1.9,0.2c-3.5,0.4-7,0.7-10.6,1.1c-3.2,0.3-6.4,0.7-9.5,1l-1.8,0.2l0.8,1.7
						c0.6,1.3,0.8,2.7,0.6,4.2L90.9,32l1.6-0.1c2.4-0.1,4.9-0.2,7.3-0.4c3.5-0.2,7-0.3,10.5-0.5h1l0.2-0.9c0.3-1,0.5-2,0.8-3.1
						s0.5-2.1,0.8-3.2L113.5,22L113.5,22z"/>
				</g>
			</g>
		</g>
	</g>
	<g>
		<g>
			<g>
				<path class="st0" d="M39.9,1.7l6.6-0.1c0,0-1.2,4.7-1.8,7.1c1.3-0.2,2.7-0.2,3.8,0.6c1.4,0.9,2.2,2.7,2,4.3
					c-0.3,2.9-1.4,5.7-1.9,8.6c0.1,0.9,1.1,0.6,1.7,0.6c0.2,0.7,0.4,1.4,0.6,2c-1.1,0.8-2.5,0.8-3.7,0.5c-0.7-0.2-1.5-0.5-2-1.1
					c-0.7-0.9-0.8-2.1-0.5-3.2c0.5-2.1,1-4.1,1.5-6.2c0.2-0.8-0.2-1.8-1-2c-0.9-0.3-1.8,0.3-1.9,1.2c-1.1,4-2.1,8-3.2,12
					c-1.4,0.1-2.7,0.2-4.1,0.3c1.8-6.9,3.6-13.7,5.3-20.6c-0.8,0-1.5,0-2.3,0C39.3,4.4,39.9,1.7,39.9,1.7z M40.3,2.1
					c0,0-0.4,1.7-0.6,2.6c0.4-0.7,1.1-2,1.1-2s3,0,4.5,0c-0.6,2.6-1.3,5.1-1.9,7.7c1-0.4,2-0.7,3.1-0.6c1.5,0.1,2.8,1.3,3.1,2.8
					c0.2,1.1-0.1,2.2-0.3,3.3c-0.5,1.9-1.1,3.8-1.5,5.7c-0.1,0.6-0.2,1.4,0.3,1.9s1.2,0.5,1.8,0.5c0.2,0.2,0.4,0.4,0.6,0.6
					c-0.1-0.4-0.2-0.7-0.3-1.1c-0.5-0.1-1,0-1.4-0.2c-0.5-0.3-0.5-1-0.4-1.5c0.6-2.6,1.4-5.2,1.8-7.8c0.3-1.8-0.6-3.7-2.3-4.4
					c-1.4-0.7-3.6,0-3.6,0S45.4,4.4,46,2C44.1,2.1,40.3,2.1,40.3,2.1z M42.1,14.2c-1,3.7-2.9,11-2.9,11h0.5c0,0,2-7.6,2.9-11
					C42.6,14.1,42.3,14.2,42.1,14.2z"/>
			</g>
			<g>
				<path class="st0" d="M111,2.4c1.3-0.1,2.6-0.2,3.9-0.3c-0.1,0.4-0.1,0.9-0.2,1.3c1.2-0.5,2.6-0.5,3.9-0.3
					c-0.2,1.2-0.5,2.4-0.7,3.6c-1.4-0.1-2.9,0-4,0.8c-1.2,3.9-2.2,7.9-3.3,11.8c-1.4,0.1-2.8,0.2-4.1,0.4
					C107.9,14,109.5,8.2,111,2.4z M112.2,2.8c0.5,0.1,1.1,0.2,1.6,0.3c-0.1,0.6-0.2,1.2-0.3,1.7c1.3-0.7,2.7-1.1,4.2-1.1
					c0,0.5,0,1.1,0.1,1.6c0.2-0.6,0.3-1.3,0.4-1.9c-1.3-0.2-2.7,0.1-3.9,0.6c0.1-0.5,0.2-0.9,0.2-1.4C113.7,2.7,112.9,2.8,112.2,2.8
					z M112.5,8.4c-0.9,3.3-1.9,6.6-2.7,9.9c0.7,0,0.7-0.7,0.9-1.2c0.9-3.3,1.8-6.5,2.7-9.8C112.6,7.3,112.6,7.9,112.5,8.4z"/>
			</g>
			<g>
				<path class="st0" d="M101.1,7.1c1.4-0.1,2.8,0.3,4.2,0.7c0.3-1.2,0.5-2.5,0.8-3.7c-2.2-0.5-4.5-1-6.7-0.4
					c-1.6,0.5-3.2,1.6-3.7,3.3c-0.5,1.4-0.3,3.1,0.4,4.4c-1.2,1-2.1,2.6-2,4.3c0,1.6,0.9,3.1,2.1,4.1c1.2,0.9,2.8,1.2,4.3,1.1
					c1.7,0,3.4-0.5,4.6-1.8c-0.6-1-1.1-2.1-1.7-3.2c-0.9,0.6-1.9,1-2.9,1.1c-0.7,0.1-1.6,0-2.1-0.6c-0.7-0.9-0.2-2.5,1-2.6
					c1.3-0.1,2.6-0.2,3.9-0.3c0.3-1.2,0.5-2.5,0.8-3.7c-1.2,0.2-2.5,0.4-3.7,0c-0.5-0.2-1-0.7-0.9-1.3l0,0
					C99.4,7.3,100.4,7.1,101.1,7.1z M95.5,12.8c0.4-0.5,0.9-1,1.4-1.4c0.1,0.2,0.3,0.3,0.4,0.5C96.7,12.1,96.1,12.4,95.5,12.8z
					 M102.9,16.9l0.7,1.2l-0.7-0.7c0,0-1.3,0.9-2.8,0.8s-2.3-1-2.4-1.7C97.9,17.2,100,18.7,102.9,16.9z M99.9,10.1
					c1.1,0.4,2.4,0.2,3.6,0.1c-0.2,0.8-0.3,1.5-0.5,2.3c0-0.6-0.1-1.2-0.1-1.8c-1.1,0.1-2.3,0.2-3.3-0.3c-1-0.6-1.1-2-0.5-2.9
					C99,7.8,98.5,9.5,99.9,10.1z M98.1,4.9c2.2-1.5,5-1.2,7.4-0.6c-0.1,0.8-0.2,1.5-0.4,2.3c0-0.6-0.1-1.3-0.1-1.9
					C102.8,4.1,100.1,4,98.1,4.9z"/>
			</g>
			<g>
				<path class="st0" d="M70.8,6.2c1.3-0.1,2.6-0.2,3.9-0.3c-0.1,0.4-0.2,0.9-0.3,1.3c1.3-0.5,2.6-0.5,3.9-0.3
					c-0.2,1.2-0.5,2.4-0.7,3.6c-1.4-0.1-2.8,0-4,0.8c-0.3,0.4-0.3,0.9-0.5,1.4c-0.9,3.5-1.9,7-2.9,10.5c-1.4,0.1-2.7,0.2-4.1,0.3
					C67.7,17.7,69.3,11.9,70.8,6.2z M71.9,6.6c0.5,0.1,1.1,0.2,1.6,0.3c-0.1,0.6-0.2,1.2-0.3,1.8c1.3-0.6,2.7-1.1,4.2-1.1
					c0,0.6,0,1.1,0.1,1.7c0.2-0.7,0.3-1.3,0.4-2C76.6,7,75.2,7.4,74,7.8c0.1-0.5,0.1-0.9,0.2-1.4C73.4,6.5,72.7,6.5,71.9,6.6z
					 M72.5,11.1c-0.9,3.6-2,7.3-2.9,10.9c0.1,0,0.5,0,0.6,0c1-3.6,1.9-7.3,2.9-10.9C72.9,11.1,72.6,11.1,72.5,11.1z"/>
			</g>
			<g>
				<path class="st0" d="M55.8,7.5c1.9-0.1,3.9-0.3,5.8-0.2c1.4,0.1,2.6,1,3.2,2.1c1,1.8,0.5,4,0,6c-0.4,1.8-1.3,3.5-1.4,5.4
					c0.1,0.9,1.2,0.6,1.7,0.5c0.2,0.7,0.7,2.1,0.7,2.1s-3,1.9-5,0c-2.1,1-4.7,1.3-6.9,0.3c-1.7-0.8-2.9-2.6-3-4.5
					c-0.3-2.8,1.1-5.7,4-6.9c1.9-0.8,4.1-0.6,6.2-0.6C60.8,11.3,60,11,59.3,11c-1.5-0.1-3,0.2-4.5,0.4C55.2,10.1,55.5,8.8,55.8,7.5z
					 M56.4,8.4C58.2,8.5,60,8,61.8,8.3c1.5,0.3,2.4,1.8,2.4,3.2c0.1,2.8-0.9,5.6-1.7,8.2c-0.2,0.7-0.3,1.5,0.2,2
					c0.4,0.5,1.1,0.4,1.7,0.5c0.2,0.2,0.4,0.4,0.5,0.6c-0.1-0.3-0.2-0.7-0.2-1c-0.5,0-1.2,0.1-1.6-0.3c-0.4-0.5-0.2-1.1-0.1-1.7
					c0.7-2.9,2-5.7,1.7-8.8c-0.1-1.6-1.3-3-2.9-3.3c-1.2-0.1-2.5,0-3.7,0C57.6,7.9,56.8,7.8,56.4,8.4z M55.1,13
					c-2,0.8-3.5,2.7-3.5,4.9c0.5-1.6,1.4-3.1,2.9-4c2.2-1.2,4.7-1.3,7.1-0.9c0.1-0.2,0.1-0.4,0.1-0.5C59.5,12.3,57.2,12.2,55.1,13z
					 M56.3,16.2c-1,0.6-1.6,1.8-1.3,3c0.2,0.8,1.1,1.2,1.9,1.2c1,0,2.3-0.3,2.8-1.3s0.6-2.1,0.8-3.2C59.1,15.6,57.6,15.6,56.3,16.2z
					 M56.1,21.5c1,0.1,2,0,3-0.4c0.1-0.1,0.2-0.4,0.2-0.6c-1.1,0.4-2.6,0.8-3.8,0.2c-1-0.5-1.2-1.8-1-2.8
					C54.5,17.9,53.2,21,56.1,21.5z"/>
			</g>
			<g>
				<path class="st0" d="M23.1,15.6c2-4.9,8.9-7.2,13.5-4.4c-0.3,1.2-0.7,2.5-1.1,3.8c-1.6-1.1-3.8-1.7-5.7-1
					c-2.5,0.8-3.9,3.5-3.8,6c0,1.3,0.7,2.6,2,3.1s2.8,0.2,4.1-0.1c0.6-0.2,1.1-0.6,1.5-1.1c0.5,1.2,1.2,2.4,1.7,3.6
					c-0.7,0.7-1.7,0.8-2.6,1.1c-2.3,0.6-4.8,0.6-6.9-0.5c-1.5-0.7-2.7-2-3.2-3.6C21.9,20.4,22.1,17.8,23.1,15.6z M24.1,14.6
					c-1.3,2.2-1.9,4.9-1.2,7.4c0.4,1.6,1.4,3,2.9,3.7c-1-0.8-1.9-1.8-2.3-3.1c-1.2-3.7,0.3-8,3.5-10.2c2.5-1.7,5.7-1.7,8.4-0.8
					c0,0.7,0,1.4,0,2.1c0.2-0.8,0.4-1.6,0.6-2.4C32.1,9.2,26.6,10.8,24.1,14.6z M25.7,18.3c-0.3,1.1-0.5,2.3-0.1,3.3
					c0.4,1.3,1.5,2.2,2.7,2.6c1.7,0.5,3.4,0.1,5-0.5c0.5,0.7,1.6,2.1,1.6,2.1s-0.8-2-1.3-2.9c-1.4,0.9-3.1,1.1-4.8,1
					c-1.3-0.1-2.5-1-2.9-2.3C25.5,20.6,25.7,19.4,25.7,18.3z"/>
			</g>
		</g>
		<g>
			<g>
				<path class="st0" d="M88.5,5.6c1.7-1.2,3.9-1.7,6-1.4c-0.1,1.2-0.4,2.5-0.6,3.7c-0.6,0-1.2,0-1.8,0.1c2,3.2,1.5,7.7-1,10.5
					c-1.4,1.6-2.8,3.2-4.2,4.7c1.9,1,3.7,2.5,4.4,4.6c0.7,2.3,0.5,4.9-0.8,7c-1,1.7-2.7,2.9-4.6,3.4c-3.7,0.9-7.7-0.8-9.6-4.1
					c-0.4-0.8-0.7-1.6-0.9-2.5c-7.9,0.3-15.8,0.7-23.8,1c0.5-1,1.1-1.9,1.6-2.9C42.6,30,32,30.5,21.5,30.8
					c13.3-1.9,26.6-3.7,39.8-5.5c-0.5,1-1.1,2-1.7,3c6.3-0.6,12.6-1.1,19-1.7c0,2.2,0.1,4.8,1.8,6.4c1.5,1.5,3.9,1.7,5.7,0.6
					c1.6-1.1,2-3.5,0.9-5.1c-1-1.5-2.6-2.3-4.3-2.8c-1.1-0.4-2.2-0.4-3.4-0.6c1-1.4,2.1-2.6,3.1-3.9c-1.4-0.4-2.7-1.1-3.5-2.3
					c-1.2-1.6-1.3-3.8-1.2-5.8c0.3-2.6,1.7-5.1,4-6.5C83.8,5.5,86.2,5.3,88.5,5.6z M91.2,4.9C91.9,5,92.6,5,93.3,5
					c-0.2,0.7-0.4,1.4-0.5,2.1c-0.2,0.1-0.4,0.2-0.7,0.4c0.3,0,0.7,0,1,0c0.3-1,0.5-1.9,0.8-2.9C93.1,4.5,92.1,4.6,91.2,4.9z
					 M81.2,7.7c-2.2,1.8-3,4.8-3,7.5c0.2-1,0.4-2.1,0.8-3.1c0.7-1.6,1.5-3.3,3-4.3c1.9-1.3,4.4-1.5,6.6-1.2c0-0.1,0.1-0.3,0.2-0.4
					C86.3,5.6,83.3,5.9,81.2,7.7z M90.7,8c0.6,0.9,1.1,2,1.4,3.1c0.3,1.4,0.2,2.8,0.2,4.2c0.8-2.6,0.6-5.6-1.2-7.7
					C91,7.7,90.8,7.8,90.7,8z M85.5,9.2c-2.5,0.8-4.4,3.6-3.7,6.2c0.3,1.3,1.6,2.3,3,2.1c2.9-0.3,5.1-3.6,4.4-6.4
					C88.8,9.6,87,8.6,85.5,9.2z M80.7,14.8c0,1.4,0.8,2.7,2.1,3.3c1.2,0.5,2.6,0.3,3.7-0.3c-1.1,0.1-2.3,0.3-3.3-0.1
					c-1.1-0.4-2-1.5-2.1-2.7c-0.2-1.6,0.6-3.1,1.4-4.4C81.5,11.8,80.7,13.2,80.7,14.8z M83.1,21.4l-1.5,1.9l2-1.8L83.1,21.4z
					 M86.3,23.5c-0.1,0.2-0.2,0.5-0.2,0.6c2,1,3.9,2.6,4.4,4.8c0.6,2.4-0.3,4.8-1.5,6.8c1.9-2,2.8-5.1,1.9-7.7
					C90.1,25.9,88.4,24.1,86.3,23.5z M49.3,27.4c-2.8,0.4-9.9,1.4-12.7,2c6.2-0.7,16.5-2.1,22.7-2.7c-0.6,1-1.2,2-1.8,2.9
					c6.7-0.6,13.3-1.2,20-1.7c-0.1,1.7,0.2,3.4,1.2,4.8c0.8,1.2,2.1,2.2,3.6,2.5c1.2,0.2,2.6,0,3.6-0.7c-0.9,0.2-2,0.5-3,0.4
					c-1.3-0.1-2.5-0.8-3.3-1.8c-1.2-1.6-1.6-3.6-1.6-5.6c-6.4,0.5-12.8,1-19.2,1.5c0.5-1,1.1-2,1.6-3C56.7,26.4,53,26.8,49.3,27.4z"
					/>
			</g>
			<g>
				<path class="st0" d="M91.7,25.6c6.7-0.7,13.4-1.4,20.1-2.1c-0.5,2.1-1,4.2-1.6,6.2c-6,0.3-11.9,0.6-17.9,0.8
					C92.6,28.9,92.4,27.1,91.7,25.6z M92.6,25.8l0.2,0.7c0,0,11.6-1.2,17.5-1.8c-0.1,1-0.2,2-0.2,2.9c0.3-1.1,0.6-2.3,0.9-3.4
					C104.9,24.8,92.6,25.8,92.6,25.8z"/>
			</g>
		</g>
	</g>
</g>
<polygon class="st1" points="21.3,29.5 11.4,32 21.6,32 21.9,30.8 21.4,30.8 22.7,30.6 "/>
</svg>
