<svg xmlns="http://www.w3.org/2000/svg" width="40" height="40" fill="none" viewBox="0 0 40 40">
    <g clip-path="url(#clip0)">
        <path fill="#fff" d="M37.115 0H2.885C1.29 0 0 1.291 0 2.885v34.23C0 38.708 1.291 40 2.885 40h34.23C38.708 40 40 38.709 40 37.115V2.885C40 1.29 38.709 0 37.115 0zM30.02 15.31v2.703c-1.275 0-2.514-.249-3.682-.742-.752-.317-1.452-.726-2.092-1.22l.02 8.324c-.009 1.874-.75 3.635-2.092 4.962-1.092 1.08-2.476 1.766-3.976 1.988-.353.052-.712.08-1.074.08-1.606 0-3.13-.521-4.378-1.48-.234-.182-.459-.377-.672-.588-1.455-1.438-2.205-3.386-2.079-5.436.097-1.56.722-3.048 1.763-4.214 1.377-1.544 3.305-2.4 5.366-2.4.362 0 .721.027 1.074.08V21.146c-.334-.11-.691-.17-1.063-.17-1.883 0-3.406 1.535-3.378 3.42.018 1.205.676 2.259 1.648 2.84.456.273.981.442 1.542.473.439.024.86-.037 1.25-.166 1.346-.445 2.316-1.708 2.316-3.198l.005-5.574V8.596h3.724c.003.369.04.729.11 1.078.281 1.412 1.077 2.637 2.185 3.472.966.729 2.169 1.16 3.473 1.16h.01v1.003z"/>
    </g>
    <defs>
        <clipPath id="clip0">
            <path fill="#fff" d="M0 0H40V40H0z"/>
        </clipPath>
    </defs>
</svg>
