<svg xmlns="http://www.w3.org/2000/svg" width="40" height="40" fill="none" viewBox="0 0 40 40">
    <path fill="#fff" d="M34.61 0H5.39C2.413 0 0 2.413 0 5.39v29.22C0 37.587 2.413 40 5.39 40h14.411l.025-14.294h-3.714c-.482 0-.874-.39-.876-.873l-.018-4.607c-.002-.485.391-.88.876-.88h3.707v-4.452c0-5.166 3.156-7.98 7.765-7.98h3.781c.484 0 .877.393.877.877v3.885c0 .484-.392.876-.876.876l-2.321.001c-2.507 0-2.992 1.191-2.992 2.939v3.854h5.508c.525 0 .932.459.87.98l-.546 4.607c-.053.441-.426.773-.87.773H26.06L26.035 40h8.575c2.977 0 5.39-2.413 5.39-5.39V5.39C40 2.413 37.587 0 34.61 0z"/>
</svg>
