<svg xmlns="http://www.w3.org/2000/svg" width="40" height="40" fill="none" viewBox="0 0 40 40">
    <path fill="#fff" d="M34.14 0H5.86C2.628 0 0 2.629 0 5.86v28.28C0 37.372 2.629 40 5.86 40h28.28c3.231 0 5.86-2.629 5.86-5.86V5.86C40 2.628 37.371 0 34.14 0zM20.079 30.469c-5.816 0-10.547-4.731-10.547-10.547 0-5.816 4.731-10.547 10.547-10.547 5.816 0 10.547 4.731 10.547 10.547 0 5.816-4.731 10.547-10.547 10.547zm11.719-18.75c-1.939 0-3.516-1.577-3.516-3.516 0-1.938 1.577-3.515 3.516-3.515 1.938 0 3.515 1.577 3.515 3.515 0 1.939-1.577 3.516-3.515 3.516z"/>
    <path fill="#fff" d="M31.797 7.031c-.647 0-1.172.525-1.172 1.172 0 .647.525 1.172 1.172 1.172.646 0 1.172-.525 1.172-1.172 0-.647-.526-1.172-1.172-1.172zM20.078 11.719c-4.523 0-8.203 3.68-8.203 8.203s3.68 8.203 8.203 8.203 8.203-3.68 8.203-8.203-3.68-8.203-8.203-8.203z"/>
</svg>
