<?xml version="1.0" encoding="utf-8"?>
<!-- Generator: Adobe Illustrator 16.0.0, SVG Export Plug-In . SVG Version: 6.00 Build 0)  -->
<!DOCTYPE svg PUBLIC "-//W3C//DTD SVG 1.1//EN" "http://www.w3.org/Graphics/SVG/1.1/DTD/svg11.dtd">
<svg version="1.1" id="Layer_1" xmlns="http://www.w3.org/2000/svg" xmlns:xlink="http://www.w3.org/1999/xlink" x="0px" y="0px"
	 width="511.474px" height="275.986px" viewBox="0 0 511.474 275.986" enable-background="new 0 0 511.474 275.986"
	 xml:space="preserve">
<path fill="#C2DD91" d="M202.005,135.428c-7.306-0.046-14.612-0.091-21.919-0.136c0.747,3.461,1.493,6.923,2.239,10.385
	c0.468,2.172,0.945,3.576,1.431,4.216c0.485,0.639,1.224,0.977,2.219,1.011c1.236,0.042,1.98-0.348,2.229-1.175
	c0.249-0.826,0.134-2.448-0.346-4.86c-0.426-2.133-0.852-4.265-1.276-6.396c5.31,0.063,10.621,0.124,15.931,0.186
	c0.193,1.227,0.386,2.454,0.579,3.681c0.485,3.079,0.645,5.439,0.489,7.079c-0.159,1.637-0.851,3.368-2.064,5.172
	c-1.21,1.806-2.884,3.112-5.027,3.926c-2.145,0.813-4.944,1.123-8.419,0.947c-3.371-0.17-6.442-0.768-9.237-1.774
	c-2.796-1.007-5.115-2.3-6.951-3.882c-1.838-1.58-3.284-3.284-4.325-5.12c-1.042-1.835-2.026-4.482-2.939-7.949
	c-1.196-4.531-2.391-9.064-3.585-13.597c-1.076-4.074-1.25-7.298-0.489-9.693c0.761-2.395,2.565-4.278,5.422-5.654
	c2.855-1.375,6.363-2.151,10.486-2.3c5.042-0.183,9.362,0.454,12.905,1.941c3.545,1.488,6.173,3.551,7.897,6.181
	c1.726,2.629,2.953,6.371,3.71,11.204C201.312,131.021,201.659,133.226,202.005,135.428 M183.439,127.438
	c-0.238-1.18-0.477-2.36-0.715-3.54c-0.506-2.507-0.991-4.121-1.46-4.844c-0.467-0.723-1.196-1.072-2.185-1.05
	c-1.222,0.027-1.913,0.352-2.072,0.974c-0.158,0.623,0.056,2.284,0.638,4.985c0.252,1.17,0.504,2.341,0.757,3.511
	C180.081,127.463,181.76,127.45,183.439,127.438"/>
<path fill="#C2DD91" d="M149.796,92.965c5.766,21.686,11.531,43.373,17.296,65.059c-5.301-0.077-9.603-0.154-14.904-0.231
	c-4.429-14.526-9.859-29.054-14.288-43.579c2.1,14.54,4.413,29.037,6.936,43.487l-11.279-0.164
	c-7.12-14.104-14.458-28.16-22.013-42.171c5.104,14.024,10.209,28.049,15.315,42.073c-5.302-0.077-9.603-0.154-14.905-0.231
	c-8.534-21.09-21.069-43.182-29.604-64.273c9.008-0.135,21.017,0.729,30.026,0.594c2.133,3.838,4.507,8.365,7.114,13.588
	c2.81,5.425,5.588,10.857,8.333,16.296c-1.831-9.992-3.564-20.005-5.202-30.038C131.68,93.237,140.738,93.101,149.796,92.965"/>
<polygon fill="#CCE195" points="91.045,141.01 70.747,132.891 77.512,122.066 93.75,136.949 "/>
<polygon fill="#CCE195" points="100.448,149.518 82.485,154.633 81.403,143.779 100.157,145.359 "/>
<path fill="#C2DD91" d="M219.625,129.039c-5.377,0.053-10.754,0.105-16.132,0.157c-0.233-1.069-0.465-2.138-0.699-3.207
	c-0.804-3.698-0.914-6.563-0.293-8.622c0.62-2.057,2.367-3.941,5.284-5.684c2.914-1.741,6.99-2.796,12.161-3.105
	c6.2-0.37,10.989,0.28,14.293,2.014c3.306,1.733,5.355,4.011,6.199,6.789c0.848,2.776,1.604,8.55,2.29,17.304
	c0.696,8.858,1.394,17.718,2.09,26.576c-5.024-0.397-10.05-0.796-15.074-1.193c-0.204-1.507-0.408-3.015-0.612-4.521
	c-0.716,1.751-1.754,3.015-3.117,3.794c-1.365,0.779-3.068,1.077-5.132,0.907c-2.701-0.223-5.308-1.163-7.876-2.776
	c-2.562-1.619-4.399-4.818-5.456-9.644c-0.285-1.309-0.57-2.618-0.855-3.927c-0.781-3.578-0.672-6.004,0.357-7.295
	c1.028-1.292,3.945-2.788,8.863-4.584c5.262-1.95,8.122-3.333,8.421-4.021c0.302-0.691,0.313-2.095,0.024-4.209
	c-0.362-2.647-0.824-4.365-1.391-5.149c-0.565-0.784-1.38-1.154-2.439-1.113c-1.206,0.047-1.908,0.409-2.097,1.085
	c-0.191,0.678-0.064,2.407,0.371,5.192C219.079,125.551,219.351,127.295,219.625,129.039 M226.023,135.937
	c-2.444,1.784-3.752,3.249-3.991,4.447c-0.238,1.199-0.176,2.923,0.178,5.182c0.404,2.585,0.844,4.261,1.318,5.035
	c0.472,0.771,1.232,1.188,2.284,1.244c1,0.055,1.609-0.207,1.828-0.79c0.22-0.581,0.16-2.147-0.189-4.692
	C226.975,142.888,226.499,139.411,226.023,135.937"/>
<path fill="#C2DD91" d="M266.163,99.354c0.015,2.947,0.03,5.895,0.045,8.841c1.637-0.089,3.272-0.178,4.91-0.268
	c-0.022,2.994-0.048,5.986-0.072,8.98c-1.598,0.057-3.195,0.114-4.792,0.172c0.052,10.011,0.102,20.022,0.154,30.034
	c0.021,3.693,0.209,5.762,0.566,6.204c0.358,0.441,1.837,0.733,4.442,0.875c-0.031,3.056-0.063,6.11-0.094,9.167
	c-2.083-0.166-4.167-0.33-6.251-0.495c-3.529-0.28-6.051-0.639-7.573-1.072c-1.523-0.436-2.884-1.266-4.1-2.479
	c-1.215-1.213-2.012-2.546-2.381-4.014c-0.368-1.466-0.706-4.876-1.011-10.232c-0.52-9.118-1.039-18.235-1.558-27.354
	c-1.275,0.046-2.551,0.091-3.826,0.137c-0.193-2.815-0.387-5.63-0.58-8.445c1.307-0.071,2.613-0.143,3.92-0.213
	c-0.16-2.828-0.321-5.655-0.483-8.483C253.707,100.258,259.934,99.806,266.163,99.354"/>
<path fill="#C2DD91" d="M306.604,96.056c-0.34,3.238-0.68,6.477-1.021,9.716c1.638-0.09,3.275-0.18,4.912-0.269
	c-0.381,3.286-0.761,6.572-1.142,9.858c-1.598,0.058-3.195,0.114-4.793,0.171c-1.154,11.002-2.309,22.002-3.463,33.004
	c-0.425,4.061-0.483,6.328-0.177,6.814c0.308,0.483,1.759,0.797,4.365,0.938c-0.395,3.354-0.788,6.708-1.183,10.063
	c-2.085-0.166-4.169-0.331-6.253-0.496c-3.528-0.279-6.03-0.654-7.514-1.12c-1.483-0.467-2.757-1.37-3.829-2.7
	c-1.074-1.328-1.713-2.795-1.897-4.41c-0.186-1.615-0.098-5.377,0.269-11.285c0.625-10.057,1.25-20.113,1.875-30.171
	c-1.275,0.046-2.551,0.091-3.825,0.137c0.162-3.107,0.326-6.215,0.489-9.323l3.92-0.214c0.194-3.118,0.388-6.237,0.582-9.355
	C294.148,96.96,300.375,96.509,306.604,96.056"/>
<path fill="#C2DD91" d="M373.75,100.379c-8.027,23.525-15.686,46.747-22.976,69.666c-5.606-0.444-11.213-0.888-16.819-1.332
	c0.632-8.229,1.545-19.021,2.633-32.282c-1.521,5.827-3.204,11.687-5.027,17.556c-1.442,4.752-2.862,9.485-4.261,14.2
	c-5.619-0.445-11.238-0.89-16.857-1.335c0.634-21.281,0.875-42.241,0.725-62.88c5.249-0.301,10.498-0.603,15.747-0.903
	c-0.153,1.69-0.582,13.819-1.901,36.894c0.579-2.386,3.713-14.677,9.997-37.358c5.042-0.29,10.083-0.578,15.125-0.869
	c-1.29,12.762-2.686,25.609-4.189,38.547c2.84-11.312,6.779-24.24,12.075-38.999C363.263,100.98,368.506,100.68,373.75,100.379"/>
<path fill="#C2DD91" d="M409.763,124.41c-1.919,6.178-3.839,12.354-5.758,18.532c-2.114,6.808-3.909,11.79-5.366,14.936
	c-1.46,3.147-3.385,6.052-5.75,8.689c-2.366,2.636-4.916,4.501-7.662,5.604c-2.746,1.104-5.633,1.515-8.691,1.264
	c-3.416-0.28-6.159-1.059-8.261-2.308c-2.101-1.251-3.551-2.983-4.353-5.197c-0.802-2.213-1.132-4.827-0.977-7.853
	c0.153-3.026,0.95-7.522,2.406-13.504c1.465-6.017,2.93-12.034,4.396-18.05c1.594-6.55,3.412-11.673,5.502-15.414
	c2.087-3.738,4.971-6.813,8.676-9.245c3.702-2.429,8.038-3.818,12.936-4.111c4.11-0.245,7.432,0.29,9.921,1.638
	c2.49,1.348,4.146,3.213,4.974,5.595c0.829,2.382,1.112,4.879,0.872,7.479C412.388,115.064,411.428,119.05,409.763,124.41
	 M394.031,119.129c1.064-3.762,1.572-6.124,1.524-7.09c-0.049-0.964-0.602-1.426-1.661-1.385c-1.06,0.042-1.899,0.555-2.519,1.537
	c-0.616,0.98-1.436,3.334-2.457,7.061c-2.998,10.943-5.996,21.887-8.995,32.83c-0.94,3.434-1.394,5.679-1.364,6.738
	c0.03,1.058,0.504,1.613,1.424,1.664c0.946,0.052,1.705-0.393,2.279-1.335c0.573-0.942,1.309-3,2.206-6.172
	C387.656,141.694,390.843,130.412,394.031,119.129"/>
<path fill="#C2DD91" d="M450.154,78.973c-9.438,24.25-18.739,48.387-27.9,72.409c-4.204-0.139-8.408-0.278-12.612-0.418
	c6.727-23.542,13.315-46.972,19.766-70.288C436.323,80.109,443.239,79.539,450.154,78.973 M422.027,155.936
	c-2.217,6.407-4.435,12.815-6.651,19.224l-14.499-1.148c2.007-6.234,4.013-12.469,6.019-18.703
	C411.939,155.517,416.983,155.727,422.027,155.936"/>
<path fill="#C2DD91" d="M169.43,165.976c2.23,0.153,4.46,0.308,6.69,0.461c2.114,0.146,3.705,0.407,4.772,0.784
	c1.068,0.377,1.904,1.048,2.511,2.014c0.605,0.966,0.838,2.471,0.696,4.514c-0.096,1.382-0.398,2.328-0.909,2.841
	c-0.51,0.513-1.471,0.866-2.882,1.063c1.528,0.429,2.543,1.033,3.044,1.816c0.501,0.782,0.697,1.941,0.592,3.479
	c-0.05,0.729-0.101,1.459-0.15,2.188c-0.112,1.597-0.391,2.765-0.842,3.507c-0.452,0.74-1.123,1.223-2.013,1.445
	c-0.891,0.222-2.685,0.238-5.382,0.053c-2.586-0.179-5.172-0.356-7.758-0.536C168.343,181.729,168.886,173.852,169.43,165.976
	 M175.241,179.413l-0.457,6.612c0.947,0.035,1.559-0.059,1.837-0.284c0.276-0.226,0.448-0.814,0.514-1.769
	c0.051-0.734,0.101-1.469,0.152-2.203c0.069-1.013-0.006-1.634-0.224-1.864C176.844,179.676,176.237,179.511,175.241,179.413
	 M175.857,170.48c-0.121,1.752-0.241,3.504-0.362,5.255c0.287,0.01,0.511,0.021,0.67,0.032c0.658,0.045,1.088-0.075,1.289-0.358
	c0.202-0.284,0.349-1.128,0.447-2.529c0.051-0.739,0.012-1.263-0.117-1.57c-0.127-0.306-0.309-0.507-0.541-0.601
	C177.008,170.614,176.547,170.538,175.857,170.48"/>
<path fill="#C2DD91" d="M201.697,172.484c-0.445,6.456-0.892,12.912-1.337,19.368c-2.182-0.15-4.364-0.302-6.547-0.452
	c0.074-0.532,0.149-1.065,0.223-1.598c-0.492,0.621-1.075,1.073-1.751,1.353c-0.675,0.281-1.439,0.392-2.288,0.334
	c-0.966-0.067-1.757-0.277-2.373-0.634c-0.615-0.354-1.057-0.801-1.324-1.338c-0.268-0.535-0.418-1.087-0.455-1.65
	c-0.035-0.565,0.004-1.679,0.119-3.344c0.3-4.354,0.601-8.708,0.902-13.063c2.145,0.148,4.29,0.295,6.435,0.444
	c-0.303,4.392-0.606,8.787-0.91,13.18c-0.103,1.508-0.114,2.407-0.033,2.696c0.082,0.289,0.346,0.448,0.791,0.479
	c0.479,0.032,0.772-0.094,0.883-0.38c0.11-0.284,0.221-1.221,0.33-2.808c0.3-4.344,0.599-8.688,0.898-13.033
	C197.406,172.188,199.551,172.337,201.697,172.484"/>
<path fill="#C2DD91" d="M212.505,168.948c-0.068,0.998-0.138,1.994-0.206,2.992c-1.328-0.092-2.115-0.09-2.362,0.006
	s-0.389,0.404-0.425,0.931c-0.014,0.204-0.028,0.408-0.042,0.612c0.903,0.063,1.806,0.125,2.709,0.188
	c-0.07,1.021-0.142,2.043-0.212,3.064c-0.51-0.035-1.02-0.07-1.529-0.104c-0.365,5.277-0.73,10.557-1.094,15.835
	c-2.146-0.147-4.29-0.297-6.436-0.444c0.365-5.278,0.73-10.557,1.094-15.836c-0.44-0.029-0.882-0.061-1.322-0.091
	c0.07-1.021,0.14-2.044,0.211-3.066c0.44,0.03,0.882,0.062,1.322,0.092c0.088-1.274,0.194-2.122,0.319-2.543
	c0.126-0.423,0.389-0.787,0.788-1.098c0.402-0.311,0.947-0.529,1.639-0.656c0.692-0.129,1.754-0.144,3.188-0.045
	C210.934,168.84,211.719,168.894,212.505,168.948"/>
<path fill="#C2DD91" d="M221.936,169.599c-0.068,0.998-0.138,1.995-0.206,2.993c-1.327-0.092-2.114-0.09-2.362,0.005
	c-0.246,0.096-0.389,0.406-0.424,0.932c-0.014,0.204-0.028,0.408-0.042,0.612c0.902,0.063,1.805,0.125,2.708,0.188
	c-0.07,1.021-0.141,2.043-0.211,3.065c-0.51-0.035-1.021-0.07-1.53-0.105l-1.093,15.835c-2.146-0.147-4.29-0.295-6.436-0.443
	c0.365-5.279,0.729-10.558,1.093-15.836c-0.44-0.03-0.882-0.061-1.322-0.091c0.07-1.022,0.141-2.044,0.212-3.066
	c0.44,0.03,0.882,0.061,1.322,0.091c0.088-1.272,0.194-2.122,0.319-2.543c0.126-0.421,0.388-0.787,0.788-1.097
	c0.401-0.31,0.946-0.528,1.639-0.657c0.691-0.129,1.754-0.143,3.188-0.044C220.365,169.49,221.15,169.545,221.936,169.599"/>
<path fill="#C2DD91" d="M236.752,184.979c-2.777-0.191-5.553-0.383-8.331-0.574c-0.096,1.396-0.192,2.792-0.289,4.188
	c-0.06,0.875-0.029,1.445,0.091,1.708c0.119,0.263,0.377,0.406,0.77,0.434c0.488,0.033,0.826-0.112,1.014-0.436
	c0.188-0.323,0.317-0.968,0.382-1.932c0.059-0.852,0.117-1.703,0.176-2.554c2.034,0.14,4.067,0.28,6.101,0.421
	c-0.033,0.477-0.065,0.954-0.098,1.43c-0.083,1.197-0.231,2.111-0.438,2.741c-0.209,0.631-0.641,1.292-1.297,1.979
	c-0.656,0.688-1.461,1.183-2.416,1.483c-0.954,0.301-2.13,0.402-3.534,0.306c-1.359-0.093-2.547-0.355-3.562-0.789
	c-1.017-0.431-1.791-0.979-2.328-1.649c-0.536-0.666-0.889-1.384-1.059-2.154c-0.173-0.77-0.207-1.874-0.107-3.314
	c0.129-1.882,0.259-3.766,0.389-5.648c0.117-1.693,0.458-3.012,1.025-3.954c0.566-0.944,1.436-1.636,2.609-2.079
	c1.172-0.441,2.496-0.612,3.973-0.511c1.805,0.124,3.272,0.542,4.404,1.25c1.13,0.709,1.895,1.599,2.297,2.667
	c0.4,1.068,0.537,2.542,0.406,4.419C236.871,183.266,236.812,184.122,236.752,184.979 M230.518,181.381
	c0.032-0.472,0.065-0.944,0.098-1.416c0.07-1.002,0.056-1.653-0.041-1.952c-0.096-0.3-0.326-0.464-0.686-0.487
	c-0.446-0.031-0.732,0.073-0.854,0.314c-0.124,0.24-0.222,0.906-0.298,1.995c-0.033,0.473-0.066,0.944-0.098,1.416
	C229.265,181.294,229.892,181.338,230.518,181.381"/>
<path fill="#C2DD91" d="M246.512,172.981c-0.07,1.017-0.14,2.034-0.21,3.051c0.579,0.04,1.157,0.079,1.736,0.119
	c-0.07,1.022-0.141,2.045-0.212,3.066c-0.579-0.04-1.157-0.08-1.736-0.12l-0.715,10.363c-0.088,1.273-0.067,1.989,0.069,2.146
	c0.132,0.156,0.724,0.27,1.776,0.342c-0.072,1.041-0.144,2.082-0.216,3.123c-0.865-0.059-1.73-0.119-2.596-0.179
	c-1.466-0.101-2.507-0.229-3.126-0.384c-0.62-0.155-1.154-0.452-1.604-0.888c-0.451-0.438-0.717-0.921-0.797-1.449
	c-0.082-0.528-0.054-1.756,0.078-3.683c0.227-3.278,0.452-6.558,0.679-9.837c-0.462-0.031-0.924-0.063-1.386-0.096
	c0.071-1.021,0.142-2.044,0.212-3.065c0.462,0.031,0.924,0.063,1.386,0.096c0.07-1.017,0.141-2.034,0.211-3.051
	C242.211,172.685,244.362,172.834,246.512,172.981"/>
<path fill="#C2DD91" d="M273.042,173.126c-0.544,7.877-1.087,15.754-1.631,23.63c-1.96-0.135-3.919-0.271-5.879-0.405
	c-0.916-3.662-1.832-7.321-2.748-10.983c-0.247,3.581-0.493,7.162-0.74,10.742l-5.607-0.387c0.543-7.876,1.086-15.753,1.63-23.63
	l5.608,0.387c1.009,3.634,2.016,7.267,3.025,10.9c0.244-3.547,0.489-7.094,0.735-10.641L273.042,173.126z"/>
<path fill="#C2DD91" d="M289.808,181.117c-0.387,5.609-0.774,11.22-1.161,16.829c-2.183-0.15-4.364-0.302-6.547-0.452
	c0.073-0.533,0.147-1.064,0.222-1.598c-0.49,0.622-1.076,1.072-1.75,1.353c-0.676,0.281-1.438,0.393-2.287,0.334
	c-0.968-0.066-1.759-0.279-2.373-0.633c-0.617-0.355-1.058-0.801-1.326-1.339c-0.267-0.536-0.416-1.087-0.453-1.651
	c-0.036-0.563,0.003-1.679,0.117-3.343c0.302-4.354,0.602-8.708,0.902-13.063c2.145,0.148,4.291,0.297,6.436,0.445
	c-0.303,4.394-0.605,8.786-0.909,13.18c-0.103,1.508-0.115,2.406-0.033,2.696c0.081,0.289,0.347,0.448,0.791,0.479
	c0.479,0.034,0.771-0.093,0.883-0.378c0.108-0.286,0.218-1.222,0.328-2.809c0.3-4.344,0.601-8.688,0.9-13.033
	c2.146,0.148,4.29,0.296,6.436,0.444c-0.018,0.253-0.035,0.506-0.052,0.76c0.511-0.288,0.82-0.667,0.927-1.14
	c-0.362-0.024-0.723-0.05-1.084-0.074c0.075-1.08,0.149-2.16,0.225-3.24c1.264,0.087,2.527,0.175,3.791,0.262
	c-0.012,0.242-0.022,0.486-0.034,0.73c-0.078,1.109-0.243,2.021-0.501,2.729c-0.256,0.712-0.711,1.282-1.357,1.718
	C291.301,180.731,290.606,180.997,289.808,181.117"/>
<path fill="#C2DD91" d="M305.5,181.746c0.389,0.564,0.65,1.136,0.794,1.713c0.155,0.684,0.187,1.713,0.092,3.085
	c-0.11,1.582-0.218,3.163-0.327,4.744c-0.12,1.742-0.306,3.013-0.553,3.811c-0.247,0.8-0.708,1.53-1.384,2.193
	c-0.674,0.662-1.516,1.127-2.521,1.394c-1.003,0.27-2.146,0.359-3.42,0.271c-1.422-0.098-2.617-0.325-3.586-0.68
	c-0.967-0.354-1.705-0.842-2.211-1.458c-0.509-0.617-0.851-1.345-1.027-2.183c-0.177-0.839-0.209-2.081-0.096-3.724
	c0.114-1.655,0.229-3.31,0.343-4.963c0.125-1.801,0.435-3.191,0.929-4.174c0.496-0.983,1.315-1.743,2.463-2.279
	c1.146-0.537,2.581-0.747,4.301-0.627c1.446,0.099,2.673,0.381,3.687,0.841c0.434,0.207,0.83,0.434,1.187,0.683
	c0.584-0.282,0.938-0.684,1.059-1.202c-0.361-0.025-0.723-0.05-1.084-0.075c0.075-1.08,0.149-2.16,0.225-3.239
	c1.264,0.087,2.527,0.174,3.791,0.262c-0.012,0.243-0.022,0.486-0.034,0.729c-0.078,1.109-0.243,2.021-0.501,2.73
	c-0.256,0.711-0.71,1.283-1.357,1.717C306.029,181.484,305.773,181.628,305.5,181.746 M300.049,184.641
	c0.068-0.993,0.052-1.621-0.045-1.888c-0.1-0.267-0.34-0.412-0.724-0.438c-0.383-0.026-0.646,0.085-0.792,0.334
	c-0.144,0.249-0.251,0.869-0.319,1.862l-0.604,8.742c-0.063,0.915-0.038,1.516,0.068,1.802c0.109,0.286,0.348,0.441,0.721,0.467
	c0.383,0.026,0.643-0.082,0.783-0.327c0.138-0.244,0.238-0.785,0.296-1.622C299.638,190.595,299.844,187.618,300.049,184.641
	 M304.752,174.934c-1.408,0.92-2.816,1.84-4.224,2.76c-0.829-0.058-1.657-0.113-2.485-0.172c0.787-0.963,1.573-1.925,2.36-2.888
	C301.853,174.733,303.303,174.834,304.752,174.934"/>
<path fill="#C2DD91" d="M315.52,180.342c-0.078,0.59-0.156,1.181-0.234,1.771c0.517-0.678,1.123-1.171,1.823-1.479
	c0.698-0.309,1.489-0.434,2.37-0.372c1.103,0.076,1.991,0.378,2.658,0.902c0.67,0.525,1.079,1.157,1.23,1.896
	c0.152,0.739,0.17,1.955,0.052,3.649c-0.313,4.524-0.624,9.048-0.937,13.572c-2.146-0.147-4.29-0.295-6.436-0.443
	c0.309-4.472,0.617-8.942,0.926-13.414c0.092-1.332,0.1-2.148,0.024-2.446c-0.074-0.299-0.332-0.463-0.767-0.493
	c-0.457-0.032-0.755,0.116-0.895,0.443c-0.139,0.328-0.261,1.222-0.361,2.682c-0.301,4.363-0.603,8.729-0.903,13.092
	c-2.146-0.148-4.291-0.297-6.437-0.444l1.336-19.368C311.154,180.04,313.337,180.19,315.52,180.342"/>
<path fill="#C2DD91" d="M340.657,182.076c-0.343,4.972-0.687,9.943-1.029,14.916c-0.139,2.014-0.278,3.313-0.42,3.894
	c-0.142,0.582-0.544,1.18-1.205,1.794c-0.659,0.614-1.553,1.057-2.676,1.326s-2.518,0.347-4.186,0.231
	c-2.05-0.141-3.673-0.574-4.872-1.297c-1.199-0.724-1.755-2.02-1.669-3.891c2.082,0.144,4.163,0.287,6.245,0.431
	c-0.06,0.855,0.251,1.308,0.931,1.354c0.488,0.034,0.822-0.075,0.999-0.326c0.177-0.253,0.296-0.796,0.353-1.633
	c0.034-0.487,0.067-0.974,0.102-1.46c-0.584,0.419-1.188,0.724-1.816,0.916c-0.627,0.191-1.275,0.263-1.943,0.218
	c-1.158-0.08-2.096-0.36-2.815-0.841c-0.719-0.479-1.193-1.077-1.422-1.791c-0.228-0.715-0.298-1.714-0.209-2.999
	c0.162-2.345,0.323-4.689,0.485-7.035c0.127-1.838,0.58-3.137,1.358-3.895c0.777-0.758,1.903-1.087,3.382-0.984
	c0.808,0.056,1.532,0.258,2.174,0.604c0.645,0.35,1.202,0.842,1.684,1.48l0.563-1.427L340.657,182.076z M333.852,186.768
	c0.061-0.885,0.043-1.453-0.051-1.704c-0.095-0.252-0.334-0.39-0.716-0.416c-0.372-0.026-0.644,0.095-0.817,0.361
	c-0.172,0.267-0.287,0.809-0.344,1.626c-0.149,2.17-0.3,4.34-0.449,6.51c-0.062,0.866-0.041,1.432,0.059,1.697
	c0.098,0.268,0.333,0.412,0.705,0.438c0.425,0.029,0.713-0.106,0.86-0.409c0.149-0.303,0.263-1.003,0.339-2.103
	C333.576,190.768,333.714,188.768,333.852,186.768"/>
<path fill="#C2DD91" d="M366.318,188.305c-2.235-0.154-4.472-0.309-6.707-0.463c0.05-0.715,0.099-1.432,0.148-2.146
	c0.093-1.353,0.089-2.204-0.015-2.553c-0.105-0.35-0.396-0.541-0.873-0.573c-0.414-0.028-0.707,0.098-0.875,0.38
	c-0.169,0.281-0.294,1.025-0.379,2.231c-0.261,3.781-0.521,7.56-0.782,11.341c-0.073,1.062-0.046,1.763,0.078,2.11
	c0.127,0.345,0.41,0.534,0.858,0.565c0.488,0.033,0.832-0.134,1.035-0.502c0.201-0.366,0.34-1.1,0.416-2.199
	c0.064-0.934,0.129-1.868,0.193-2.803c-0.451-0.031-0.903-0.063-1.355-0.094c0.083-1.196,0.165-2.394,0.248-3.591
	c2.618,0.181,5.235,0.361,7.854,0.542c-0.292,4.229-0.583,8.456-0.875,12.684c-1.407-0.097-2.814-0.193-4.222-0.291
	c-0.168-0.578-0.337-1.156-0.505-1.735c-0.507,0.697-1.121,1.205-1.842,1.522c-0.721,0.316-1.553,0.442-2.498,0.378
	c-1.127-0.078-2.163-0.402-3.11-0.97c-0.948-0.569-1.651-1.241-2.11-2.017c-0.458-0.774-0.725-1.572-0.794-2.394
	c-0.071-0.821-0.052-2.044,0.06-3.669c0.161-2.341,0.323-4.681,0.484-7.021c0.156-2.258,0.402-3.888,0.738-4.892
	c0.336-1.003,1.164-1.886,2.48-2.651c1.316-0.765,2.973-1.078,4.971-0.94c1.965,0.136,3.569,0.618,4.815,1.447
	c1.243,0.828,2.027,1.766,2.351,2.81c0.322,1.045,0.416,2.533,0.283,4.47C366.366,187.623,366.341,187.964,366.318,188.305"/>
<path fill="#C2DD91" d="M375.657,184.492c-0.445,6.455-0.891,12.911-1.336,19.367c-2.209-0.152-4.418-0.305-6.628-0.458
	c0.445-6.455,0.892-12.911,1.337-19.367C371.239,184.187,373.448,184.339,375.657,184.492 M375.952,180.229
	c-0.07,1.026-0.142,2.053-0.213,3.08c-2.209-0.152-4.418-0.305-6.627-0.458c0.07-1.026,0.142-2.053,0.212-3.08
	C371.533,179.924,373.743,180.077,375.952,180.229"/>
<path fill="#C2DD91" d="M383.2,192.55c-2.013-0.14-4.024-0.278-6.037-0.417c0.03-0.433,0.06-0.865,0.09-1.299
	c0.104-1.498,0.371-2.641,0.805-3.428c0.433-0.786,1.238-1.451,2.418-1.996c1.18-0.543,2.678-0.755,4.492-0.629
	c2.177,0.15,3.795,0.617,4.852,1.398c1.056,0.781,1.658,1.694,1.812,2.735c0.151,1.043,0.116,3.165-0.104,6.365
	c-0.224,3.241-0.447,6.479-0.671,9.721c-2.087-0.145-4.174-0.288-6.261-0.433c0.04-0.574,0.079-1.147,0.118-1.722
	c-0.439,0.662-0.982,1.146-1.629,1.449c-0.645,0.303-1.397,0.424-2.258,0.364c-1.125-0.077-2.14-0.438-3.037-1.082
	c-0.9-0.644-1.283-1.944-1.148-3.898c0.037-0.531,0.073-1.062,0.109-1.592c0.101-1.45,0.419-2.421,0.954-2.912
	c0.535-0.49,1.816-1.017,3.838-1.583c2.167-0.612,3.332-1.045,3.499-1.297c0.168-0.253,0.28-0.782,0.335-1.591
	c0.069-1.012,0.033-1.676-0.11-1.994c-0.143-0.318-0.408-0.489-0.789-0.517c-0.435-0.03-0.715,0.081-0.84,0.331
	c-0.124,0.25-0.224,0.915-0.298,1.996C383.292,191.197,383.247,191.873,383.2,192.55 M384.959,182.347
	c-0.462,0.517-0.925,1.031-1.387,1.547c-1.004-0.069-2.008-0.139-3.011-0.208c1.006-1.113,2.011-2.227,3.017-3.34
	c1.009,0.069,2.018,0.139,3.026,0.209c0.784,1.237,1.568,2.474,2.353,3.71c-0.972-0.066-1.943-0.134-2.915-0.201
	C385.681,183.492,385.321,182.919,384.959,182.347 M385.056,195.347c-1.078,0.62-1.716,1.158-1.912,1.613
	c-0.197,0.456-0.329,1.121-0.388,1.997c-0.068,1.003-0.041,1.654,0.082,1.956c0.124,0.302,0.398,0.467,0.822,0.497
	c0.404,0.028,0.674-0.068,0.813-0.289c0.138-0.22,0.24-0.816,0.308-1.79C384.873,198.003,384.964,196.675,385.056,195.347
	 M390.836,177.238c-1.408,0.92-2.816,1.84-4.226,2.759c-0.828-0.057-1.657-0.114-2.485-0.172c0.787-0.962,1.574-1.924,2.361-2.887
	C387.937,177.039,389.386,177.139,390.836,177.238"/>
<path fill="#C2DD91" d="M407.885,186.717c-0.938,4.627-1.878,9.255-2.816,13.884c-0.439,2.198-0.784,3.694-1.037,4.488
	c-0.254,0.795-0.625,1.438-1.119,1.933c-0.493,0.493-1.153,0.837-1.982,1.029c-0.83,0.191-2.137,0.226-3.922,0.104l-3.902-0.271
	c0.071-1.031,0.142-2.063,0.213-3.095c0.998,0.069,1.645,0.067,1.938-0.005c0.294-0.073,0.452-0.271,0.473-0.591
	c0.012-0.155-0.075-0.841-0.258-2.056l-2.402-16.444c1.948,0.135,3.897,0.27,5.846,0.403c0.4,4.402,0.801,8.807,1.201,13.208
	c0.641-4.331,1.281-8.662,1.922-12.992C403.987,186.447,405.936,186.581,407.885,186.717"/>
<path fill="#C2DD91" d="M432.583,184.138c-0.544,7.877-1.087,15.754-1.631,23.63c-1.959-0.135-3.919-0.27-5.878-0.404
	c-0.916-3.662-1.832-7.323-2.748-10.983c-0.247,3.58-0.494,7.161-0.741,10.741c-1.869-0.129-3.737-0.258-5.605-0.387
	c0.543-7.876,1.086-15.753,1.63-23.63c1.87,0.13,3.737,0.259,5.606,0.388c1.009,3.633,2.017,7.267,3.025,10.899
	c0.245-3.547,0.488-7.094,0.734-10.641L432.583,184.138z"/>
<path fill="#C2DD91" d="M448.675,199.605l-8.332-0.574c-0.096,1.396-0.192,2.792-0.289,4.188c-0.062,0.875-0.029,1.444,0.091,1.707
	c0.119,0.264,0.377,0.407,0.771,0.435c0.487,0.035,0.827-0.111,1.014-0.436c0.188-0.324,0.315-0.968,0.382-1.932
	c0.059-0.852,0.117-1.702,0.176-2.554c2.034,0.14,4.067,0.281,6.102,0.421c-0.033,0.477-0.065,0.953-0.099,1.431
	c-0.083,1.197-0.23,2.11-0.438,2.741c-0.208,0.629-0.642,1.29-1.296,1.978c-0.655,0.689-1.463,1.183-2.415,1.483
	c-0.955,0.303-2.132,0.403-3.535,0.307c-1.358-0.094-2.548-0.357-3.563-0.789c-1.018-0.433-1.794-0.981-2.327-1.648
	c-0.536-0.668-0.89-1.386-1.06-2.156c-0.172-0.769-0.207-1.874-0.107-3.314c0.13-1.883,0.261-3.766,0.391-5.648
	c0.116-1.692,0.458-3.012,1.024-3.955c0.567-0.942,1.437-1.636,2.608-2.078s2.496-0.612,3.973-0.511
	c1.806,0.125,3.273,0.542,4.403,1.25c1.13,0.709,1.896,1.599,2.296,2.667c0.402,1.068,0.538,2.542,0.408,4.419
	C448.793,197.893,448.734,198.749,448.675,199.605 M442.262,186.302c-0.462,0.516-0.925,1.031-1.387,1.547l-3.012-0.208
	c1.006-1.113,2.011-2.228,3.017-3.34c1.009,0.07,2.018,0.139,3.026,0.209c0.784,1.235,1.568,2.474,2.353,3.71
	c-0.972-0.066-1.943-0.134-2.915-0.201C442.984,187.446,442.624,186.874,442.262,186.302 M442.441,196.009
	c0.032-0.473,0.065-0.944,0.098-1.416c0.069-1.003,0.056-1.654-0.04-1.953c-0.099-0.301-0.326-0.464-0.688-0.488
	c-0.446-0.03-0.732,0.074-0.854,0.315c-0.124,0.24-0.224,0.905-0.299,1.996c-0.032,0.472-0.065,0.943-0.098,1.415
	C441.188,195.922,441.814,195.965,442.441,196.009 M447.977,181.184c-1.408,0.919-2.815,1.838-4.224,2.758
	c-0.828-0.058-1.657-0.114-2.485-0.172c0.787-0.962,1.574-1.925,2.361-2.887C445.079,180.983,446.528,181.083,447.977,181.184"/>
<path fill="none" stroke="#CCE195" stroke-miterlimit="10" d="M475.661,190.888c-0.631-3.075-2.308-5.756-4.839-7.744
	c-2.271-1.789-5.016-2.806-8.155-3.022c-0.38-0.026-0.753-0.039-1.119-0.039c-0.78,0-1.546,0.057-2.297,0.17
	c-0.181-0.022-0.362-0.04-0.545-0.052l-0.795-0.056c-0.052-0.494-0.128-0.989-0.256-1.481c-1.083-4.158-4.702-7.16-8.988-7.456
	l-4.348-0.3c-0.231-0.017-0.461-0.024-0.69-0.024c-2.988,0-5.834,1.338-7.74,3.669l-0.103,0.125
	c-0.808-0.273-1.648-0.455-2.514-0.515l-5.607-0.387c-0.234-0.017-0.467-0.024-0.698-0.024c-0.181,0-0.355,0.022-0.534,0.033
	l5.044-14.579c0.563-1.626,0.689-3.345,0.401-4.994c8.988-23.565,18.271-47.653,27.596-71.611c1.249-3.212,0.758-6.842-1.303-9.604
	c-1.896-2.543-4.875-4.022-8.016-4.022c-0.271,0-0.545,0.012-0.818,0.034l-20.747,1.703c-4.181,0.343-7.702,3.258-8.82,7.3
	c-1.409,5.092-2.833,10.214-4.263,15.345c-1.189-1.034-2.503-1.967-3.964-2.758c-3.556-1.926-7.865-2.901-12.81-2.901
	c-0.8,0-1.629,0.025-2.469,0.075c-5.99,0.358-11.456,1.978-16.285,4.796c-1.757-1.4-3.946-2.188-6.229-2.188
	c-0.19,0-0.383,0.005-0.574,0.017l-15.729,0.903c-1.384,0.079-2.704,0.442-3.896,1.037c-1.086-0.395-2.24-0.602-3.415-0.602
	c-0.191,0-0.383,0.007-0.574,0.017l-15.125,0.869c-1.427,0.081-2.782,0.463-3.999,1.089c-1.117-0.42-2.31-0.641-3.522-0.641
	c-0.191,0-0.383,0.006-0.574,0.017l-10.036,0.576c-0.419-1.697-1.272-3.277-2.517-4.562c-1.891-1.952-4.485-3.044-7.183-3.044
	c-0.241,0-0.483,0.009-0.725,0.026l-18.685,1.356c-4.99,0.362-8.945,4.357-9.257,9.352l-0.117,1.904
	c-0.412,0.278-0.792,0.597-1.157,0.932c-0.168-0.111-0.329-0.232-0.502-0.334c-0.019-2.765-1.179-5.399-3.208-7.277
	c-1.855-1.717-4.282-2.661-6.792-2.661c-0.24,0-0.482,0.009-0.724,0.026l-18.683,1.355c-5.38,0.391-9.459,4.973-9.262,10.339
	c-3.916-1.742-8.62-2.597-14.329-2.597c-1.218,0-2.502,0.04-3.816,0.118c-6.749,0.403-12.365,1.918-16.694,4.503
	c-1.268,0.759-2.423,1.565-3.464,2.419c-1.783-1.272-3.765-2.383-5.961-3.304c-4.348-1.826-9.436-2.752-15.121-2.752
	c-0.661,0-1.335,0.013-2.014,0.037c-5.046,0.181-9.562,1.141-13.46,2.836l-3.174-11.939c-1.166-4.387-5.137-7.431-9.663-7.431
	c-0.05,0-27.326,0.409-27.326,0.409c-1.824,0.028-3.583,0.552-5.102,1.489c-1.494-0.86-3.209-1.336-4.993-1.336
	c-0.049,0-0.1,0.001-0.15,0.001c-0.609,0.01-1.232,0.014-1.868,0.014c-3.847,0-8.322-0.155-12.649-0.306
	c-4.497-0.155-9.148-0.317-13.341-0.317c-0.738,0-1.463,0.006-2.168,0.016c-3.299,0.05-6.361,1.724-8.184,4.472
	c-1.824,2.75-2.174,6.221-0.936,9.279c2.102,5.194,4.443,10.449,6.886,15.696c-0.799-0.202-1.621-0.315-2.454-0.315
	c-0.448,0-0.898,0.03-1.348,0.092c-2.944,0.399-5.557,2.088-7.132,4.607l-6.766,10.824c-1.57,2.512-1.945,5.591-1.025,8.406
	c0.919,2.816,3.041,5.079,5.791,6.179l4.382,1.753c0.004,0.281,0.009,0.563,0.038,0.844l1.082,10.854
	c0.293,2.947,1.879,5.612,4.329,7.277c1.675,1.14,3.637,1.73,5.622,1.73c0.916,0,1.838-0.126,2.738-0.383l16.837-4.794
	c0.207,0.5,0.423,1.005,0.624,1.502c1.509,3.729,5.103,6.189,9.124,6.248c2.646,0.039,15.002,0.232,15.051,0.232
	c1.106,0,2.19-0.183,3.212-0.529c1.052,0.392,2.18,0.608,3.34,0.626c0,0,11.376,0.166,11.425,0.166c1.23,0,2.434-0.228,3.559-0.655
	c1.135,0.466,2.368,0.727,3.647,0.745c1.161,0.018,4.191,0.064,7.231,0.111l-1.45,21.014c-0.381,5.51,3.777,10.285,9.286,10.665
	l7.759,0.536c1.477,0.102,2.726,0.15,3.82,0.15c1.819,0,3.264-0.146,4.54-0.45c1.802,0.925,3.834,1.493,6.08,1.648
	c0.38,0.026,0.753,0.039,1.12,0.039c0.771,0,1.529-0.055,2.271-0.166c0.141,0.016,0.283,0.028,0.426,0.038l6.547,0.452
	c0.234,0.016,0.466,0.023,0.697,0.023c0.197,0,0.39-0.017,0.583-0.026c0.417,0.083,0.839,0.148,1.268,0.178l6.436,0.445
	c0.234,0.016,0.466,0.023,0.698,0.023c0.281,0,0.559-0.017,0.835-0.04c0.48,0.106,0.967,0.188,1.463,0.223l6.435,0.444
	c0.235,0.018,0.467,0.024,0.698,0.024c1.005,0,1.979-0.153,2.899-0.434c1.969,0.801,4.153,1.297,6.511,1.459
	c0.581,0.04,1.139,0.059,1.673,0.059c1.995,0,3.864-0.27,5.558-0.804c0.225-0.071,0.432-0.171,0.652-0.25
	c0.884,0.442,1.806,0.813,2.77,1.054c1.238,0.31,2.74,0.514,4.874,0.661l2.595,0.179c0.234,0.017,0.466,0.024,0.697,0.024
	c1.452,0,2.835-0.323,4.091-0.89c1.387,0.873,2.978,1.402,4.642,1.518l5.607,0.386c0.235,0.017,0.467,0.024,0.699,0.024
	c0.357,0,0.711-0.02,1.059-0.057c0.561,0.14,1.14,0.232,1.731,0.272l5.878,0.406c0.234,0.017,0.467,0.024,0.698,0.024
	c0.573,0,1.136-0.056,1.685-0.151c1.389,0.511,2.884,0.845,4.492,0.954c0.379,0.025,0.752,0.038,1.121,0.038
	c0.769,0,1.526-0.056,2.269-0.166c0.141,0.016,0.282,0.028,0.424,0.038l6.547,0.452c0.23,0.017,0.46,0.024,0.689,0.024
	c0.827,0,1.646-0.11,2.439-0.31c0.025,0.009,0.047,0.022,0.071,0.03c1.877,0.688,3.949,1.101,6.331,1.266
	c0.552,0.038,1.09,0.058,1.614,0.058c1.62,0,3.178-0.189,4.629-0.539c1.014,0.431,2.096,0.706,3.216,0.781l6.437,0.444
	c0.229,0.017,0.459,0.024,0.688,0.024c0.102,0,0.202-0.001,0.304-0.005c0.324,0.055,0.652,0.095,0.984,0.117l3.805,0.263
	c0.596,0.523,1.239,1.005,1.94,1.428c2.603,1.57,5.659,2.455,9.347,2.709c0.727,0.051,1.438,0.076,2.117,0.076
	c1.858,0,3.524-0.184,5.096-0.561c2.816-0.677,5.224-1.933,7.139-3.718c0.325-0.302,0.628-0.613,0.918-0.93
	c0.695,0.587,1.43,1.145,2.248,1.635c2.312,1.386,4.856,2.183,7.566,2.369c0.395,0.027,0.78,0.04,1.158,0.04
	c1.015,0,2.006-0.092,2.968-0.279c0.236,0.033,0.475,0.059,0.716,0.075l4.221,0.291c0.235,0.016,0.468,0.023,0.699,0.023
	c0.168,0,0.333-0.016,0.499-0.023c0.398,0.077,0.8,0.139,1.209,0.166l6.627,0.457c0.234,0.017,0.466,0.024,0.698,0.024
	c0.51,0,1.009-0.049,1.501-0.124c1.376,0.494,2.824,0.8,4.305,0.901c0.376,0.025,0.745,0.038,1.106,0.038
	c0.767,0,1.52-0.056,2.254-0.167c0.136,0.015,0.272,0.027,0.41,0.037l1.872,0.13c1.728,1.862,4.096,3.01,6.638,3.185l3.901,0.27
	c0.937,0.064,1.775,0.097,2.564,0.097c1.634,0,3.042-0.142,4.308-0.435c2.467-0.571,4.676-1.734,6.426-3.356
	c1.601,1.322,3.577,2.132,5.675,2.276l5.606,0.387c0.234,0.016,0.467,0.023,0.698,0.023c0.357,0,0.711-0.019,1.059-0.056
	c0.562,0.14,1.141,0.232,1.732,0.273l5.878,0.405c0.234,0.016,0.467,0.023,0.698,0.023c0.963,0,1.897-0.14,2.785-0.397
	c1.932,0.767,4.066,1.248,6.37,1.406c0.581,0.04,1.139,0.06,1.675,0.06c1.591,0,3.097-0.179,4.503-0.521
	c0.995,0.414,2.054,0.678,3.15,0.753l6.436,0.444c0.229,0.016,0.459,0.023,0.688,0.023c0.102,0,0.202-0.002,0.304-0.004
	c0.324,0.055,0.652,0.094,0.984,0.116l6.436,0.444c0.234,0.016,0.466,0.024,0.697,0.024c5.209,0,9.603-4.037,9.967-9.312
	l0.936-13.578C476.08,194.516,476.005,192.553,475.661,190.888z"/>
<path fill="#C2DD91" d="M458.018,190.176c-0.078,0.592-0.157,1.183-0.235,1.771c0.517-0.676,1.125-1.17,1.823-1.479
	s1.487-0.433,2.371-0.372c1.103,0.076,1.99,0.377,2.657,0.902c0.669,0.526,1.078,1.156,1.229,1.896
	c0.153,0.738,0.169,1.955,0.053,3.647c-0.313,4.524-0.624,9.049-0.937,13.574c-2.146-0.148-4.29-0.296-6.436-0.444
	c0.309-4.472,0.617-8.942,0.926-13.413c0.092-1.334,0.102-2.149,0.024-2.446c-0.074-0.301-0.33-0.463-0.767-0.494
	c-0.457-0.031-0.755,0.116-0.896,0.443c-0.139,0.329-0.26,1.222-0.36,2.682c-0.301,4.364-0.603,8.729-0.903,13.092
	c-2.146-0.147-4.29-0.296-6.436-0.444c0.445-6.456,0.891-12.911,1.336-19.367C453.652,189.875,455.835,190.025,458.018,190.176"/>
</svg>
