<svg width="25" height="15" viewBox="0 0 25 15" fill="none" xmlns="http://www.w3.org/2000/svg">
<path d="M23.402 7.01361C23.3235 6.99712 23.2494 6.98161 23.1835 6.96448C22.4365 6.77021 22.0955 6.66373 21.8434 6.177L20.8885 4.24369C20.5816 3.65123 19.7892 3.1692 19.122 3.1692H17.4219V0.936709C17.4219 0.535863 17.0958 0.209717 16.6948 0.209717L4.85377 0.221608C4.46363 0.221608 4.16942 0.531647 4.16942 0.942817V1.60268H1.13605C0.509651 1.60273 0 2.11233 0 2.73878C0 3.36524 0.509651 3.87484 1.13605 3.87484H4.16937V4.96371H2.18336C1.55695 4.96371 1.0473 5.47336 1.0473 6.09976C1.0473 6.72616 1.55695 7.23581 2.18336 7.23581H4.16937V8.32468H3.23066C2.60425 8.32468 2.0946 8.83433 2.0946 9.46074C2.0946 10.0871 2.60425 10.5968 3.23066 10.5968H4.16937V11.7357C4.16937 12.1365 4.49552 12.4626 4.89636 12.4626H6.12809C6.31992 13.7773 7.45462 14.7903 8.82185 14.7903C10.1892 14.7903 11.3239 13.7773 11.5158 12.4626H16.5007C16.5266 12.4626 16.5531 12.4609 16.5796 12.4592C16.77 13.7756 17.9054 14.7903 19.2738 14.7903C20.6411 14.7903 21.7759 13.7773 21.9678 12.4626H23.737C24.4334 12.4626 25.0001 11.8961 25.0001 11.1997V9.05665C25 7.34889 24.0383 7.14711 23.402 7.01361ZM19.2738 11.0782C19.8197 11.0782 20.2638 11.5221 20.2638 12.0679C20.2638 12.6137 19.8197 13.0576 19.2738 13.0576C18.7281 13.0576 18.2841 12.6137 18.2841 12.0679C18.2841 11.5221 18.7281 11.0782 19.2738 11.0782ZM17.4219 6.85967V4.22358H18.7211C19.2204 4.22358 19.8364 4.59826 20.065 5.03943L20.9148 6.75984C20.9328 6.79465 20.9515 6.82783 20.9709 6.85962H17.4219V6.85967ZM9.81191 12.0679C9.81191 12.6136 9.36777 13.0576 8.82185 13.0576C8.27615 13.0576 7.83222 12.6136 7.83222 12.0679C7.83222 11.5221 8.27615 11.0781 8.82185 11.0781C9.36777 11.0782 9.81191 11.5221 9.81191 12.0679Z" fill="#E84A1B"/>
</svg>
