<svg width="14" height="14" viewBox="0 0 14 14" fill="none" xmlns="http://www.w3.org/2000/svg">
<path d="M6.02374 14C5.59169 14 5.19288 13.8337 4.89377 13.5344L0.473591 9.11161C-0.157864 8.47978 -0.157864 7.48216 0.473591 6.85033L6.38932 0.931082C6.92107 0.399015 7.88487 -3.05176e-05 8.61602 -3.05176e-05H12.4047C13.2688 -3.05176e-05 14 0.731557 14 1.59616V5.38715C14 6.11874 13.6012 7.0831 13.0694 7.61517L7.15371 13.5344C6.8546 13.8337 6.45579 14 6.02374 14ZM8.61602 0.997594C8.15074 0.997594 7.41958 1.29688 7.08724 1.62942L1.17151 7.54867C0.938872 7.78145 0.938872 8.14724 1.17151 8.38002L5.59169 12.8028C5.82433 13.0356 6.22314 13.0356 6.42255 12.8028L12.3383 6.88358C12.6706 6.55104 12.9697 5.8527 12.9697 5.35389V1.56292C12.9697 1.23038 12.7039 0.964338 12.3715 0.964338H8.61602V0.997594Z" fill="white"/>
<path d="M10.0116 5.95243C8.94811 5.95243 8.05078 5.08782 8.05078 3.99044C8.05078 2.9263 8.91488 2.02844 10.0116 2.02844C11.0751 2.02844 11.9724 2.89305 11.9724 3.99044C11.9724 5.05457 11.1083 5.95243 10.0116 5.95243ZM10.0116 2.95955C9.44663 2.95955 8.98135 3.42511 8.98135 3.99044C8.98135 4.55576 9.44663 5.02132 10.0116 5.02132C10.5766 5.02132 11.0419 4.55576 11.0419 3.99044C11.0419 3.42511 10.5766 2.95955 10.0116 2.95955Z" fill="white"/>
</svg>
